<?xml version="1.0" standalone="yes"?>
<svg xmlns="http://www.w3.org/2000/svg" width="700" height="500">
<path style="fill:none; stroke:none;" d="M0 0L0 500L200 500L524 500L588 500L592 500L597 500L607 500L609 500L649 500L653 500L669 500L674 500L675 500L683 500L687 500L688 500L695 500L700 500L700 498.5L700 494L700 441L700 428L700 414L700 394L700 374L700 355L700 354L700 341L700 332L700 331L700 326L700 302L700 294L700 293L700 274L700 268L700 256L700 0L689 0L673 0L669 0L668 0L664 0L656 0L653 0L651 0L645 0L644 0L628 0L622 0L621 0L608 0L600 0L571 0L564 0L556 0L554 0L549 0L541 0L540 0L508 0L451 0L446 0L301 0L0 0z"/>
<path style="fill:#bebebe; stroke:none;" d="M416 119L417 120L416 119z"/>
<path style="fill:#515151; stroke:none;" d="M417 119L418 120L417 119z"/>
<path style="fill:#8e8e8e; stroke:none;" d="M418 119L419 120L418 119z"/>
<path style="fill:#b6b6b6; stroke:none;" d="M419.333 119.667L419.333 120.333L419.667 120.333L419.667 119.667L419.333 119.667z"/>
<path style="fill:#c8c8c8; stroke:none;" d="M414 120L415 121L414 120z"/>
<path style="fill:#6f6f6f; stroke:none;" d="M415 120L416 121L415 120z"/>
<path style="fill:#000000; stroke:none;" d="M341 164L341.278 165.5L341.917 167.056L342.417 168L343.611 170L344.194 171L344.806 172L345.944 174L346.472 175L347.528 177L348.056 178L348.639 179L349.194 180L350.389 182L351.611 184L352.75 186L353.25 187L354.389 189L355.611 191L356.75 193L357.222 194L357.778 195L358.25 196L359.389 198L360.611 200L361.75 202L362.25 203L363.389 205L364.611 207L365.194 208L366.389 210L367.583 212L368.611 214L369.056 215L370.083 217L370.694 218L372 219.917L373.306 221.611L373.917 222.389L374.444 223.222L375.361 225.028L375.833 226L376.278 227L377.361 229L377.944 230L378.472 231L379.528 233L380.056 234L381.167 236L381.75 237L382.25 238L383.389 240L384.028 241L385.333 243L385.972 244L386.611 245L387.75 247L388.222 248L388.778 249L389.222 250L389.778 251L390.25 252L390.833 253L391.389 254L392.611 256L393.194 257L394.389 259L395.611 261L396.75 263L397.25 264L397.833 265L399 267L400.194 268.917L401.361 270.611L402.444 272.222L402.944 273.083L403.833 274.972L404.278 275.917L405.361 277.611L405.944 278.389L406.944 280.083L407.361 281.028L408.278 283L409.389 285L410.611 287L411.75 289L412.222 290L413.25 292L414.389 294L415.611 296L416.75 298L417.25 299L418.389 301L419.611 303L420.75 305L421.25 306L422.389 308L423.611 310L424.75 312L425.25 313L426.389 315L427.611 317L428.806 319L429.389 320L430.611 322L431.75 323.972L432.25 324.917L432.833 325.778L433.361 326.611L434.444 328.222L434.944 329.083L435.833 330.972L436.278 331.917L437.361 333.611L438.444 335.222L438.944 336.083L439.833 338L440.278 339L441.389 341L442.611 343L443.167 344L443.75 345L444.778 347L445.25 348L445.833 349L446.944 350.944L447.306 351.5L448 353L485 353L549 353L553 353L552.722 351.5L552.139 349.944L551.722 349L550.611 347L549.389 345L548.25 343L547.75 342L546.611 340L545.389 338L544.194 336L543.611 335L542.389 333L541.25 331L540.75 330L539.611 328L538.389 326L537.806 325L536.611 323L535.389 321L534.25 319L533.222 317.028L532.75 316.083L531.639 314.389L531.056 313.611L530.056 311.917L529.611 310.972L528.583 309L527.389 307L526.194 305L525.611 304L524.389 302L523.806 301L522.611 299L521.389 297L520.25 295L519.222 293.028L518.75 292.083L517.639 290.389L517.056 289.611L516 287.917L514.944 286L513.833 284L513.25 283L512.75 282L511.611 280L510.389 278L509.833 277L509.25 276L508.222 274L507.75 273L506.611 271L505.389 269L504.25 267L503.75 266L502.556 264L501.167 262L500.444 261L499.25 259L498.778 258L498.222 257L497.75 256L496.611 254L495.972 253L495.333 252L494.028 250L493.389 249L492.25 247L491.778 246L491.222 245L490.778 244L490.222 243L489.75 242L488.611 240L487.972 239L487.333 238L486.667 237L485.389 235L484.806 234L483.611 232L482.389 230L481.806 229L480.611 227L479.389 225L478.25 223L477.778 222L476.75 220L475.611 218L474.389 216L473.194 214L472.611 213L471.389 211L470.25 209L469.75 208L469.167 207L468.056 205L467.528 204L467 203L465.917 201L464.667 199L464.028 198L463.389 197L462.25 195L461.75 194L460.611 192L459.389 190L458.194 188L457.611 187L456.389 185L455.194 183L454.611 182L453.389 180L452.806 179L451.611 177L450.389 175L449.25 173L448.778 172L448.222 171L447.75 170L447.167 169L446.611 168L445.389 166L444.806 165L443.611 163L442.389 161L441.25 159L440.75 158L439.611 156L438.389 154L437.25 152L436.75 151L435.611 149L434.389 147L433.194 145L432.611 144L431.389 142L430.806 141L429.611 139L428.389 137L427.25 135L426.75 134L425.556 132L424.861 131L423.611 129L422.611 127L421.583 125L420.417 123.056L419.889 122.056L419.528 121.5L419 120L417.5 120.111L415.944 120.639L414 121.639L413 122.167L412 122.75L411 123.25L409 124.389L407 125.611L405 126.75L404 127.222L403 127.778L402 128.25L400 129.389L399 130.028L397 131.333L395 132.611L393 133.75L392 134.25L390 135.389L388 136.611L387 137.167L386 137.75L384 138.778L383 139.25L381 140.389L379 141.611L377 142.75L376 143.25L374 144.389L372 145.611L370 146.806L369 147.389L367 148.611L366 149.194L364 150.389L362 151.611L360 152.75L359 153.222L358 153.778L357 154.222L355 155.25L354 155.833L353 156.389L351 157.611L349 158.806L348 159.389L346 160.667L345 161.333L344.056 161.944L343.056 162.611L342.5 162.944L341 164z"/>
<path style="fill:#cfcfcf; stroke:none;" d="M412 121L413 122L412 121z"/>
<path style="fill:#808080; stroke:none;" d="M413 121L414 122L413 121z"/>
<path style="fill:#353535; stroke:none;" d="M414 121L415 122L414 121z"/>
<path style="fill:#606060; stroke:none;" d="M419 121L420 122L419 121z"/>
<path style="fill:#969696; stroke:none;" d="M411 122L412 123L411 122z"/>
<path style="fill:#4f4f4f; stroke:none;" d="M412 122L413 123L412 122z"/>
<path style="fill:#a4a4a4; stroke:none;" d="M420 122L421 123L420 122z"/>
<path style="fill:#acacac; stroke:none;" d="M409 123L410 124L409 123z"/>
<path style="fill:#646464; stroke:none;" d="M410 123L411 124L410 123z"/>
<path style="fill:#3e3e3e; stroke:none;" d="M420 123L421 124L420 123z"/>
<path style="fill:#c1c1c1; stroke:none;" d="M407 124L408 125L407 124z"/>
<path style="fill:#868686; stroke:none;" d="M408 124L409 125L408 124z"/>
<path style="fill:#8a8a8a; stroke:none;" d="M421 124L422 125L421 124z"/>
<path style="fill:#949494; stroke:none;" d="M406 125L407 126L406 125z"/>
<path style="fill:#393939; stroke:none;" d="M407 125L408 126L407 125z"/>
<path style="fill:#c4c4c4; stroke:none;" d="M422 125L423 126L422 125z"/>
<path style="fill:#aaaaaa; stroke:none;" d="M404 126L405 127L404 126z"/>
<path style="fill:#505050; stroke:none;" d="M405 126L406 127L405 126z"/>
<path style="fill:#707070; stroke:none;" d="M422 126L423 127L422 126z"/>
<path style="fill:#bababa; stroke:none;" d="M402 127L403 128L402 127z"/>
<path style="fill:#616161; stroke:none;" d="M403 127L404 128L403 127z"/>
<path style="fill:#a1a1a1; stroke:none;" d="M423 127L424 128L423 127z"/>
<path style="fill:#676767; stroke:none;" d="M401 128L402 129L401 128z"/>
<path style="fill:#232323; stroke:none;" d="M423.333 128.667L423.333 129.333L423.667 129.333L423.667 128.667L423.333 128.667z"/>
<path style="fill:#8f8f8f; stroke:none;" d="M399 129L400 130L399 129z"/>
<path style="fill:#929292; stroke:none;" d="M424 129L425 130L424 129z"/>
<path style="fill:#a3a3a3; stroke:none;" d="M397 130L398 131L397 130z"/>
<path style="fill:#474747; stroke:none;" d="M398 130L399 131L398 130z"/>
<path style="fill:#353535; stroke:none;" d="M424 130L425 131L424 130z"/>
<path style="fill:#c8c8c8; stroke:none;" d="M425 130L426 131L425 130z"/>
<path style="fill:#b3b3b3; stroke:none;" d="M395 131L396 132L395 131z"/>
<path style="fill:#666666; stroke:none;" d="M396 131L397 132L396 131z"/>
<path style="fill:#7a7a7a; stroke:none;" d="M425 131L426 132L425 131z"/>
<path style="fill:#c4c4c4; stroke:none;" d="M393 132L394 133L393 132z"/>
<path style="fill:#808080; stroke:none;" d="M394 132L395 133L394 132z"/>
<path style="fill:#2d2d2d; stroke:none;" d="M395 132L396 133L395 132z"/>
<path style="fill:#a9a9a9; stroke:none;" d="M426 132L427 133L426 132z"/>
<path style="fill:#d2d2d2; stroke:none;" d="M391 133L392 134L391 133z"/>
<path style="fill:#9b9b9b; stroke:none;" d="M392 133L393 134L392 133z"/>
<path style="fill:#414141; stroke:none;" d="M393 133L394 134L393 133z"/>
<path style="fill:#616161; stroke:none;" d="M426 133L427 134L426 133z"/>
<path style="fill:#b0b0b0; stroke:none;" d="M390 134L391 135L390 134z"/>
<path style="fill:#5a5a5a; stroke:none;" d="M391 134L392 135L391 134z"/>
<path style="fill:#959595; stroke:none;" d="M427 134L428 135L427 134z"/>
<path style="fill:#c3c3c3; stroke:none;" d="M388 135L389 136L388 135z"/>
<path style="fill:#6a6a6a; stroke:none;" d="M389 135L390 136L389 135z"/>
<path style="fill:#444444; stroke:none;" d="M427 135L428 136L427 135z"/>
<path style="fill:#d1d1d1; stroke:none;" d="M386 136L387 137L386 136z"/>
<path style="fill:#808080; stroke:none;" d="M387 136L388 137L387 136z"/>
<path style="fill:#2e2e2e; stroke:none;" d="M388 136L389 137L388 136z"/>
<path style="fill:#878787; stroke:none;" d="M428 136L429 137L428 136z"/>
<path style="fill:#929292; stroke:none;" d="M385 137L386 138L385 137z"/>
<path style="fill:#4c4c4c; stroke:none;" d="M386 137L387 138L386 137z"/>
<path style="fill:#383838; stroke:none;" d="M428 137L429 138L428 137z"/>
<path style="fill:#c0c0c0; stroke:none;" d="M429 137L430 138L429 137z"/>
<path style="fill:#a2a2a2; stroke:none;" d="M383 138L384 139L383 138z"/>
<path style="fill:#5a5a5a; stroke:none;" d="M384 138L385 139L384 138z"/>
<path style="fill:#6e6e6e; stroke:none;" d="M429 138L430 139L429 138z"/>
<path style="fill:#bfbfbf; stroke:none;" d="M381 139L382 140L381 139z"/>
<path style="fill:#6c6c6c; stroke:none;" d="M382 139L383 140L382 139z"/>
<path style="fill:#adadad; stroke:none;" d="M430 139L431 140L430 139z"/>
<path style="fill:#848484; stroke:none;" d="M380 140L381 141L380 140z"/>
<path style="fill:#545454; stroke:none;" d="M430 140L431 141L430 140z"/>
<path style="fill:#9b9b9b; stroke:none;" d="M378 141L379 142L378 141z"/>
<path style="fill:#494949; stroke:none;" d="M379 141L380 142L379 141z"/>
<path style="fill:#919191; stroke:none;" d="M431 141L432 142L431 141z"/>
<path style="fill:#c6c6c6; stroke:none;" d="M376 142L377 143L376 142z"/>
<path style="fill:#5e5e5e; stroke:none;" d="M377 142L378 143L377 142z"/>
<path style="fill:#444444; stroke:none;" d="M431 142L432 143L431 142z"/>
<path style="fill:#c7c7c7; stroke:none;" d="M432 142L433 143L432 142z"/>
<path style="fill:#c8c8c8; stroke:none;" d="M374 143L375 144L374 143z"/>
<path style="fill:#6f6f6f; stroke:none;" d="M375 143L376 144L375 143z"/>
<path style="fill:#757575; stroke:none;" d="M432 143L433 144L432 143z"/>
<path style="fill:#868686; stroke:none;" d="M373 144L374 145L373 144z"/>
<path style="fill:#c5c5c5; stroke:none;" d="M433 144L434 145L433 144z"/>
<path style="fill:#929292; stroke:none;" d="M371 145L372 146L371 145z"/>
<path style="fill:#515151; stroke:none;" d="M372 145L373 146L372 145z"/>
<path style="fill:#646464; stroke:none;" d="M433 145L434 146L433 145z"/>
<path style="fill:#aeaeae; stroke:none;" d="M369 146L370 147L369 146z"/>
<path style="fill:#6e6e6e; stroke:none;" d="M370 146L371 147L370 146z"/>
<path style="fill:#afafaf; stroke:none;" d="M434 146L435 147L434 146z"/>
<path style="fill:#c8c8c8; stroke:none;" d="M367 147L368 148L367 147z"/>
<path style="fill:#7c7c7c; stroke:none;" d="M368 147L369 148L368 147z"/>
<path style="fill:#545454; stroke:none;" d="M434 147L435 148L434 147z"/>
<path style="fill:#959595; stroke:none;" d="M366 148L367 149L366 148z"/>
<path style="fill:#444444; stroke:none;" d="M367 148L368 149L367 148z"/>
<path style="fill:#929292; stroke:none;" d="M435 148L436 149L435 148z"/>
<path style="fill:#ababab; stroke:none;" d="M364 149L365 150L364 149z"/>
<path style="fill:#505050; stroke:none;" d="M365 149L366 150L365 149z"/>
<path style="fill:#cbcbcb; stroke:none;" d="M436 149L437 150L436 149z"/>
<path style="fill:#b6b6b6; stroke:none;" d="M362 150L363 151L362 150z"/>
<path style="fill:#6d6d6d; stroke:none;" d="M363 150L364 151L363 150z"/>
<path style="fill:#797979; stroke:none;" d="M436 150L437 151L436 150z"/>
<path style="fill:#7c7c7c; stroke:none;" d="M361 151L362 152L361 151z"/>
<path style="fill:#333333; stroke:none;" d="M362 151L363 152L362 151z"/>
<path style="fill:#bebebe; stroke:none;" d="M437 151L438 152L437 151z"/>
<path style="fill:#949494; stroke:none;" d="M359 152L360 153L359 152z"/>
<path style="fill:#414141; stroke:none;" d="M360 152L361 153L360 152z"/>
<path style="fill:#4e4e4e; stroke:none;" d="M437 152L438 153L437 152z"/>
<path style="fill:#b1b1b1; stroke:none;" d="M357 153L358 154L357 153z"/>
<path style="fill:#565656; stroke:none;" d="M358 153L359 154L358 153z"/>
<path style="fill:#999999; stroke:none;" d="M438 153L439 154L438 153z"/>
<path style="fill:#b9b9b9; stroke:none;" d="M355 154L356 155L355 154z"/>
<path style="fill:#5d5d5d; stroke:none;" d="M356 154L357 155L356 154z"/>
<path style="fill:#424242; stroke:none;" d="M438 154L439 155L438 154z"/>
<path style="fill:#cecece; stroke:none;" d="M439 154L440 155L439 154z"/>
<path style="fill:#cdcdcd; stroke:none;" d="M353 155L354 156L353 155z"/>
<path style="fill:#818181; stroke:none;" d="M354 155L355 156L354 155z"/>
<path style="fill:#808080; stroke:none;" d="M439 155L440 156L439 155z"/>
<path style="fill:#aaaaaa; stroke:none;" d="M351.667 156.333L351.667 156.667L352.333 156.667L352.333 156.333L351.667 156.333z"/>
<path style="fill:#bebebe; stroke:none;" d="M440 156L441 157L440 156z"/>
<path style="fill:#afafaf; stroke:none;" d="M350 157L351 158L350 157z"/>
<path style="fill:#5b5b5b; stroke:none;" d="M351 157L352 158L351 157z"/>
<path style="fill:#636363; stroke:none;" d="M440 157L441 158L440 157z"/>
<path style="fill:#c6c6c6; stroke:none;" d="M348 158L349 159L348 158z"/>
<path style="fill:#747474; stroke:none;" d="M349 158L350 159L349 158z"/>
<path style="fill:#a9a9a9; stroke:none;" d="M441 158L442 159L441 158z"/>
<path style="fill:#d0d0d0; stroke:none;" d="M346 159L347 160L346 159z"/>
<path style="fill:#7f7f7f; stroke:none;" d="M347 159L348 160L347 159z"/>
<path style="fill:#4b4b4b; stroke:none;" d="M441 159L442 160L441 159z"/>
<path style="fill:#999999; stroke:none;" d="M345 160L346 161L345 160z"/>
<path style="fill:#525252; stroke:none;" d="M346 160L347 161L346 160z"/>
<path style="fill:#8c8c8c; stroke:none;" d="M442 160L443 161L442 160z"/>
<path style="fill:#b2b2b2; stroke:none;" d="M343 161L344 162L343 161z"/>
<path style="fill:#535353; stroke:none;" d="M344 161L345 162L344 161z"/>
<path style="fill:#3a3a3a; stroke:none;" d="M442 161L443 162L442 161z"/>
<path style="fill:#cacaca; stroke:none;" d="M443 161L444 162L443 161z"/>
<path style="fill:#bebebe; stroke:none;" d="M341 162L342 163L341 162z"/>
<path style="fill:#7c7c7c; stroke:none;" d="M342 162L343 163L342 162z"/>
<path style="fill:#2e2e2e; stroke:none;" d="M343 162L344 163L343 162z"/>
<path style="fill:#797979; stroke:none;" d="M443 162L444 163L443 162z"/>
<path style="fill:#9c9c9c; stroke:none;" d="M340 163L341 164L340 163z"/>
<path style="fill:#363636; stroke:none;" d="M341 163L342 164L341 163z"/>
<path style="fill:#b5b5b5; stroke:none;" d="M444 163L445 164L444 163z"/>
<path style="fill:#494949; stroke:none;" d="M340 164L341 165L340 164z"/>
<path style="fill:#626262; stroke:none;" d="M444 164L445 165L444 164z"/>
<path style="fill:#777777; stroke:none;" d="M340 165L341 166L340 165z"/>
<path style="fill:#989898; stroke:none;" d="M445 165L446 166L445 165z"/>
<path style="fill:#626262; stroke:none;" d="M341 166L342 167L341 166z"/>
<path style="fill:#494949; stroke:none;" d="M445 166L446 167L445 166z"/>
<path style="fill:#999999; stroke:none;" d="M341 167L342 168L341 167z"/>
<path style="fill:#858585; stroke:none;" d="M446 167L447 168L446 167z"/>
<path style="fill:#696969; stroke:none;" d="M342 168L343 169L342 168z"/>
<path style="fill:#c6c6c6; stroke:none;" d="M447 168L448 169L447 168z"/>
<path style="fill:#a3a3a3; stroke:none;" d="M342 169L343 170L342 169z"/>
<path style="fill:#303030; stroke:none;" d="M343 169L344 170L343 169z"/>
<path style="fill:#6c6c6c; stroke:none;" d="M447 169L448 170L447 169z"/>
<path style="fill:#7b7b7b; stroke:none;" d="M343 170L344 171L343 170z"/>
<path style="fill:#b1b1b1; stroke:none;" d="M448 170L449 171L448 170z"/>
<path style="fill:#bdbdbd; stroke:none;" d="M343 171L344 172L343 171z"/>
<path style="fill:#373737; stroke:none;" d="M344 171L345 172L344 171z"/>
<path style="fill:#575757; stroke:none;" d="M448 171L449 172L448 171z"/>
<path style="fill:#8a8a8a; stroke:none;" d="M344 172L345 173L344 172z"/>
<path style="fill:#949494; stroke:none;" d="M449 172L450 173L449 172z"/>
<path style="fill:#444444; stroke:none;" d="M345 173L346 174L345 173z"/>
<path style="fill:#3f3f3f; stroke:none;" d="M449 173L450 174L449 173z"/>
<path style="fill:#cacaca; stroke:none;" d="M450 173L451 174L450 173z"/>
<path style="fill:#a0a0a0; stroke:none;" d="M345 174L346 175L345 174z"/>
<path style="fill:#585858; stroke:none;" d="M346.333 174.667L346.333 175L346.667 175.333L346.667 174.667L346.333 174.667z"/>
<path style="fill:#767676; stroke:none;" d="M450 174L451 175L450 174z"/>
<path style="fill:#323232; stroke:none;" d="M450 175L451 176L450 175z"/>
<path style="fill:#bababa; stroke:none;" d="M451 175L452 176L451 175z"/>
<path style="fill:#b9b9b9; stroke:none;" d="M346 176L347 177L346 176z"/>
<path style="fill:#646464; stroke:none;" d="M451 176L452 177L451 176z"/>
<path style="fill:#818181; stroke:none;" d="M347 177L348 178L347 177z"/>
<path style="fill:#9b9b9b; stroke:none;" d="M452 177L453 178L452 177z"/>
<path style="fill:#363636; stroke:none;" d="M348 178L349 179L348 178z"/>
<path style="fill:#474747; stroke:none;" d="M452 178L453 179L452 178z"/>
<path style="fill:#9b9b9b; stroke:none;" d="M348 179L349 180L348 179z"/>
<path style="fill:#8e8e8e; stroke:none;" d="M453 179L454 180L453 179z"/>
<path style="fill:#494949; stroke:none;" d="M349 180L350 181L349 180z"/>
<path style="fill:#343434; stroke:none;" d="M453 180L454 181L453 180z"/>
<path style="fill:#bdbdbd; stroke:none;" d="M454 180L455 181L454 180z"/>
<path style="fill:#b3b3b3; stroke:none;" d="M349 181L350 182L349 181z"/>
<path style="fill:#666666; stroke:none;" d="M454 181L455 182L454 181z"/>
<path style="fill:#676767; stroke:none;" d="M350 182L351 183L350 182z"/>
<path style="fill:#a9a9a9; stroke:none;" d="M455 182L456 183L455 182z"/>
<path style="fill:#bababa; stroke:none;" d="M350 183L351 184L350 183z"/>
<path style="fill:#2e2e2e; stroke:none;" d="M351 183L352 184L351 183z"/>
<path style="fill:#474747; stroke:none;" d="M455 183L456 184L455 183z"/>
<path style="fill:#8d8d8d; stroke:none;" d="M351 184L352 185L351 184z"/>
<path style="fill:#919191; stroke:none;" d="M456 184L457 185L456 184z"/>
<path style="fill:#b9b9b9; stroke:none;" d="M351 185L352 186L351 185z"/>
<path style="fill:#464646; stroke:none;" d="M352 185L353 186L352 185z"/>
<path style="fill:#494949; stroke:none;" d="M456 185L457 186L456 185z"/>
<path style="fill:#d0d0d0; stroke:none;" d="M457 185L458 186L457 185z"/>
<path style="fill:#a3a3a3; stroke:none;" d="M352 186L353 187L352 186z"/>
<path style="fill:#808080; stroke:none;" d="M457 186L458 187L457 186z"/>
<path style="fill:#4c4c4c; stroke:none;" d="M353 187L354 188L353 187z"/>
<path style="fill:#c1c1c1; stroke:none;" d="M458 187L459 188L458 187z"/>
<path style="fill:#adadad; stroke:none;" d="M353 188L354 189L353 188z"/>
<path style="fill:#6c6c6c; stroke:none;" d="M458 188L459 189L458 188z"/>
<path style="fill:#5a5a5a; stroke:none;" d="M354 189L355 190L354 189z"/>
<path style="fill:#a0a0a0; stroke:none;" d="M459 189L460 190L459 189z"/>
<path style="fill:#b5b5b5; stroke:none;" d="M354 190L355 191L354 190z"/>
<path style="fill:#3a3a3a; stroke:none;" d="M355 190L356 191L355 190z"/>
<path style="fill:#4b4b4b; stroke:none;" d="M459 190L460 191L459 190z"/>
<path style="fill:#c7c7c7; stroke:none;" d="M460 190L461 191L460 190z"/>
<path style="fill:#6c6c6c; stroke:none;" d="M355 191L356 192L355 191z"/>
<path style="fill:#8d8d8d; stroke:none;" d="M460 191L461 192L460 191z"/>
<path style="fill:#e6e6e6; stroke:none;" d="M355.333 192.667L355.333 193.333L355.667 193.333L355.667 193L355.333 192.667z"/>
<path style="fill:#393939; stroke:none;" d="M356 192L357 193L356 192z"/>
<path style="fill:#c6c6c6; stroke:none;" d="M461 192L462 193L461 192z"/>
<path style="fill:#8f8f8f; stroke:none;" d="M356 193L357 194L356 193z"/>
<path style="fill:#717171; stroke:none;" d="M461 193L462 194L461 193z"/>
<path style="fill:#565656; stroke:none;" d="M357 194L358 195L357 194z"/>
<path style="fill:#b6b6b6; stroke:none;" d="M462 194L463 195L462 194z"/>
<path style="fill:#a9a9a9; stroke:none;" d="M357 195L358 196L357 195z"/>
<path style="fill:#5d5d5d; stroke:none;" d="M462 195L463 196L462 195z"/>
<path style="fill:#686868; stroke:none;" d="M358 196L359 197L358 196z"/>
<path style="fill:#9d9d9d; stroke:none;" d="M463 196L464 197L463 196z"/>
<path style="fill:#bbbbbb; stroke:none;" d="M358 197L359 198L358 197z"/>
<path style="fill:#3d3d3d; stroke:none;" d="M463 197L464 198L463 197z"/>
<path style="fill:#7a7a7a; stroke:none;" d="M359 198L360 199L359 198z"/>
<path style="fill:#808080; stroke:none;" d="M464 198L465 199L464 198z"/>
<path style="fill:#393939; stroke:none;" d="M360 199L361 200L360 199z"/>
<path style="fill:#a0a0a0; stroke:none;" d="M360 200L361 201L360 200z"/>
<path style="fill:#585858; stroke:none;" d="M465 200L466 201L465 200z"/>
<path style="fill:#a8a8a8; stroke:none;" d="M326 201L326.722 201.722L327.25 201.75L329 202L328.278 201.278L327.75 201.25L326 201z"/>
<path style="fill:#505050; stroke:none;" d="M361 201L362 202L361 201z"/>
<path style="fill:#999999; stroke:none;" d="M466 201L467 202L466 201z"/>
<path style="fill:#979797; stroke:none;" d="M325 202L326 203L325 202z"/>
<path style="fill:#212121; stroke:none;" d="M326 202L326.722 202.722L327.25 202.75L329 203L328.278 202.278L327.75 202.25L326 202z"/>
<path style="fill:#a8a8a8; stroke:none;" d="M361 202L362 203L361 202z"/>
<path style="fill:#bbbbbb; stroke:none;" d="M323 203L324 204L323 203z"/>
<path style="fill:#5c5c5c; stroke:none;" d="M324 203L325 204L324 203z"/>
<path style="fill:#000000; stroke:none;" d="M290 226L287.944 226.111L286.944 226.306L285 227.083L283 228.194L282 228.806L281 229.389L279 230.611L278 231.194L276 232.389L275 233L273 234.167L272 234.75L271 235.25L269 236.389L267 237.611L265 238.806L264 239.389L262 240.611L260 241.806L259 242.389L257 243.611L256 244.194L255 244.806L253.056 245.944L252.5 246.306L251 247L251.111 248.5L251.639 250.056L252.639 252L253.167 253L253.75 254L254.778 256L255.25 257L255.833 258L256.389 259L257.611 261L258.806 263L259.389 264L260.611 266L261.194 267L262.389 269L263.611 271L264.75 273L265.25 274L266.389 276L267.611 278L268.75 280L269.25 281L270.389 283L271.611 285L272.806 287L273.389 288L274.611 290L275.194 291L276.389 293L277.611 295L278.75 297L279.25 298L280.389 300L281.611 302L282.75 304L283.25 305L284.389 307L285.611 309L286.806 311L287.389 312L288.611 314L289.194 315L290.389 317L291.611 319L292.75 321L293.222 322L293.778 323L294.25 324L295.389 326L296.028 327L296.667 328L297.972 330L298.611 331L299.75 333L300.25 334L301.389 336L302.611 338L303.194 339L303.806 340L304.944 342L306 344L306.528 345L307.083 346L307.694 347L308.972 349L309.583 349.944L310.111 350.944L310.472 351.5L311 353L374 353L395 353L402 353L404 353L405 353L407 353.083L409 353.389L410 353.611L412 353.917L412.944 353.972L413.944 354L416 354L415.667 352.5L415.361 351.944L414.889 350.944L414.306 350L413.028 348L412.389 347L411.806 346L410.611 344L409.389 342L408.194 340L407.611 339L406.389 337L405.833 336L405.25 335L404.778 334L404.222 333L403.778 332L402.75 330L402.167 329L401.611 328L400.389 326L399.194 324L398.611 323L397.389 321L396.194 319L395.611 318L394.389 316L393.25 314L392.75 313L392.167 312L391 310L389.806 308.083L388.639 306.389L388.056 305.611L387.056 303.917L386.639 302.972L385.722 301L384.611 299L383.389 297L382.833 296L382.25 295L381.778 294L381.222 293L380.75 292L379.611 290L378.972 289L377.667 287L377.028 286L376.389 285L375.25 283L374.75 282L373.611 280L372.389 278L371.194 276L370.611 275L369.389 273L368.833 272L368.25 271L367.222 269L366.778 268L366.222 267L365.75 266L365.167 265L364.611 264L363.333 262L362.028 260L361.389 259L360.806 258L359.611 256L358.389 254L357.833 253L357.25 252L356.222 250L355.75 249L354.611 247L353.389 245L352.806 244L351.611 242L350.389 240L349.806 239L348.611 237L347.389 235L346.25 233L345.75 232L344.611 230L343.389 228L342.25 226L341.75 225L341.167 224L340.611 223L339.389 221.028L338.806 220.083L337.583 218.5L336.417 217.528L335 217L334.972 215.5L334.75 213.944L334.5 213L333.583 211L332.333 209L331.694 208L331.083 207L330.056 205.056L329.833 204.5L329 203L326.944 203.111L325.944 203.306L324 204.083L322 205.167L321 205.75L320 206.25L318 207.389L316 208.611L314 209.806L313 210.389L311 211.611L310 212.194L308 213.389L306 214.611L304 215.75L303 216.25L301 217.389L299 218.667L297 219.972L296 220.611L294.028 221.75L293.083 222.25L291.5 223.417L290.528 224.583L290 226z"/>
<path style="fill:#838383; stroke:none;" d="M329 203L330 204L329 203z"/>
<path style="fill:#6b6b6b; stroke:none;" d="M362 203L363 204L362 203z"/>
<path style="fill:#8c8c8c; stroke:none;" d="M467 203L468 204L467 203z"/>
<path style="fill:#cacaca; stroke:none;" d="M321 204L322 205L321 204z"/>
<path style="fill:#777777; stroke:none;" d="M322 204L323 205L322 204z"/>
<path style="fill:#2e2e2e; stroke:none;" d="M323 204L324 205L323 204z"/>
<path style="fill:#b3b3b3; stroke:none;" d="M330 204L331 205L330 204z"/>
<path style="fill:#c2c2c2; stroke:none;" d="M362 204L363 205L362 204z"/>
<path style="fill:#333333; stroke:none;" d="M467 204L468 205L467 204z"/>
<path style="fill:#c2c2c2; stroke:none;" d="M468 204L469 205L468 204z"/>
<path style="fill:#d3d3d3; stroke:none;" d="M319 205L320 206L319 205z"/>
<path style="fill:#9c9c9c; stroke:none;" d="M320 205L321 206L320 205z"/>
<path style="fill:#4a4a4a; stroke:none;" d="M321 205L322 206L321 205z"/>
<path style="fill:#727272; stroke:none;" d="M330 205L331 206L330 205z"/>
<path style="fill:#7c7c7c; stroke:none;" d="M363 205L364 206L363 205z"/>
<path style="fill:#6e6e6e; stroke:none;" d="M468 205L469 206L468 205z"/>
<path style="fill:#b5b5b5; stroke:none;" d="M318 206L319 207L318 206z"/>
<path style="fill:#565656; stroke:none;" d="M319 206L320 207L319 206z"/>
<path style="fill:#2b2b2b; stroke:none;" d="M330 206L331 207L330 206z"/>
<path style="fill:#9a9a9a; stroke:none;" d="M331 206L332 207L331 206z"/>
<path style="fill:#474747; stroke:none;" d="M364 206L365 207L364 206z"/>
<path style="fill:#b1b1b1; stroke:none;" d="M469 206L470 207L469 206z"/>
<path style="fill:#cecece; stroke:none;" d="M316 207L317 208L316 207z"/>
<path style="fill:#767676; stroke:none;" d="M317 207L318 208L317 207z"/>
<path style="fill:#5a5a5a; stroke:none;" d="M331 207L332 208L331 207z"/>
<path style="fill:#8b8b8b; stroke:none;" d="M364 207L365 208L364 207z"/>
<path style="fill:#5b5b5b; stroke:none;" d="M469 207L470 208L469 207z"/>
<path style="fill:#969696; stroke:none;" d="M315 208L316 209L315 208z"/>
<path style="fill:#3a3a3a; stroke:none;" d="M316 208L317 209L316 208z"/>
<path style="fill:#9a9a9a; stroke:none;" d="M332 208L333 209L332 208z"/>
<path style="fill:#565656; stroke:none;" d="M365 208L366 209L365 208z"/>
<path style="fill:#8b8b8b; stroke:none;" d="M470 208L471 209L470 208z"/>
<path style="fill:#a0a0a0; stroke:none;" d="M313 209L314 210L313 209z"/>
<path style="fill:#5e5e5e; stroke:none;" d="M314 209L315 210L314 209z"/>
<path style="fill:#404040; stroke:none;" d="M332 209L333 210L332 209z"/>
<path style="fill:#c8c8c8; stroke:none;" d="M333 209L334 210L333 209z"/>
<path style="fill:#a9a9a9; stroke:none;" d="M365 209L366 210L365 209z"/>
<path style="fill:#535353; stroke:none;" d="M470 209L471 210L470 209z"/>
<path style="fill:#bfbfbf; stroke:none;" d="M311 210L312 211L311 210z"/>
<path style="fill:#757575; stroke:none;" d="M312 210L313 211L312 210z"/>
<path style="fill:#797979; stroke:none;" d="M333 210L334 211L333 210z"/>
<path style="fill:#666666; stroke:none;" d="M366 210L367 211L366 210z"/>
<path style="fill:#7e7e7e; stroke:none;" d="M471 210L472 211L471 210z"/>
<path style="fill:#919191; stroke:none;" d="M310 211L311 212L310 211z"/>
<path style="fill:#404040; stroke:none;" d="M311 211L312 212L311 211z"/>
<path style="fill:#b7b7b7; stroke:none;" d="M334 211L335 212L334 211z"/>
<path style="fill:#b9b9b9; stroke:none;" d="M366 211L367 212L366 211z"/>
<path style="fill:#2f2f2f; stroke:none;" d="M367 211L368 212L367 211z"/>
<path style="fill:#333333; stroke:none;" d="M471 211L472 212L471 211z"/>
<path style="fill:#bdbdbd; stroke:none;" d="M472 211L473 212L472 211z"/>
<path style="fill:#a6a6a6; stroke:none;" d="M308 212L309 213L308 212z"/>
<path style="fill:#505050; stroke:none;" d="M309 212L310 213L309 212z"/>
<path style="fill:#5f5f5f; stroke:none;" d="M334 212L335 213L334 212z"/>
<path style="fill:#7a7a7a; stroke:none;" d="M367 212L368 213L367 212z"/>
<path style="fill:#676767; stroke:none;" d="M472 212L473 213L472 212z"/>
<path style="fill:#c4c4c4; stroke:none;" d="M306 213L307 214L306 213z"/>
<path style="fill:#757575; stroke:none;" d="M307 213L308 214L307 213z"/>
<path style="fill:#a3a3a3; stroke:none;" d="M335 213L336 214L335 213z"/>
<path style="fill:#cacaca; stroke:none;" d="M367 213L368 214L367 213z"/>
<path style="fill:#3d3d3d; stroke:none;" d="M368 213L369 214L368 213z"/>
<path style="fill:#b2b2b2; stroke:none;" d="M473 213L474 214L473 213z"/>
<path style="fill:#939393; stroke:none;" d="M305 214L306 215L305 214z"/>
<path style="fill:#3e3e3e; stroke:none;" d="M306 214L307 215L306 214z"/>
<path style="fill:#4b4b4b; stroke:none;" d="M335 214L336 215L335 214z"/>
<path style="fill:#d0d0d0; stroke:none;" d="M336 214L337 215L336 214z"/>
<path style="fill:#939393; stroke:none;" d="M368 214L369 215L368 214z"/>
<path style="fill:#555555; stroke:none;" d="M473 214L474 215L473 214z"/>
<path style="fill:#a9a9a9; stroke:none;" d="M474.333 214.667L474.333 215.333L474.667 215.333L474.667 214.667L474.333 214.667z"/>
<path style="fill:#9e9e9e; stroke:none;" d="M303 215L304 216L303 215z"/>
<path style="fill:#484848; stroke:none;" d="M304 215L305 216L304 215z"/>
<path style="fill:#131313; stroke:none;" d="M335 215L335.667 216.75L335.861 217.278L337 218L336.333 216.25L336.139 215.722L335 215z"/>
<path style="fill:#909090; stroke:none;" d="M336 215L337 216L336 215z"/>
<path style="fill:#c7c7c7; stroke:none;" d="M301 216L302 217L301 216z"/>
<path style="fill:#616161; stroke:none;" d="M302 216L303 217L302 216z"/>
<path style="fill:#c4c4c4; stroke:none;" d="M337 216L338 217L337 216z"/>
<path style="fill:#e3e3e3; stroke:none;" d="M369.333 216.667L369.333 217L369.667 217.333L369.667 217L369.333 216.667z"/>
<path style="fill:#3b3b3b; stroke:none;" d="M474 216L475 217L474 216z"/>
<path style="fill:#cbcbcb; stroke:none;" d="M475 216L476 217L475 216z"/>
<path style="fill:#7b7b7b; stroke:none;" d="M300 217L301 218L300 217z"/>
<path style="fill:#6d6d6d; stroke:none;" d="M337 217L338 218L337 217M370 217L371 218L370 217z"/>
<path style="fill:#767676; stroke:none;" d="M475 217L476 218L475 217z"/>
<path style="fill:#a1a1a1; stroke:none;" d="M298 218L299 219L298 218z"/>
<path style="fill:#454545; stroke:none;" d="M299 218L300 219L299 218z"/>
<path style="fill:#b5b5b5; stroke:none;" d="M338 218L339 219L338 218z"/>
<path style="fill:#c4c4c4; stroke:none;" d="M370 218L371 219L370 218z"/>
<path style="fill:#c2c2c2; stroke:none;" d="M476 218L477 219L476 218z"/>
<path style="fill:#c0c0c0; stroke:none;" d="M296 219L297 220L296 219z"/>
<path style="fill:#5f5f5f; stroke:none;" d="M297 219L298 220L297 219z"/>
<path style="fill:#595959; stroke:none;" d="M338 219L339 220L338 219z"/>
<path style="fill:#7c7c7c; stroke:none;" d="M371 219L372 220L371 219z"/>
<path style="fill:#595959; stroke:none;" d="M476 219L477 220L476 219z"/>
<path style="fill:#7e7e7e; stroke:none;" d="M295 220L296 221L295 220z"/>
<path style="fill:#2c2c2c; stroke:none;" d="M296 220L297 221L296 220z"/>
<path style="fill:#999999; stroke:none;" d="M339 220L340 221L339 220z"/>
<path style="fill:#444444; stroke:none;" d="M372 220L373 221L372 220z"/>
<path style="fill:#a7a7a7; stroke:none;" d="M477 220L478 221L477 220z"/>
<path style="fill:#a5a5a5; stroke:none;" d="M293 221L294 222L293 221z"/>
<path style="fill:#4f4f4f; stroke:none;" d="M294 221L295 222L294 221z"/>
<path style="fill:#3d3d3d; stroke:none;" d="M339 221L340 222L339 221z"/>
<path style="fill:#959595; stroke:none;" d="M372 221L373 222L372 221z"/>
<path style="fill:#3e3e3e; stroke:none;" d="M477 221L478 222L477 221z"/>
<path style="fill:#adadad; stroke:none;" d="M291 222L292 223L291 222z"/>
<path style="fill:#4f4f4f; stroke:none;" d="M292 222L293 223L292 222z"/>
<path style="fill:#7d7d7d; stroke:none;" d="M340 222L341 223L340 222z"/>
<path style="fill:#545454; stroke:none;" d="M373 222L374 223L373 222z"/>
<path style="fill:#1c1c1c; stroke:none;" d="M374.333 222.667L374.333 223L374.667 223.333L374.667 222.667L374.333 222.667z"/>
<path style="fill:#888888; stroke:none;" d="M478 222L479 223L478 222z"/>
<path style="fill:#d1d1d1; stroke:none;" d="M289 223L290 224L289 223z"/>
<path style="fill:#808080; stroke:none;" d="M290 223L291 224L290 223z"/>
<path style="fill:#a8a8a8; stroke:none;" d="M373 223L374 224L373 223z"/>
<path style="fill:#333333; stroke:none;" d="M478 223L479 224L478 223z"/>
<path style="fill:#c3c3c3; stroke:none;" d="M479 223L480 224L479 223z"/>
<path style="fill:#989898; stroke:none;" d="M288 224L289 225L288 224z"/>
<path style="fill:#121212; stroke:none;" d="M288 226L289.75 225.333L290.278 225.139L291 224L289.25 224.667L288.722 224.861L288 226z"/>
<path style="fill:#5e5e5e; stroke:none;" d="M341 224L342 225L341 224z"/>
<path style="fill:#7b7b7b; stroke:none;" d="M374 224L375 225L374 224z"/>
<path style="fill:#3a3a3a; stroke:none;" d="M479.333 224.667L479.333 225.333L479.667 225.333L479.667 224.667L479.333 224.667z"/>
<path style="fill:#b3b3b3; stroke:none;" d="M286 225L287 226L286 225z"/>
<path style="fill:#595959; stroke:none;" d="M287 225L288 226L287 225z"/>
<path style="fill:#a2a2a2; stroke:none;" d="M342 225L343 226L342 225z"/>
<path style="fill:#adadad; stroke:none;" d="M374 225L375 226L374 225z"/>
<path style="fill:#323232; stroke:none;" d="M375 225L376 226L375 225z"/>
<path style="fill:#a7a7a7; stroke:none;" d="M480 225L481 226L480 225z"/>
<path style="fill:#c4c4c4; stroke:none;" d="M284 226L285 227L284 226z"/>
<path style="fill:#6d6d6d; stroke:none;" d="M285 226L286 227L285 226z"/>
<path style="fill:#474747; stroke:none;" d="M342 226L343 227L342 226z"/>
<path style="fill:#848484; stroke:none;" d="M375 226L376 227L375 226z"/>
<path style="fill:#4a4a4a; stroke:none;" d="M480 226L481 227L480 226z"/>
<path style="fill:#8e8e8e; stroke:none;" d="M283 227L284 228L283 227z"/>
<path style="fill:#3c3c3c; stroke:none;" d="M284 227L285 228L284 227z"/>
<path style="fill:#959595; stroke:none;" d="M343 227L344 228L343 227z"/>
<path style="fill:#cecece; stroke:none;" d="M375 227L376 228L375 227z"/>
<path style="fill:#414141; stroke:none;" d="M376 227L377 228L376 227z"/>
<path style="fill:#929292; stroke:none;" d="M481 227L482 228L481 227z"/>
<path style="fill:#a3a3a3; stroke:none;" d="M281 228L282 229L281 228z"/>
<path style="fill:#555555; stroke:none;" d="M282 228L283 229L282 228z"/>
<path style="fill:#393939; stroke:none;" d="M343 228L344 229L343 228z"/>
<path style="fill:#cacaca; stroke:none;" d="M344 228L345 229L344 228z"/>
<path style="fill:#949494; stroke:none;" d="M376 228L377 229L376 228z"/>
<path style="fill:#3d3d3d; stroke:none;" d="M481 228L482 229L481 228z"/>
<path style="fill:#cacaca; stroke:none;" d="M482 228L483 229L482 228z"/>
<path style="fill:#b9b9b9; stroke:none;" d="M279 229L280 230L279 229z"/>
<path style="fill:#7e7e7e; stroke:none;" d="M280 229L281 230L280 229z"/>
<path style="fill:#747474; stroke:none;" d="M344 229L345 230L344 229z"/>
<path style="fill:#4d4d4d; stroke:none;" d="M377 229L378 230L377 229z"/>
<path style="fill:#838383; stroke:none;" d="M482 229L483 230L482 229z"/>
<path style="fill:#959595; stroke:none;" d="M278 230L279 231L278 230z"/>
<path style="fill:#3c3c3c; stroke:none;" d="M279 230L280 231L279 230z"/>
<path style="fill:#aeaeae; stroke:none;" d="M345 230L346 231L345 230z"/>
<path style="fill:#a7a7a7; stroke:none;" d="M377 230L378 231L377 230z"/>
<path style="fill:#5b5b5b; stroke:none;" d="M378.333 230.667L378.333 231L378.667 231.333L378.667 231L378.333 230.667z"/>
<path style="fill:#303030; stroke:none;" d="M482 230L483 231L482 230z"/>
<path style="fill:#acacac; stroke:none;" d="M483 230L484 231L483 230z"/>
<path style="fill:#aeaeae; stroke:none;" d="M276 231L277 232L276 231z"/>
<path style="fill:#575757; stroke:none;" d="M277 231L278 232L277 231z"/>
<path style="fill:#5f5f5f; stroke:none;" d="M345 231L346 232L345 231z"/>
<path style="fill:#787878; stroke:none;" d="M483 231L484 232L483 231z"/>
<path style="fill:#b6b6b6; stroke:none;" d="M274 232L275 233L274 232z"/>
<path style="fill:#5f5f5f; stroke:none;" d="M275 232L276 233L275 232z"/>
<path style="fill:#aeaeae; stroke:none;" d="M346 232L347 233L346 232z"/>
<path style="fill:#e2e2e2; stroke:none;" d="M378.333 232.667L378.333 233.333L378.667 233.333L378.667 232.667L378.333 232.667z"/>
<path style="fill:#a1a1a1; stroke:none;" d="M484 232L485 233L484 232z"/>
<path style="fill:#797979; stroke:none;" d="M273 233L274 234L273 233z"/>
<path style="fill:#464646; stroke:none;" d="M274 233L275 234L274 233z"/>
<path style="fill:#505050; stroke:none;" d="M346 233L347 234L346 233z"/>
<path style="fill:#8a8a8a; stroke:none;" d="M379 233L380 234L379 233z"/>
<path style="fill:#4d4d4d; stroke:none;" d="M484 233L485 234L484 233z"/>
<path style="fill:#999999; stroke:none;" d="M271 234L272 235L271 234z"/>
<path style="fill:#4d4d4d; stroke:none;" d="M272 234L273 235L272 234z"/>
<path style="fill:#8a8a8a; stroke:none;" d="M347 234L348 235L347 234z"/>
<path style="fill:#434343; stroke:none;" d="M380 234L381 235L380 234z"/>
<path style="fill:#8e8e8e; stroke:none;" d="M485 234L486 235L485 234z"/>
<path style="fill:#bebebe; stroke:none;" d="M269 235L270 236L269 235z"/>
<path style="fill:#656565; stroke:none;" d="M270 235L271 236L270 235z"/>
<path style="fill:#363636; stroke:none;" d="M347 235L348 236L347 235z"/>
<path style="fill:#c9c9c9; stroke:none;" d="M348 235L349 236L348 235z"/>
<path style="fill:#939393; stroke:none;" d="M380 235L381 236L380 235z"/>
<path style="fill:#3a3a3a; stroke:none;" d="M485 235L486 236L485 235z"/>
<path style="fill:#c7c7c7; stroke:none;" d="M486 235L487 236L486 235z"/>
<path style="fill:#7f7f7f; stroke:none;" d="M268 236L269 237L268 236z"/>
<path style="fill:#686868; stroke:none;" d="M348 236L349 237L348 236z"/>
<path style="fill:#595959; stroke:none;" d="M381 236L382 237L381 236z"/>
<path style="fill:#707070; stroke:none;" d="M486 236L487 237L486 236z"/>
<path style="fill:#9b9b9b; stroke:none;" d="M266 237L267 238L266 237z"/>
<path style="fill:#404040; stroke:none;" d="M267 237L268 238L267 237z"/>
<path style="fill:#bababa; stroke:none;" d="M349 237L350 238L349 237z"/>
<path style="fill:#aeaeae; stroke:none;" d="M381 237L382 238L381 237z"/>
<path style="fill:#bfbfbf; stroke:none;" d="M487 237L488 238L487 237z"/>
<path style="fill:#c8c8c8; stroke:none;" d="M264 238L265 239L264 238z"/>
<path style="fill:#616161; stroke:none;" d="M265 238L266 239L265 238z"/>
<path style="fill:#5e5e5e; stroke:none;" d="M349 238L350 239L349 238z"/>
<path style="fill:#676767; stroke:none;" d="M382 238L383 239L382 238z"/>
<path style="fill:#656565; stroke:none;" d="M487 238L488 239L487 238z"/>
<path style="fill:#cfcfcf; stroke:none;" d="M262 239L263 240L262 239z"/>
<path style="fill:#737373; stroke:none;" d="M263 239L264 240L263 239z"/>
<path style="fill:#949494; stroke:none;" d="M350 239L351 240L350 239z"/>
<path style="fill:#c7c7c7; stroke:none;" d="M382 239L383 240L382 239z"/>
<path style="fill:#a1a1a1; stroke:none;" d="M488 239L489 240L488 239z"/>
<path style="fill:#969696; stroke:none;" d="M261 240L262 241L261 240z"/>
<path style="fill:#3a3a3a; stroke:none;" d="M262 240L263 241L262 240M350 240L351 241L350 240z"/>
<path style="fill:#bbbbbb; stroke:none;" d="M383.333 240.667L383.333 241.333L383.667 241.333L383.667 241L383.333 240.667z"/>
<path style="fill:#bababa; stroke:none;" d="M259 241L260 242L259 241z"/>
<path style="fill:#656565; stroke:none;" d="M260 241L261 242L260 241z"/>
<path style="fill:#7a7a7a; stroke:none;" d="M351 241L352 242L351 241z"/>
<path style="fill:#474747; stroke:none;" d="M384 241L385 242L384 241z"/>
<path style="fill:#848484; stroke:none;" d="M489 241L490 242L489 241z"/>
<path style="fill:#cdcdcd; stroke:none;" d="M257 242L258 243L257 242z"/>
<path style="fill:#797979; stroke:none;" d="M258 242L259 243L258 242z"/>
<path style="fill:#c4c4c4; stroke:none;" d="M352 242L353 243L352 242z"/>
<path style="fill:#a2a2a2; stroke:none;" d="M384 242L385 243L384 242z"/>
<path style="fill:#bbbbbb; stroke:none;" d="M490 242L491 243L490 242z"/>
<path style="fill:#909090; stroke:none;" d="M256 243L257 244L256 243z"/>
<path style="fill:#3d3d3d; stroke:none;" d="M257 243L258 244L257 243z"/>
<path style="fill:#646464; stroke:none;" d="M352 243L353 244L352 243z"/>
<path style="fill:#545454; stroke:none;" d="M385 243L386 244L385 243z"/>
<path style="fill:#5e5e5e; stroke:none;" d="M490 243L491 244L490 243z"/>
<path style="fill:#b1b1b1; stroke:none;" d="M254 244L255 245L254 244z"/>
<path style="fill:#5a5a5a; stroke:none;" d="M255 244L256 245L255 244z"/>
<path style="fill:#a4a4a4; stroke:none;" d="M353 244L354 245L353 244z"/>
<path style="fill:#aaaaaa; stroke:none;" d="M385 244L386 245L385 244z"/>
<path style="fill:#2b2b2b; stroke:none;" d="M386 244L387 245L386 244z"/>
<path style="fill:#adadad; stroke:none;" d="M491 244L492 245L491 244z"/>
<path style="fill:#757575; stroke:none;" d="M253 245L254 246L253 245z"/>
<path style="fill:#4a4a4a; stroke:none;" d="M353 245L354 246L353 245z"/>
<path style="fill:#6e6e6e; stroke:none;" d="M386 245L387 246L386 245z"/>
<path style="fill:#535353; stroke:none;" d="M491 245L492 246L491 245z"/>
<path style="fill:#999999; stroke:none;" d="M251 246L252 247L251 246z"/>
<path style="fill:#3b3b3b; stroke:none;" d="M252 246L253 247L252 246z"/>
<path style="fill:#898989; stroke:none;" d="M354 246L355 247L354 246z"/>
<path style="fill:#bdbdbd; stroke:none;" d="M386 246L387 247L386 246z"/>
<path style="fill:#3c3c3c; stroke:none;" d="M387 246L388 247L387 246z"/>
<path style="fill:#8a8a8a; stroke:none;" d="M492 246L493 247L492 246z"/>
<path style="fill:#3e3e3e; stroke:none;" d="M250.333 247.667L250.333 248L250.667 248.333L250.667 248L250.333 247.667z"/>
<path style="fill:#777777; stroke:none;" d="M387 247L388 248L387 247z"/>
<path style="fill:#383838; stroke:none;" d="M492 247L493 248L492 247z"/>
<path style="fill:#6a6a6a; stroke:none;" d="M355 248L356 249L355 248z"/>
<path style="fill:#444444; stroke:none;" d="M388 248L389 249L388 248z"/>
<path style="fill:#707070; stroke:none;" d="M493 248L494 249L493 248z"/>
<path style="fill:#a4a4a4; stroke:none;" d="M250 249L251 250L250 249z"/>
<path style="fill:#b0b0b0; stroke:none;" d="M356 249L357 250L356 249z"/>
<path style="fill:#9b9b9b; stroke:none;" d="M388 249L389 250L388 249z"/>
<path style="fill:#343434; stroke:none;" d="M493 249L494 250L493 249z"/>
<path style="fill:#b2b2b2; stroke:none;" d="M494 249L495 250L494 249z"/>
<path style="fill:#636363; stroke:none;" d="M251 250L252 251L251 250z"/>
<path style="fill:#575757; stroke:none;" d="M356 250L357 251L356 250z"/>
<path style="fill:#f5f5f5; stroke:none;" d="M388 250L388 253L387 251L386.306 251.778L386.389 253.083L386.75 253.917L387.333 254.639L388.056 255.222L389.5 255.611L391 255L390.5 253.5L389.778 252.056L389.222 251.306L389 250.778L388 250z"/>
<path style="fill:#575757; stroke:none;" d="M389 250L390 251L389 250z"/>
<path style="fill:#5f5f5f; stroke:none;" d="M494 250L495 251L494 250z"/>
<path style="fill:#bababa; stroke:none;" d="M251 251L252 252L251 251z"/>
<path style="fill:#303030; stroke:none;" d="M252 251L253 252L252 251z"/>
<path style="fill:#9e9e9e; stroke:none;" d="M357 251L358 252L357 251z"/>
<path style="fill:#aaaaaa; stroke:none;" d="M389 251L390 252L389 251z"/>
<path style="fill:#9a9a9a; stroke:none;" d="M495 251L496 252L495 251z"/>
<path style="fill:#878787; stroke:none;" d="M252 252L253 253L252 252z"/>
<path style="fill:#434343; stroke:none;" d="M357 252L358 253L357 252z"/>
<path style="fill:#717171; stroke:none;" d="M390 252L391 253L390 252z"/>
<path style="fill:#454545; stroke:none;" d="M495 252L496 253L495 252z"/>
<path style="fill:#414141; stroke:none;" d="M253 253L254 254L253 253z"/>
<path style="fill:#8c8c8c; stroke:none;" d="M358 253L359 254L358 253z"/>
<path style="fill:#c6c6c6; stroke:none;" d="M390 253L391 254L390 253z"/>
<path style="fill:#7e7e7e; stroke:none;" d="M496 253L497 254L496 253z"/>
<path style="fill:#959595; stroke:none;" d="M253 254L254 255L253 254z"/>
<path style="fill:#343434; stroke:none;" d="M358 254L359 255L358 254z"/>
<path style="fill:#bbbbbb; stroke:none;" d="M359 254L360 255L359 254z"/>
<path style="fill:#828282; stroke:none;" d="M391 254L392 255L391 254z"/>
<path style="fill:#bcbcbc; stroke:none;" d="M497 254L498 255L497 254z"/>
<path style="fill:#646464; stroke:none;" d="M254 255L255 256L254 255z"/>
<path style="fill:#6b6b6b; stroke:none;" d="M359 255L360 256L359 255z"/>
<path style="fill:#373737; stroke:none;" d="M392 255L393 256L392 255z"/>
<path style="fill:#6b6b6b; stroke:none;" d="M497 255L498 256L497 255z"/>
<path style="fill:#adadad; stroke:none;" d="M254 256L255 257L254 256z"/>
<path style="fill:#a5a5a5; stroke:none;" d="M360 256L361 257L360 256z"/>
<path style="fill:#acacac; stroke:none;" d="M392 256L393 257L392 256z"/>
<path style="fill:#a7a7a7; stroke:none;" d="M498 256L499 257L498 256z"/>
<path style="fill:#737373; stroke:none;" d="M255 257L256 258L255 257z"/>
<path style="fill:#595959; stroke:none;" d="M360 257L361 258L360 257z"/>
<path style="fill:#5a5a5a; stroke:none;" d="M393 257L394 258L393 257z"/>
<path style="fill:#535353; stroke:none;" d="M498 257L499 258L498 257z"/>
<path style="fill:#cacaca; stroke:none;" d="M255 258L256 259L255 258z"/>
<path style="fill:#969696; stroke:none;" d="M361 258L362 259L361 258z"/>
<path style="fill:#b2b2b2; stroke:none;" d="M393 258L394 259L393 258z"/>
<path style="fill:#929292; stroke:none;" d="M499 258L500 259L499 258z"/>
<path style="fill:#8b8b8b; stroke:none;" d="M256 259L257 260L256 259z"/>
<path style="fill:#393939; stroke:none;" d="M361 259L362 260L361 259z"/>
<path style="fill:#cecece; stroke:none;" d="M362 259L363 260L362 259z"/>
<path style="fill:#6c6c6c; stroke:none;" d="M394 259L395 260L394 259z"/>
<path style="fill:#383838; stroke:none;" d="M499 259L500 260L499 259z"/>
<path style="fill:#cdcdcd; stroke:none;" d="M500 259L501 260L500 259z"/>
<path style="fill:#474747; stroke:none;" d="M257 260L258 261L257 260z"/>
<path style="fill:#797979; stroke:none;" d="M362 260L363 261L362 260z"/>
<path style="fill:#c4c4c4; stroke:none;" d="M394 260L395 261L394 260z"/>
<path style="fill:#363636; stroke:none;" d="M395 260L396 261L395 260z"/>
<path style="fill:#7e7e7e; stroke:none;" d="M500 260L501 261L500 260z"/>
<path style="fill:#acacac; stroke:none;" d="M257 261L258 262L257 261z"/>
<path style="fill:#c0c0c0; stroke:none;" d="M363 261L364 262L363 261z"/>
<path style="fill:#7a7a7a; stroke:none;" d="M395 261L396 262L395 261z"/>
<path style="fill:#343434; stroke:none;" d="M500 261L501 262L500 261z"/>
<path style="fill:#b2b2b2; stroke:none;" d="M501 261L502 262L501 261z"/>
<path style="fill:#6e6e6e; stroke:none;" d="M258 262L259 263L258 262z"/>
<path style="fill:#626262; stroke:none;" d="M363 262L364 263L363 262z"/>
<path style="fill:#cfcfcf; stroke:none;" d="M395 262L396 263L395 262z"/>
<path style="fill:#505050; stroke:none;" d="M396 262L397 263L396 262z"/>
<path style="fill:#616161; stroke:none;" d="M501 262L502 263L501 262z"/>
<path style="fill:#bfbfbf; stroke:none;" d="M258 263L259 264L258 263z"/>
<path style="fill:#b2b2b2; stroke:none;" d="M364 263L365 264L364 263z"/>
<path style="fill:#909090; stroke:none;" d="M396 263L397 264L396 263z"/>
<path style="fill:#9e9e9e; stroke:none;" d="M502 263L503 264L502 263z"/>
<path style="fill:#7d7d7d; stroke:none;" d="M259 264L260 265L259 264z"/>
<path style="fill:#616161; stroke:none;" d="M397 264L398 265L397 264z"/>
<path style="fill:#c6c6c6; stroke:none;" d="M259 265L260 266L259 265z"/>
<path style="fill:#4a4a4a; stroke:none;" d="M260 265L261 266L260 265z"/>
<path style="fill:#858585; stroke:none;" d="M365 265L366 266L365 265z"/>
<path style="fill:#aeaeae; stroke:none;" d="M397 265L398 266L397 265z"/>
<path style="fill:#888888; stroke:none;" d="M503 265L504 266L503 265z"/>
<path style="fill:#a0a0a0; stroke:none;" d="M260 266L261 267L260 266z"/>
<path style="fill:#d0d0d0; stroke:none;" d="M366 266L367 267L366 266z"/>
<path style="fill:#6b6b6b; stroke:none;" d="M398 266L399 267L398 266z"/>
<path style="fill:#535353; stroke:none;" d="M261 267L262 268L261 267z"/>
<path style="fill:#6e6e6e; stroke:none;" d="M366 267L367 268L366 267z"/>
<path style="fill:#c0c0c0; stroke:none;" d="M398 267L399 268L398 267z"/>
<path style="fill:#383838; stroke:none;" d="M399 267L400 268L399 267z"/>
<path style="fill:#6f6f6f; stroke:none;" d="M504 267L505 268L504 267z"/>
<path style="fill:#aeaeae; stroke:none;" d="M261 268L262 269L261 268z"/>
<path style="fill:#afafaf; stroke:none;" d="M367 268L368 269L367 268z"/>
<path style="fill:#838383; stroke:none;" d="M399 268L400 269L399 268z"/>
<path style="fill:#a8a8a8; stroke:none;" d="M505 268L506 269L505 268z"/>
<path style="fill:#6f6f6f; stroke:none;" d="M262 269L263 270L262 269z"/>
<path style="fill:#555555; stroke:none;" d="M367 269L368 270L367 269z"/>
<path style="fill:#d0d0d0; stroke:none;" d="M399 269L400 270L399 269z"/>
<path style="fill:#414141; stroke:none;" d="M400 269L401 270L400 269z"/>
<path style="fill:#4f4f4f; stroke:none;" d="M505 269L506 270L505 269z"/>
<path style="fill:#c0c0c0; stroke:none;" d="M262 270L263 271L262 270z"/>
<path style="fill:#3e3e3e; stroke:none;" d="M263 270L264 271L263 270z"/>
<path style="fill:#989898; stroke:none;" d="M368 270L369 271L368 270z"/>
<path style="fill:#9c9c9c; stroke:none;" d="M400 270L401 271L400 270z"/>
<path style="fill:#8d8d8d; stroke:none;" d="M506 270L507 271L506 270z"/>
<path style="fill:#8e8e8e; stroke:none;" d="M263 271L264 272L263 271z"/>
<path style="fill:#3b3b3b; stroke:none;" d="M368 271L369 272L368 271z"/>
<path style="fill:#444444; stroke:none;" d="M401 271L402 272L401 271z"/>
<path style="fill:#212121; stroke:none;" d="M402.333 271.667L402.333 272.333L402.667 272.333L402.667 271.667L402.333 271.667z"/>
<path style="fill:#424242; stroke:none;" d="M264 272L265 273L264 272z"/>
<path style="fill:#868686; stroke:none;" d="M369 272L370 273L369 272z"/>
<path style="fill:#b6b6b6; stroke:none;" d="M401 272L402 273L401 272z"/>
<path style="fill:#6e6e6e; stroke:none;" d="M507 272L508 273L507 272z"/>
<path style="fill:#a3a3a3; stroke:none;" d="M264 273L265 274L264 273z"/>
<path style="fill:#373737; stroke:none;" d="M369 273L370 274L369 273z"/>
<path style="fill:#b8b8b8; stroke:none;" d="M370 273L371 274L370 273z"/>
<path style="fill:#797979; stroke:none;" d="M402 273L403 274L402 273z"/>
<path style="fill:#b6b6b6; stroke:none;" d="M508 273L509 274L508 273z"/>
<path style="fill:#606060; stroke:none;" d="M265 274L266 275L265 274z"/>
<path style="fill:#6c6c6c; stroke:none;" d="M370 274L371 275L370 274z"/>
<path style="fill:#323232; stroke:none;" d="M403 274L404 275L403 274z"/>
<path style="fill:#616161; stroke:none;" d="M508 274L509 275L508 274z"/>
<path style="fill:#bababa; stroke:none;" d="M265 275L266 276L265 275z"/>
<path style="fill:#afafaf; stroke:none;" d="M371 275L372 276L371 275z"/>
<path style="fill:#838383; stroke:none;" d="M403 275L404 276L403 275z"/>
<path style="fill:#a3a3a3; stroke:none;" d="M509 275L510 276L509 275z"/>
<path style="fill:#7b7b7b; stroke:none;" d="M266 276L267 277L266 276z"/>
<path style="fill:#5a5a5a; stroke:none;" d="M371 276L372 277L371 276z"/>
<path style="fill:#4a4a4a; stroke:none;" d="M404 276L405 277L404 276z"/>
<path style="fill:#494949; stroke:none;" d="M509 276L510 277L509 276z"/>
<path style="fill:#3e3e3e; stroke:none;" d="M267 277L268 278L267 277z"/>
<path style="fill:#969696; stroke:none;" d="M372 277L373 278L372 277z"/>
<path style="fill:#999999; stroke:none;" d="M404 277L405 278L404 277z"/>
<path style="fill:#8a8a8a; stroke:none;" d="M510 277L511 278L510 277z"/>
<path style="fill:#989898; stroke:none;" d="M267 278L268 279L267 278z"/>
<path style="fill:#3e3e3e; stroke:none;" d="M372 278L373 279L372 278z"/>
<path style="fill:#c6c6c6; stroke:none;" d="M373 278L374 279L373 278z"/>
<path style="fill:#5b5b5b; stroke:none;" d="M405 278L406 279L405 278z"/>
<path style="fill:#1c1c1c; stroke:none;" d="M406.333 278.667L406.333 279.333L406.667 279.333L406.667 278.667L406.333 278.667z"/>
<path style="fill:#343434; stroke:none;" d="M510 278L511 279L510 278z"/>
<path style="fill:#c0c0c0; stroke:none;" d="M511 278L512 279L511 278z"/>
<path style="fill:#444444; stroke:none;" d="M268 279L269 280L268 279z"/>
<path style="fill:#787878; stroke:none;" d="M373 279L374 280L373 279z"/>
<path style="fill:#b2b2b2; stroke:none;" d="M405 279L406 280L405 279z"/>
<path style="fill:#757575; stroke:none;" d="M511 279L512 280L511 279z"/>
<path style="fill:#b3b3b3; stroke:none;" d="M268 280L269 281L268 280z"/>
<path style="fill:#bcbcbc; stroke:none;" d="M374 280L375 281L374 280z"/>
<path style="fill:#7c7c7c; stroke:none;" d="M406 280L407 281L406 280z"/>
<path style="fill:#a6a6a6; stroke:none;" d="M512 280L513 281L512 280z"/>
<path style="fill:#727272; stroke:none;" d="M269 281L270 282L269 281z"/>
<path style="fill:#686868; stroke:none;" d="M374 281L375 282L374 281z"/>
<path style="fill:#b8b8b8; stroke:none;" d="M406 281L407 282L406 281z"/>
<path style="fill:#3d3d3d; stroke:none;" d="M407 281L408 282L407 281z"/>
<path style="fill:#5a5a5a; stroke:none;" d="M512 281L513 282L512 281z"/>
<path style="fill:#c0c0c0; stroke:none;" d="M234.667 282.333L235 282.667L235.333 282.667L235 282.333L234.667 282.333z"/>
<path style="fill:#9f9f9f; stroke:none;" d="M375 282L376 283L375 282z"/>
<path style="fill:#929292; stroke:none;" d="M407 282L408 283L407 282z"/>
<path style="fill:#999999; stroke:none;" d="M513 282L514 283L513 282z"/>
<path style="fill:#b3b3b3; stroke:none;" d="M233 283L234 284L233 283z"/>
<path style="fill:#3c3c3c; stroke:none;" d="M234.667 283.333L235 283.667L235.333 283.667L235 283.333L234.667 283.333z"/>
<path style="fill:#a1a1a1; stroke:none;" d="M236 283L237 284L236 283z"/>
<path style="fill:#848484; stroke:none;" d="M270 283L271 284L270 283z"/>
<path style="fill:#5a5a5a; stroke:none;" d="M375 283L376 284L375 283z"/>
<path style="fill:#444444; stroke:none;" d="M408 283L409 284L408 283z"/>
<path style="fill:#3c3c3c; stroke:none;" d="M513 283L514 284L513 283z"/>
<path style="fill:#d3d3d3; stroke:none;" d="M514 283L515 284L514 283z"/>
<path style="fill:#bfbfbf; stroke:none;" d="M231 284L232 285L231 284z"/>
<path style="fill:#848484; stroke:none;" d="M232 284L233 285L232 284z"/>
<path style="fill:#000000; stroke:none;" d="M158 328L158.528 329.5L158.889 330.056L159.417 331.056L160.611 333L161.194 334L162.389 336L163.611 338L164.75 340L165.222 341L165.778 342L166.222 343L166.778 344L167.833 346L168.389 347L169.611 349L170.833 350.972L171.472 351.889L173.083 353.25L175 353.667L176 353.583L177 353.389L179 353.083L181 353L183 353L188 353L201 353L273 353L273 352L271 352L272.75 351.917L273.278 351.917L274 353L274.694 352.222L274.667 351.694L274.694 350.889L274.5 349.972L273.75 348L273.222 347L272.75 346L271.611 344L270.972 343L270.333 342L269.028 340L268.389 339L267.806 338L267.194 337L266 335L264.806 333L264.194 332L263.611 331L262.389 329L261.833 328L261.25 327L260.222 325L259.778 324L259.222 323L258.75 322L257.556 320L256.167 318L255.444 317L254.25 315L253.75 314L252.611 312L251.389 310L250.194 308L249.639 307L249.056 306L248.528 305L247.472 303L246.944 302L246.361 301L245.806 300L245.194 299L244.611 298L243.389 296L242.194 294L241.611 293L240.389 291L239.194 289L238.611 288L237.389 286.056L237.056 285.5L236 284L234.5 284.111L232.944 284.639L232 285.083L230 286.194L229 286.806L227 287.944L226 288.472L225 289L223 290.083L221 291.333L220 291.972L219 292.611L217 293.75L216 294.222L215 294.778L214 295.25L213 295.833L212 296.389L210 297.611L208 298.806L207 299.389L205 300.611L203 301.75L202 302.25L200 303.389L198 304.611L196 305.75L195 306.25L193 307.389L191 308.611L189 309.806L188 310.389L186 311.611L185 312.194L183 313.389L181 314.611L179 315.75L178 316.25L176 317.389L174 318.611L172 319.75L171 320.222L170 320.778L169 321.25L167 322.389L166 323.028L165 323.667L164 324.333L162 325.611L160.056 326.75L159.5 327L158 328z"/>
<path style="fill:#545454; stroke:none;" d="M236 284L237 285L236 284z"/>
<path style="fill:#414141; stroke:none;" d="M271 284L272 285L271 284z"/>
<path style="fill:#898989; stroke:none;" d="M376 284L377 285L376 284z"/>
<path style="fill:#9c9c9c; stroke:none;" d="M408 284L409 285L408 284z"/>
<path style="fill:#808080; stroke:none;" d="M514 284L515 285L514 284z"/>
<path style="fill:#939393; stroke:none;" d="M230 285L231 286L230 285z"/>
<path style="fill:#393939; stroke:none;" d="M231 285L232 286L231 285z"/>
<path style="fill:#8e8e8e; stroke:none;" d="M237 285L238 286L237 285z"/>
<path style="fill:#979797; stroke:none;" d="M271 285L272 286L271 285z"/>
<path style="fill:#353535; stroke:none;" d="M376 285L377 286L376 285z"/>
<path style="fill:#c5c5c5; stroke:none;" d="M377 285L378 286L377 285z"/>
<path style="fill:#545454; stroke:none;" d="M409 285L410 286L409 285z"/>
<path style="fill:#343434; stroke:none;" d="M514 285L515 286L514 285z"/>
<path style="fill:#b9b9b9; stroke:none;" d="M515 285L516 286L515 285z"/>
<path style="fill:#acacac; stroke:none;" d="M228 286L229 287L228 286z"/>
<path style="fill:#515151; stroke:none;" d="M229 286L230 287L229 286z"/>
<path style="fill:#3e3e3e; stroke:none;" d="M237 286L238 287L237 286z"/>
<path style="fill:#c2c2c2; stroke:none;" d="M238 286L239 287L238 286z"/>
<path style="fill:#626262; stroke:none;" d="M272 286L273 287L272 286z"/>
<path style="fill:#6e6e6e; stroke:none;" d="M377 286L378 287L377 286z"/>
<path style="fill:#b1b1b1; stroke:none;" d="M378.333 286.667L378.333 287.333L378.667 287.333L378.667 286.667L378.333 286.667z"/>
<path style="fill:#acacac; stroke:none;" d="M409 286L410 287L409 286z"/>
<path style="fill:#686868; stroke:none;" d="M410.333 286.667L410.333 287.333L410.667 287.333L410.667 287L410.333 286.667z"/>
<path style="fill:#616161; stroke:none;" d="M515 286L516 287L515 286z"/>
<path style="fill:#bebebe; stroke:none;" d="M226 287L227 288L226 287z"/>
<path style="fill:#666666; stroke:none;" d="M227 287L228 288L227 287z"/>
<path style="fill:#787878; stroke:none;" d="M238 287L239 288L238 287z"/>
<path style="fill:#bababa; stroke:none;" d="M272 287L273 288L272 287z"/>
<path style="fill:#adadad; stroke:none;" d="M516 287L517 288L516 287z"/>
<path style="fill:#767676; stroke:none;" d="M225 288L226 289L225 288z"/>
<path style="fill:#3a3a3a; stroke:none;" d="M226 288L227 289L226 288z"/>
<path style="fill:#bebebe; stroke:none;" d="M239 288L240 289L239 288z"/>
<path style="fill:#797979; stroke:none;" d="M273 288L274 289L273 288z"/>
<path style="fill:#5c5c5c; stroke:none;" d="M378 288L379 289L378 288z"/>
<path style="fill:#c5c5c5; stroke:none;" d="M410 288L411 289L410 288z"/>
<path style="fill:#363636; stroke:none;" d="M411 288L412 289L411 288z"/>
<path style="fill:#1b1b1b; stroke:none;" d="M516.333 288.667L516.333 289L516.667 289.333L516.667 289L516.333 288.667z"/>
<path style="fill:#949494; stroke:none;" d="M223 289L224 290L223 289z"/>
<path style="fill:#6a6a6a; stroke:none;" d="M239 289L240 290L239 289z"/>
<path style="fill:#c3c3c3; stroke:none;" d="M273 289L274 290L273 289z"/>
<path style="fill:#414141; stroke:none;" d="M274 289L275 290L274 289z"/>
<path style="fill:#8f8f8f; stroke:none;" d="M379 289L380 290L379 289z"/>
<path style="fill:#8b8b8b; stroke:none;" d="M411 289L412 290L411 289z"/>
<path style="fill:#898989; stroke:none;" d="M517 289L518 290L517 289z"/>
<path style="fill:#b3b3b3; stroke:none;" d="M221 290L222 291L221 290z"/>
<path style="fill:#575757; stroke:none;" d="M222 290L223 291L222 290z"/>
<path style="fill:#a3a3a3; stroke:none;" d="M240 290L241 291L240 290z"/>
<path style="fill:#919191; stroke:none;" d="M274 290L275 291L274 290z"/>
<path style="fill:#3f3f3f; stroke:none;" d="M412 290L413 291L412 290z"/>
<path style="fill:#cecece; stroke:none;" d="M518 290L519 291L518 290z"/>
<path style="fill:#c0c0c0; stroke:none;" d="M219 291L220 292L219 291z"/>
<path style="fill:#767676; stroke:none;" d="M220 291L221 292L220 291z"/>
<path style="fill:#474747; stroke:none;" d="M240 291L241 292L240 291z"/>
<path style="fill:#4c4c4c; stroke:none;" d="M275 291L276 292L275 291z"/>
<path style="fill:#767676; stroke:none;" d="M380 291L381 292L380 291z"/>
<path style="fill:#a7a7a7; stroke:none;" d="M412 291L413 292L412 291z"/>
<path style="fill:#6d6d6d; stroke:none;" d="M518 291L519 292L518 291z"/>
<path style="fill:#cdcdcd; stroke:none;" d="M217 292L218 293L217 292z"/>
<path style="fill:#8a8a8a; stroke:none;" d="M218 292L219 293L218 292z"/>
<path style="fill:#353535; stroke:none;" d="M219 292L220 293L219 292z"/>
<path style="fill:#888888; stroke:none;" d="M241 292L242 293L241 292z"/>
<path style="fill:#ababab; stroke:none;" d="M275 292L276 293L275 292z"/>
<path style="fill:#c5c5c5; stroke:none;" d="M381 292L382 293L381 292z"/>
<path style="fill:#575757; stroke:none;" d="M413 292L414 293L413 292z"/>
<path style="fill:#b1b1b1; stroke:none;" d="M519 292L520 293L519 292z"/>
<path style="fill:#9f9f9f; stroke:none;" d="M216 293L217 294L216 293z"/>
<path style="fill:#4d4d4d; stroke:none;" d="M217 293L218 294L217 293z"/>
<path style="fill:#c5c5c5; stroke:none;" d="M242 293L243 294L242 293z"/>
<path style="fill:#5e5e5e; stroke:none;" d="M276 293L277 294L276 293M381 293L382 294L381 293z"/>
<path style="fill:#bfbfbf; stroke:none;" d="M413 293L414 294L413 293z"/>
<path style="fill:#585858; stroke:none;" d="M519 293L520 294L519 293z"/>
<path style="fill:#bababa; stroke:none;" d="M214 294L215 295L214 294z"/>
<path style="fill:#5e5e5e; stroke:none;" d="M215 294L216 295L215 294z"/>
<path style="fill:#6f6f6f; stroke:none;" d="M242 294L243 295L242 294z"/>
<path style="fill:#b8b8b8; stroke:none;" d="M276 294L277 295L276 294z"/>
<path style="fill:#343434; stroke:none;" d="M277 294L278 295L277 294z"/>
<path style="fill:#a3a3a3; stroke:none;" d="M382 294L383 295L382 294z"/>
<path style="fill:#737373; stroke:none;" d="M414 294L415 295L414 294z"/>
<path style="fill:#979797; stroke:none;" d="M520 294L521 295L520 294z"/>
<path style="fill:#ededed; stroke:none;" d="M521 294L521.667 295.75L521.861 296.278L523 297L522.333 295.25L522.139 294.722L521 294z"/>
<path style="fill:#c7c7c7; stroke:none;" d="M212 295L213 296L212 295z"/>
<path style="fill:#737373; stroke:none;" d="M213 295L214 296L213 295z"/>
<path style="fill:#a1a1a1; stroke:none;" d="M243 295L244 296L243 295z"/>
<path style="fill:#777777; stroke:none;" d="M277 295L278 296L277 295z"/>
<path style="fill:#4d4d4d; stroke:none;" d="M382 295L383 296L382 295z"/>
<path style="fill:#c8c8c8; stroke:none;" d="M414 295L415 296L414 295z"/>
<path style="fill:#393939; stroke:none;" d="M415 295L416 296L415 295z"/>
<path style="fill:#3b3b3b; stroke:none;" d="M520 295L521 296L520 295z"/>
<path style="fill:#919191; stroke:none;" d="M211 296L212 297L211 296z"/>
<path style="fill:#535353; stroke:none;" d="M243 296L244 297L243 296z"/>
<path style="fill:#474747; stroke:none;" d="M278 296L279 297L278 296z"/>
<path style="fill:#838383; stroke:none;" d="M383 296L384 297L383 296z"/>
<path style="fill:#c7c7c7; stroke:none;" d="M415.333 296.667L415.333 297.333L415.667 297.333L415.667 297L415.333 296.667z"/>
<path style="fill:#888888; stroke:none;" d="M521 296L522 297L521 296z"/>
<path style="fill:#9e9e9e; stroke:none;" d="M209 297L210 298L209 297z"/>
<path style="fill:#505050; stroke:none;" d="M210 297L211 298L210 297z"/>
<path style="fill:#898989; stroke:none;" d="M244 297L245 298L244 297z"/>
<path style="fill:#939393; stroke:none;" d="M278 297L279 298L278 297z"/>
<path style="fill:#494949; stroke:none;" d="M383 297L384 298L383 297z"/>
<path style="fill:#c3c3c3; stroke:none;" d="M384 297L385 298L384 297z"/>
<path style="fill:#4f4f4f; stroke:none;" d="M416 297L417 298L416 297z"/>
<path style="fill:#3a3a3a; stroke:none;" d="M521 297L522 298L521 297z"/>
<path style="fill:#c0c0c0; stroke:none;" d="M522 297L523 298L522 297z"/>
<path style="fill:#b3b3b3; stroke:none;" d="M207 298L208 299L207 298z"/>
<path style="fill:#6a6a6a; stroke:none;" d="M208 298L209 299L208 298z"/>
<path style="fill:#636363; stroke:none;" d="M279 298L280 299L279 298z"/>
<path style="fill:#6b6b6b; stroke:none;" d="M384 298L385 299L384 298z"/>
<path style="fill:#acacac; stroke:none;" d="M416 298L417 299L416 298z"/>
<path style="fill:#727272; stroke:none;" d="M522 298L523 299L522 298z"/>
<path style="fill:#cdcdcd; stroke:none;" d="M205 299L206 300L205 299z"/>
<path style="fill:#7b7b7b; stroke:none;" d="M206 299L207 300L206 299z"/>
<path style="fill:#767676; stroke:none;" d="M245 299L246 300L245 299z"/>
<path style="fill:#a9a9a9; stroke:none;" d="M279 299L280 300L279 299z"/>
<path style="fill:#bcbcbc; stroke:none;" d="M385 299L386 300L385 299z"/>
<path style="fill:#5e5e5e; stroke:none;" d="M417 299L418 300L417 299z"/>
<path style="fill:#acacac; stroke:none;" d="M523 299L524 300L523 299z"/>
<path style="fill:#929292; stroke:none;" d="M204 300L205 301L204 300z"/>
<path style="fill:#3a3a3a; stroke:none;" d="M205 300L206 301L205 300z"/>
<path style="fill:#bababa; stroke:none;" d="M246 300L247 301L246 300z"/>
<path style="fill:#797979; stroke:none;" d="M280 300L281 301L280 300z"/>
<path style="fill:#5f5f5f; stroke:none;" d="M385 300L386 301L385 300z"/>
<path style="fill:#bbbbbb; stroke:none;" d="M417 300L418 301L417 300z"/>
<path style="fill:#515151; stroke:none;" d="M523 300L524 301L523 300z"/>
<path style="fill:#a4a4a4; stroke:none;" d="M202 301L203 302L202 301z"/>
<path style="fill:#555555; stroke:none;" d="M203 301L204 302L203 301M246 301L247 302L246 301z"/>
<path style="fill:#cacaca; stroke:none;" d="M280 301L281 302L280 301z"/>
<path style="fill:#343434; stroke:none;" d="M281 301L282 302L281 301z"/>
<path style="fill:#a7a7a7; stroke:none;" d="M386 301L387 302L386 301z"/>
<path style="fill:#6f6f6f; stroke:none;" d="M418 301L419 302L418 301z"/>
<path style="fill:#939393; stroke:none;" d="M524 301L525 302L524 301z"/>
<path style="fill:#6a6a6a; stroke:none;" d="M201 302L202 303L201 302z"/>
<path style="fill:#9f9f9f; stroke:none;" d="M247 302L248 303L247 302z"/>
<path style="fill:#8b8b8b; stroke:none;" d="M281 302L282 303L281 302z"/>
<path style="fill:#494949; stroke:none;" d="M386 302L387 303L386 302z"/>
<path style="fill:#cacaca; stroke:none;" d="M387 302L388 303L387 302z"/>
<path style="fill:#c2c2c2; stroke:none;" d="M418 302L419 303L418 302z"/>
<path style="fill:#454545; stroke:none;" d="M419 302L420 303L419 302z"/>
<path style="fill:#414141; stroke:none;" d="M524 302L525 303L524 302z"/>
<path style="fill:#c9c9c9; stroke:none;" d="M525 302L526 303L525 302z"/>
<path style="fill:#848484; stroke:none;" d="M199 303L200 304L199 303z"/>
<path style="fill:#454545; stroke:none;" d="M282 303L283 304L282 303z"/>
<path style="fill:#909090; stroke:none;" d="M387 303L388 304L387 303z"/>
<path style="fill:#7c7c7c; stroke:none;" d="M419 303L420 304L419 303z"/>
<path style="fill:#7a7a7a; stroke:none;" d="M525 303L526 304L525 303z"/>
<path style="fill:#9e9e9e; stroke:none;" d="M197 304L198 305L197 304z"/>
<path style="fill:#424242; stroke:none;" d="M198 304L199 305L198 304z"/>
<path style="fill:#737373; stroke:none;" d="M248 304L249 305L248 304z"/>
<path style="fill:#a4a4a4; stroke:none;" d="M282 304L283 305L282 304z"/>
<path style="fill:#1c1c1c; stroke:none;" d="M387.333 304.667L387.333 305.333L387.667 305.333L387.667 305L387.333 304.667z"/>
<path style="fill:#c7c7c7; stroke:none;" d="M388 304L389 305L388 304z"/>
<path style="fill:#494949; stroke:none;" d="M420 304L421 305L420 304z"/>
<path style="fill:#c0c0c0; stroke:none;" d="M526 304L527 305L526 304z"/>
<path style="fill:#b9b9b9; stroke:none;" d="M195 305L196 306L195 305z"/>
<path style="fill:#676767; stroke:none;" d="M196 305L197 306L196 305z"/>
<path style="fill:#3b3b3b; stroke:none;" d="M248 305L249 306L248 305z"/>
<path style="fill:#bdbdbd; stroke:none;" d="M249 305L250 306L249 305z"/>
<path style="fill:#707070; stroke:none;" d="M283 305L284 306L283 305z"/>
<path style="fill:#6e6e6e; stroke:none;" d="M388 305L389 306L388 305z"/>
<path style="fill:#a2a2a2; stroke:none;" d="M420 305L421 306L420 305z"/>
<path style="fill:#606060; stroke:none;" d="M526 305L527 306L526 305z"/>
<path style="fill:#cacaca; stroke:none;" d="M193 306L194 307L193 306z"/>
<path style="fill:#787878; stroke:none;" d="M194 306L195 307L194 306z"/>
<path style="fill:#636363; stroke:none;" d="M249 306L250 307L249 306z"/>
<path style="fill:#a9a9a9; stroke:none;" d="M389 306L390 307L389 306z"/>
<path style="fill:#626262; stroke:none;" d="M421 306L422 307L421 306z"/>
<path style="fill:#a7a7a7; stroke:none;" d="M527 306L528 307L527 306z"/>
<path style="fill:#d4d4d4; stroke:none;" d="M191 307L192 308L191 307z"/>
<path style="fill:#929292; stroke:none;" d="M192 307L193 308L192 307z"/>
<path style="fill:#a3a3a3; stroke:none;" d="M250 307L251 308L250 307z"/>
<path style="fill:#878787; stroke:none;" d="M284 307L285 308L284 307z"/>
<path style="fill:#555555; stroke:none;" d="M389 307L390 308L389 307z"/>
<path style="fill:#b0b0b0; stroke:none;" d="M421 307L422 308L421 307z"/>
<path style="fill:#525252; stroke:none;" d="M527 307L528 308L527 307z"/>
<path style="fill:#a4a4a4; stroke:none;" d="M190 308L191 309L190 308z"/>
<path style="fill:#505050; stroke:none;" d="M191 308L192 309L191 308z"/>
<path style="fill:#4a4a4a; stroke:none;" d="M250 308L251 309L250 308z"/>
<path style="fill:#3c3c3c; stroke:none;" d="M285 308L286 309L285 308z"/>
<path style="fill:#909090; stroke:none;" d="M390 308L391 309L390 308z"/>
<path style="fill:#7a7a7a; stroke:none;" d="M422 308L423 309L422 308z"/>
<path style="fill:#838383; stroke:none;" d="M528 308L529 309L528 308z"/>
<path style="fill:#bbbbbb; stroke:none;" d="M188 309L189 310L188 309z"/>
<path style="fill:#656565; stroke:none;" d="M189 309L190 310L189 309z"/>
<path style="fill:#888888; stroke:none;" d="M251 309L252 310L251 309z"/>
<path style="fill:#a3a3a3; stroke:none;" d="M285 309L286 310L285 309z"/>
<path style="fill:#3a3a3a; stroke:none;" d="M390 309L391 310L390 309z"/>
<path style="fill:#353535; stroke:none;" d="M423 309L424 310L423 309z"/>
<path style="fill:#c7c7c7; stroke:none;" d="M529 309L530 310L529 309z"/>
<path style="fill:#c9c9c9; stroke:none;" d="M186 310L187 311L186 310z"/>
<path style="fill:#7b7b7b; stroke:none;" d="M187 310L188 311L187 310z"/>
<path style="fill:#323232; stroke:none;" d="M251 310L252 311L251 310z"/>
<path style="fill:#c0c0c0; stroke:none;" d="M252 310L253 311L252 310z"/>
<path style="fill:#5d5d5d; stroke:none;" d="M286 310L287 311L286 310z"/>
<path style="fill:#818181; stroke:none;" d="M391 310L392 311L391 310z"/>
<path style="fill:#878787; stroke:none;" d="M423 310L424 311L423 310z"/>
<path style="fill:#717171; stroke:none;" d="M529 310L530 311L529 310z"/>
<path style="fill:#afafaf; stroke:none;" d="M530.333 310.667L530.333 311L530.667 311.333L530.667 311L530.333 310.667z"/>
<path style="fill:#999999; stroke:none;" d="M185 311L186 312L185 311z"/>
<path style="fill:#4d4d4d; stroke:none;" d="M186 311L187 312L186 311z"/>
<path style="fill:#787878; stroke:none;" d="M252 311L253 312L252 311z"/>
<path style="fill:#b2b2b2; stroke:none;" d="M286 311L287 312L286 311z"/>
<path style="fill:#c8c8c8; stroke:none;" d="M392 311L393 312L392 311z"/>
<path style="fill:#e1e1e1; stroke:none;" d="M423.333 311.667L423.333 312.333L423.667 312.333L423.667 311.667L423.333 311.667z"/>
<path style="fill:#444444; stroke:none;" d="M424 311L425 312L424 311z"/>
<path style="fill:#a6a6a6; stroke:none;" d="M183 312L184 313L183 312z"/>
<path style="fill:#575757; stroke:none;" d="M184 312L185 313L184 312z"/>
<path style="fill:#adadad; stroke:none;" d="M253 312L254 313L253 312z"/>
<path style="fill:#848484; stroke:none;" d="M287 312L288 313L287 312z"/>
<path style="fill:#565656; stroke:none;" d="M392 312L393 313L392 312z"/>
<path style="fill:#b3b3b3; stroke:none;" d="M424 312L425 313L424 312z"/>
<path style="fill:#282828; stroke:none;" d="M530.333 312.667L530.333 313L530.667 313.333L530.667 312.667L530.333 312.667z"/>
<path style="fill:#c3c3c3; stroke:none;" d="M181 313L182 314L181 313z"/>
<path style="fill:#787878; stroke:none;" d="M182 313L183 314L182 313z"/>
<path style="fill:#5a5a5a; stroke:none;" d="M253 313L254 314L253 313z"/>
<path style="fill:#b5b5b5; stroke:none;" d="M287 313L288 314L287 313z"/>
<path style="fill:#3d3d3d; stroke:none;" d="M288 313L289 314L288 313z"/>
<path style="fill:#a0a0a0; stroke:none;" d="M393 313L394 314L393 313z"/>
<path style="fill:#636363; stroke:none;" d="M425 313L426 314L425 313z"/>
<path style="fill:#8b8b8b; stroke:none;" d="M531 313L532 314L531 313z"/>
<path style="fill:#8c8c8c; stroke:none;" d="M180 314L181 315L180 314z"/>
<path style="fill:#363636; stroke:none;" d="M181 314L182 315L181 314z"/>
<path style="fill:#919191; stroke:none;" d="M254 314L255 315L254 314z"/>
<path style="fill:#989898; stroke:none;" d="M288 314L289 315L288 314z"/>
<path style="fill:#4b4b4b; stroke:none;" d="M393 314L394 315L393 314z"/>
<path style="fill:#bcbcbc; stroke:none;" d="M425 314L426 315L425 314z"/>
<path style="fill:#a5a5a5; stroke:none;" d="M178 315L179 316L178 315z"/>
<path style="fill:#535353; stroke:none;" d="M179 315L180 316L179 315z"/>
<path style="fill:#3d3d3d; stroke:none;" d="M254 315L255 316L254 315z"/>
<path style="fill:#d0d0d0; stroke:none;" d="M255 315L256 316L255 315z"/>
<path style="fill:#434343; stroke:none;" d="M289 315L290 316L289 315z"/>
<path style="fill:#898989; stroke:none;" d="M394 315L395 316L394 315z"/>
<path style="fill:#797979; stroke:none;" d="M426 315L427 316L426 315z"/>
<path style="fill:#7c7c7c; stroke:none;" d="M532 315L533 316L532 315z"/>
<path style="fill:#b8b8b8; stroke:none;" d="M176 316L177 317L176 316z"/>
<path style="fill:#606060; stroke:none;" d="M177 316L178 317L177 316z"/>
<path style="fill:#838383; stroke:none;" d="M255 316L256 317L255 316z"/>
<path style="fill:#a2a2a2; stroke:none;" d="M289 316L290 317L289 316z"/>
<path style="fill:#3b3b3b; stroke:none;" d="M394 316L395 317L394 316z"/>
<path style="fill:#c5c5c5; stroke:none;" d="M395 316L396 317L395 316z"/>
<path style="fill:#3a3a3a; stroke:none;" d="M427 316L428 317L427 316z"/>
<path style="fill:#bbbbbb; stroke:none;" d="M533 316L534 317L533 316z"/>
<path style="fill:#cacaca; stroke:none;" d="M174 317L175 318L174 317z"/>
<path style="fill:#767676; stroke:none;" d="M175 317L176 318L175 317z"/>
<path style="fill:#323232; stroke:none;" d="M255 317L256 318L255 317z"/>
<path style="fill:#bbbbbb; stroke:none;" d="M256 317L257 318L256 317z"/>
<path style="fill:#5a5a5a; stroke:none;" d="M290 317L291 318L290 317z"/>
<path style="fill:#6e6e6e; stroke:none;" d="M395 317L396 318L395 317z"/>
<path style="fill:#909090; stroke:none;" d="M427 317L428 318L427 317z"/>
<path style="fill:#646464; stroke:none;" d="M533 317L534 318L533 317z"/>
<path style="fill:#8b8b8b; stroke:none;" d="M173 318L174 319L173 318z"/>
<path style="fill:#373737; stroke:none;" d="M174 318L175 319L174 318z"/>
<path style="fill:#636363; stroke:none;" d="M256 318L257 319L256 318z"/>
<path style="fill:#b6b6b6; stroke:none;" d="M290 318L291 319L290 318z"/>
<path style="fill:#363636; stroke:none;" d="M291 318L292 319L291 318z"/>
<path style="fill:#b1b1b1; stroke:none;" d="M396 318L397 319L396 318z"/>
<path style="fill:#505050; stroke:none;" d="M428 318L429 319L428 318z"/>
<path style="fill:#a2a2a2; stroke:none;" d="M534 318L535 319L534 318z"/>
<path style="fill:#a8a8a8; stroke:none;" d="M171 319L172 320L171 319z"/>
<path style="fill:#4d4d4d; stroke:none;" d="M172 319L173 320L172 319z"/>
<path style="fill:#b1b1b1; stroke:none;" d="M257 319L258 320L257 319z"/>
<path style="fill:#dddddd; stroke:none;" d="M258.333 319.667L258.333 320.333L258.667 320.333L258.667 319.667L258.333 319.667z"/>
<path style="fill:#747474; stroke:none;" d="M291 319L292 320L291 319z"/>
<path style="fill:#626262; stroke:none;" d="M396 319L397 320L396 319z"/>
<path style="fill:#9f9f9f; stroke:none;" d="M428 319L429 320L428 319z"/>
<path style="fill:#474747; stroke:none;" d="M534 319L535 320L534 319z"/>
<path style="fill:#bdbdbd; stroke:none;" d="M169 320L170 321L169 320z"/>
<path style="fill:#6f6f6f; stroke:none;" d="M170 320L171 321L170 320z"/>
<path style="fill:#444444; stroke:none;" d="M292 320L293 321L292 320z"/>
<path style="fill:#929292; stroke:none;" d="M397 320L398 321L397 320z"/>
<path style="fill:#6e6e6e; stroke:none;" d="M429 320L430 321L429 320z"/>
<path style="fill:#737373; stroke:none;" d="M535 320L536 321L535 320z"/>
<path style="fill:#c9c9c9; stroke:none;" d="M167 321L168 322L167 321z"/>
<path style="fill:#707070; stroke:none;" d="M168 321L169 322L168 321z"/>
<path style="fill:#838383; stroke:none;" d="M258 321L259 322L258 321z"/>
<path style="fill:#989898; stroke:none;" d="M292 321L293 322L292 321z"/>
<path style="fill:#4c4c4c; stroke:none;" d="M397 321L398 322L397 321z"/>
<path style="fill:#b0b0b0; stroke:none;" d="M429 321L430 322L429 321z"/>
<path style="fill:#363636; stroke:none;" d="M430 321L431 322L430 321z"/>
<path style="fill:#474747; stroke:none;" d="M535 321L536 322L535 321z"/>
<path style="fill:#bcbcbc; stroke:none;" d="M536 321L537 322L536 321z"/>
<path style="fill:#8b8b8b; stroke:none;" d="M166 322L167 323L166 322z"/>
<path style="fill:#c6c6c6; stroke:none;" d="M259 322L260 323L259 322z"/>
<path style="fill:#575757; stroke:none;" d="M293 322L294 323L293 322z"/>
<path style="fill:#818181; stroke:none;" d="M398 322L399 323L398 322z"/>
<path style="fill:#888888; stroke:none;" d="M430 322L431 323L430 322z"/>
<path style="fill:#606060; stroke:none;" d="M536 322L537 323L536 322z"/>
<path style="fill:#afafaf; stroke:none;" d="M164 323L165 324L164 323z"/>
<path style="fill:#545454; stroke:none;" d="M165 323L166 324L165 323z"/>
<path style="fill:#727272; stroke:none;" d="M259 323L260 324L259 323z"/>
<path style="fill:#aaaaaa; stroke:none;" d="M293 323L294 324L293 323z"/>
<path style="fill:#c8c8c8; stroke:none;" d="M399 323L400 324L399 323z"/>
<path style="fill:#cbcbcb; stroke:none;" d="M430 323L431 324L430 323z"/>
<path style="fill:#363636; stroke:none;" d="M431 323L432 324L431 323z"/>
<path style="fill:#b5b5b5; stroke:none;" d="M537 323L538 324L537 323z"/>
<path style="fill:#bababa; stroke:none;" d="M162 324L163 325L162 324z"/>
<path style="fill:#6c6c6c; stroke:none;" d="M163 324L164 325L163 324z"/>
<path style="fill:#a3a3a3; stroke:none;" d="M260 324L261 325L260 324z"/>
<path style="fill:#747474; stroke:none;" d="M294 324L295 325L294 324z"/>
<path style="fill:#6f6f6f; stroke:none;" d="M399 324L400 325L399 324z"/>
<path style="fill:#919191; stroke:none;" d="M431 324L432 325L431 324z"/>
<path style="fill:#565656; stroke:none;" d="M537 324L538 325L537 324z"/>
<path style="fill:#8f8f8f; stroke:none;" d="M161 325L162 326L161 325z"/>
<path style="fill:#3e3e3e; stroke:none;" d="M162 325L163 326L162 325z"/>
<path style="fill:#525252; stroke:none;" d="M260 325L261 326L260 325z"/>
<path style="fill:#c5c5c5; stroke:none;" d="M294 325L295 326L294 325z"/>
<path style="fill:#ababab; stroke:none;" d="M400 325L401 326L400 325z"/>
<path style="fill:#4f4f4f; stroke:none;" d="M432 325L433 326L432 325z"/>
<path style="fill:#a3a3a3; stroke:none;" d="M538 325L539 326L538 325z"/>
<path style="fill:#a2a2a2; stroke:none;" d="M159 326L160 327L159 326z"/>
<path style="fill:#4a4a4a; stroke:none;" d="M160 326L161 327L160 326z"/>
<path style="fill:#969696; stroke:none;" d="M261 326L262 327L261 326z"/>
<path style="fill:#848484; stroke:none;" d="M295 326L296 327L295 326z"/>
<path style="fill:#535353; stroke:none;" d="M400 326L401 327L400 326z"/>
<path style="fill:#d2d2d2; stroke:none;" d="M401 326L402 327L401 326z"/>
<path style="fill:#a1a1a1; stroke:none;" d="M432 326L433 327L432 326z"/>
<path style="fill:#484848; stroke:none;" d="M538 326L539 327L538 326z"/>
<path style="fill:#c8c8c8; stroke:none;" d="M539 326L540 327L539 326z"/>
<path style="fill:#bebebe; stroke:none;" d="M157.333 327.667L157.333 328L157.667 328.333L157.667 327.667L157.333 327.667z"/>
<path style="fill:#5a5a5a; stroke:none;" d="M158 327L159 328L158 327z"/>
<path style="fill:#3f3f3f; stroke:none;" d="M261 327L262 328L261 327z"/>
<path style="fill:#dfdfdf; stroke:none;" d="M295 327L295.667 328.75L295.861 329.278L297 330L296.333 328.25L296.139 327.722L295 327z"/>
<path style="fill:#3f3f3f; stroke:none;" d="M296 327L297 328L296 327z"/>
<path style="fill:#a1a1a1; stroke:none;" d="M401 327L402 328L401 327z"/>
<path style="fill:#d8d8d8; stroke:none;" d="M402.333 327.667L402.333 328L402.667 328.333L402.667 327.667L402.333 327.667z"/>
<path style="fill:#515151; stroke:none;" d="M433 327L434 328L433 327z"/>
<path style="fill:#1e1e1e; stroke:none;" d="M434.333 327.667L434.333 328.333L434.667 328.333L434.667 327.667L434.333 327.667z"/>
<path style="fill:#888888; stroke:none;" d="M539 327L540 328L539 327z"/>
<path style="fill:#707070; stroke:none;" d="M262 328L263 329L262 328z"/>
<path style="fill:#bfbfbf; stroke:none;" d="M540 328L541 329L540 328z"/>
<path style="fill:#6c6c6c; stroke:none;" d="M158 329L159 330L158 329z"/>
<path style="fill:#323232; stroke:none;" d="M262 329L263 330L262 329z"/>
<path style="fill:#b3b3b3; stroke:none;" d="M263 329L264 330L263 329z"/>
<path style="fill:#636363; stroke:none;" d="M297 329L298 330L297 329z"/>
<path style="fill:#7b7b7b; stroke:none;" d="M402 329L403 330L402 329z"/>
<path style="fill:#797979; stroke:none;" d="M434 329L435 330L434 329z"/>
<path style="fill:#646464; stroke:none;" d="M540 329L541 330L540 329z"/>
<path style="fill:#c5c5c5; stroke:none;" d="M158 330L159 331L158 330z"/>
<path style="fill:#555555; stroke:none;" d="M263 330L264 331L263 330z"/>
<path style="fill:#b8b8b8; stroke:none;" d="M297 330L298 331L297 330z"/>
<path style="fill:#2d2d2d; stroke:none;" d="M298 330L299 331L298 330z"/>
<path style="fill:#bcbcbc; stroke:none;" d="M403 330L404 331L403 330z"/>
<path style="fill:#3a3a3a; stroke:none;" d="M435 330L436 331L435 330z"/>
<path style="fill:#a0a0a0; stroke:none;" d="M541 330L542 331L541 330z"/>
<path style="fill:#7d7d7d; stroke:none;" d="M159 331L160 332L159 331z"/>
<path style="fill:#9c9c9c; stroke:none;" d="M264 331L265 332L264 331z"/>
<path style="fill:#7d7d7d; stroke:none;" d="M298 331L299 332L298 331z"/>
<path style="fill:#686868; stroke:none;" d="M403 331L404 332L403 331z"/>
<path style="fill:#8f8f8f; stroke:none;" d="M435 331L436 332L435 331z"/>
<path style="fill:#4f4f4f; stroke:none;" d="M541 331L542 332L541 331z"/>
<path style="fill:#d2d2d2; stroke:none;" d="M159 332L160 333L159 332z"/>
<path style="fill:#414141; stroke:none;" d="M160 332L161 333L160 332z"/>
<path style="fill:#3f3f3f; stroke:none;" d="M264 332L265 333L264 332z"/>
<path style="fill:#404040; stroke:none;" d="M299 332L300 333L299 332z"/>
<path style="fill:#a7a7a7; stroke:none;" d="M404 332L405 333L404 332z"/>
<path style="fill:#515151; stroke:none;" d="M436 332L437 333L436 332z"/>
<path style="fill:#8b8b8b; stroke:none;" d="M542 332L543 333L542 332z"/>
<path style="fill:#9a9a9a; stroke:none;" d="M160 333L161 334L160 333z"/>
<path style="fill:#8a8a8a; stroke:none;" d="M265 333L266 334L265 333z"/>
<path style="fill:#949494; stroke:none;" d="M299 333L300 334L299 333z"/>
<path style="fill:#535353; stroke:none;" d="M404 333L405 334L404 333z"/>
<path style="fill:#a3a3a3; stroke:none;" d="M436 333L437 334L436 333z"/>
<path style="fill:#353535; stroke:none;" d="M542 333L543 334L542 333z"/>
<path style="fill:#cccccc; stroke:none;" d="M543 333L544 334L543 333z"/>
<path style="fill:#555555; stroke:none;" d="M161 334L162 335L161 334z"/>
<path style="fill:#323232; stroke:none;" d="M265 334L266 335L265 334z"/>
<path style="fill:#b5b5b5; stroke:none;" d="M266 334L267 335L266 334z"/>
<path style="fill:#535353; stroke:none;" d="M300 334L301 335L300 334z"/>
<path style="fill:#8d8d8d; stroke:none;" d="M405 334L406 335L405 334z"/>
<path style="fill:#d4d4d4; stroke:none;" d="M406.333 334.667L406.333 335.333L406.667 335.333L406.667 334.667L406.333 334.667z"/>
<path style="fill:#636363; stroke:none;" d="M437 334L438 335L437 334z"/>
<path style="fill:#1f1f1f; stroke:none;" d="M438.333 334.667L438.333 335.333L438.667 335.333L438.667 334.667L438.333 334.667z"/>
<path style="fill:#777777; stroke:none;" d="M543 334L544 335L543 334z"/>
<path style="fill:#a0a0a0; stroke:none;" d="M161 335L162 336L161 335z"/>
<path style="fill:#7e7e7e; stroke:none;" d="M266 335L267 336L266 335z"/>
<path style="fill:#a5a5a5; stroke:none;" d="M300 335L301 336L300 335z"/>
<path style="fill:#363636; stroke:none;" d="M405 335L406 336L405 335z"/>
<path style="fill:#b6b6b6; stroke:none;" d="M437 335L438 336L437 335z"/>
<path style="fill:#bfbfbf; stroke:none;" d="M544 335L545 336L544 335z"/>
<path style="fill:#626262; stroke:none;" d="M162 336L163 337L162 336z"/>
<path style="fill:#a8a8a8; stroke:none;" d="M267 336L268 337L267 336z"/>
<path style="fill:#777777; stroke:none;" d="M301 336L302 337L301 336z"/>
<path style="fill:#6d6d6d; stroke:none;" d="M406 336L407 337L406 336z"/>
<path style="fill:#898989; stroke:none;" d="M438 336L439 337L438 336z"/>
<path style="fill:#505050; stroke:none;" d="M544 336L545 337L544 336z"/>
<path style="fill:#b5b5b5; stroke:none;" d="M162 337L163 338L162 337z"/>
<path style="fill:#2c2c2c; stroke:none;" d="M163 337L164 338L163 337z"/>
<path style="fill:#5b5b5b; stroke:none;" d="M267 337L268 338L267 337z"/>
<path style="fill:#d2d2d2; stroke:none;" d="M268 337L269 338L268 337z"/>
<path style="fill:#b3b3b3; stroke:none;" d="M301 337L302 338L301 337z"/>
<path style="fill:#3c3c3c; stroke:none;" d="M302 337L303 338L302 337z"/>
<path style="fill:#303030; stroke:none;" d="M406 337L407 338L406 337z"/>
<path style="fill:#b2b2b2; stroke:none;" d="M407 337L408 338L407 337z"/>
<path style="fill:#bebebe; stroke:none;" d="M438 337L439 338L438 337z"/>
<path style="fill:#424242; stroke:none;" d="M439 337L440 338L439 337z"/>
<path style="fill:#989898; stroke:none;" d="M545 337L546 338L545 337z"/>
<path style="fill:#767676; stroke:none;" d="M163 338L164 339L163 338z"/>
<path style="fill:#8c8c8c; stroke:none;" d="M268 338L269 339L268 338z"/>
<path style="fill:#8f8f8f; stroke:none;" d="M302 338L303 339L302 338z"/>
<path style="fill:#545454; stroke:none;" d="M407 338L408 339L407 338z"/>
<path style="fill:#989898; stroke:none;" d="M439 338L440 339L439 338z"/>
<path style="fill:#434343; stroke:none;" d="M545 338L546 339L545 338z"/>
<path style="fill:#d1d1d1; stroke:none;" d="M546 338L547 339L546 338z"/>
<path style="fill:#3c3c3c; stroke:none;" d="M164 339L165 340L164 339z"/>
<path style="fill:#444444; stroke:none;" d="M268 339L269 340L268 339z"/>
<path style="fill:#cbcbcb; stroke:none;" d="M269 339L270 340L269 339z"/>
<path style="fill:#3b3b3b; stroke:none;" d="M303 339L304 340L303 339z"/>
<path style="fill:#9d9d9d; stroke:none;" d="M408 339L409 340L408 339z"/>
<path style="fill:#4f4f4f; stroke:none;" d="M440 339L441 340L440 339z"/>
<path style="fill:#818181; stroke:none;" d="M546 339L547 340L546 339z"/>
<path style="fill:#8a8a8a; stroke:none;" d="M164 340L165 341L164 340z"/>
<path style="fill:#717171; stroke:none;" d="M269 340L270 341L269 340z"/>
<path style="fill:#959595; stroke:none;" d="M303 340L304 341L303 340z"/>
<path style="fill:#3e3e3e; stroke:none;" d="M408 340L409 341L408 340z"/>
<path style="fill:#cbcbcb; stroke:none;" d="M409 340L410 341L409 340z"/>
<path style="fill:#a5a5a5; stroke:none;" d="M440 340L441 341L440 340z"/>
<path style="fill:#bbbbbb; stroke:none;" d="M547 340L548 341L547 340z"/>
<path style="fill:#515151; stroke:none;" d="M165 341L166 342L165 341z"/>
<path style="fill:#b5b5b5; stroke:none;" d="M270 341L271 342L270 341z"/>
<path style="fill:#5d5d5d; stroke:none;" d="M304 341L305 342L304 341z"/>
<path style="fill:#888888; stroke:none;" d="M409 341L410 342L409 341z"/>
<path style="fill:#575757; stroke:none;" d="M441 341L442 342L441 341z"/>
<path style="fill:#6a6a6a; stroke:none;" d="M547 341L548 342L547 341z"/>
<path style="fill:#a1a1a1; stroke:none;" d="M165 342L166 343L165 342z"/>
<path style="fill:#5f5f5f; stroke:none;" d="M270 342L271 343L270 342z"/>
<path style="fill:#cfcfcf; stroke:none;" d="M271 342L272 343L271 342z"/>
<path style="fill:#b2b2b2; stroke:none;" d="M304 342L305 343L304 342z"/>
<path style="fill:#323232; stroke:none;" d="M305 342L306 343L305 342z"/>
<path style="fill:#3a3a3a; stroke:none;" d="M409 342L410 343L409 342z"/>
<path style="fill:#b6b6b6; stroke:none;" d="M410 342L411 343L410 342z"/>
<path style="fill:#b4b4b4; stroke:none;" d="M441 342L442 343L441 342z"/>
<path style="fill:#424242; stroke:none;" d="M442 342L443 343L442 342z"/>
<path style="fill:#acacac; stroke:none;" d="M548 342L549 343L548 342z"/>
<path style="fill:#606060; stroke:none;" d="M166 343L167 344L166 343z"/>
<path style="fill:#9d9d9d; stroke:none;" d="M271 343L272 344L271 343z"/>
<path style="fill:#717171; stroke:none;" d="M305 343L306 344L305 343z"/>
<path style="fill:#707070; stroke:none;" d="M410 343L411 344L410 343z"/>
<path style="fill:#6d6d6d; stroke:none;" d="M442 343L443 344L442 343z"/>
<path style="fill:#575757; stroke:none;" d="M548 343L549 344L548 343z"/>
<path style="fill:#b4b4b4; stroke:none;" d="M166 344L167 345L166 344z"/>
<path style="fill:#a7a7a7; stroke:none;" d="M411 344L412 345L411 344z"/>
<path style="fill:#414141; stroke:none;" d="M443 344L444 345L443 344z"/>
<path style="fill:#878787; stroke:none;" d="M549 344L550 345L549 344z"/>
<path style="fill:#747474; stroke:none;" d="M167 345L168 346L167 345z"/>
<path style="fill:#7f7f7f; stroke:none;" d="M272 345L273 346L272 345z"/>
<path style="fill:#979797; stroke:none;" d="M306 345L307 346L306 345z"/>
<path style="fill:#5b5b5b; stroke:none;" d="M411 345L412 346L411 345z"/>
<path style="fill:#939393; stroke:none;" d="M443 345L444 346L443 345z"/>
<path style="fill:#414141; stroke:none;" d="M549 345L550 346L549 345z"/>
<path style="fill:#c8c8c8; stroke:none;" d="M550 345L551 346L550 345z"/>
<path style="fill:#c2c2c2; stroke:none;" d="M273 346L274 347L273 346z"/>
<path style="fill:#434343; stroke:none;" d="M307 346L308 347L307 346z"/>
<path style="fill:#8f8f8f; stroke:none;" d="M412 346L413 347L412 346z"/>
<path style="fill:#424242; stroke:none;" d="M444 346L445 347L444 346z"/>
<path style="fill:#777777; stroke:none;" d="M550 346L551 347L550 346z"/>
<path style="fill:#858585; stroke:none;" d="M168 347L169 348L168 347z"/>
<path style="fill:#6d6d6d; stroke:none;" d="M273 347L274 348L273 347z"/>
<path style="fill:#ababab; stroke:none;" d="M307 347L308 348L307 347z"/>
<path style="fill:#464646; stroke:none;" d="M412 347L413 348L412 347z"/>
<path style="fill:#cdcdcd; stroke:none;" d="M413 347L414 348L413 347z"/>
<path style="fill:#aaaaaa; stroke:none;" d="M444 347L445 348L444 347z"/>
<path style="fill:#bebebe; stroke:none;" d="M551 347L552 348L551 347z"/>
<path style="fill:#464646; stroke:none;" d="M169 348L170 349L169 348z"/>
<path style="fill:#959595; stroke:none;" d="M274 348L275 349L274 348z"/>
<path style="fill:#606060; stroke:none;" d="M308 348L309 349L308 348z"/>
<path style="fill:#747474; stroke:none;" d="M413 348L414 349L413 348z"/>
<path style="fill:#5f5f5f; stroke:none;" d="M445 348L446 349L445 348z"/>
<path style="fill:#646464; stroke:none;" d="M551 348L552 349L551 348z"/>
<path style="fill:#a1a1a1; stroke:none;" d="M169 349L170 350L169 349z"/>
<path style="fill:#515151; stroke:none;" d="M274 349L275 350L274 349z"/>
<path style="fill:#bababa; stroke:none;" d="M308 349L309 350L308 349z"/>
<path style="fill:#313131; stroke:none;" d="M309 349L310 350L309 349z"/>
<path style="fill:#bcbcbc; stroke:none;" d="M414 349L415 350L414 349z"/>
<path style="fill:#c7c7c7; stroke:none;" d="M445 349L446 350L445 349z"/>
<path style="fill:#a4a4a4; stroke:none;" d="M552 349L553 350L552 349z"/>
<path style="fill:#5a5a5a; stroke:none;" d="M170 350L171 351L170 350z"/>
<path style="fill:#858585; stroke:none;" d="M275 350L276 351L275 350z"/>
<path style="fill:#d6d6d6; stroke:none;" d="M276.333 350.667L276.333 351.333L276.667 351.333L276.667 350.667L276.333 350.667z"/>
<path style="fill:#818181; stroke:none;" d="M309 350L310 351L309 350z"/>
<path style="fill:#696969; stroke:none;" d="M414 350L415 351L414 350z"/>
<path style="fill:#767676; stroke:none;" d="M446 350L447 351L446 350z"/>
<path style="fill:#4c4c4c; stroke:none;" d="M552 350L553 351L552 350z"/>
<path style="fill:#c9c9c9; stroke:none;" d="M553 350L554 351L553 350z"/>
<path style="fill:#a7a7a7; stroke:none;" d="M170 351L171 352L170 351z"/>
<path style="fill:#0b0b0b; stroke:none;" d="M271 351L271 352L273 352L271.5 352.722L270.944 352.75L269.944 352.944L269 352.972L267 353L265 353L261 353L242 353L176 353L176.778 353.722L177.306 353.75L178.111 353.944L179.028 353.972L181 354L182 354L185 354L205 354L277 354L276 352L276 351L275 351L274 353L273.639 351.861L273.333 351.667L272.389 351.111L271 351z"/>
<path style="fill:#3d3d3d; stroke:none;" d="M310 351L311 352L310 351z"/>
<path style="fill:#a7a7a7; stroke:none;" d="M415 351L416 352L415 351z"/>
<path style="fill:#c9c9c9; stroke:none;" d="M446 351L447 352L446 351z"/>
<path style="fill:#3a3a3a; stroke:none;" d="M447 351L448 352L447 351z"/>
<path style="fill:#8c8c8c; stroke:none;" d="M553 351L554 352L553 351z"/>
<path style="fill:#6a6a6a; stroke:none;" d="M171 352L172 353L171 352M276 352L277 353L276 352z"/>
<path style="fill:#9d9d9d; stroke:none;" d="M310 352L311 353L310 352z"/>
<path style="fill:#9c9c9c; stroke:none;" d="M447 352L448 353L447 352z"/>
<path style="fill:#0b0b0b; stroke:none;" d="M553 352L551.5 352.722L550.944 352.75L549.944 352.944L549 352.972L547 353L545 353L541 353L534 353L520 353L519 353L518 353L449 353L449.778 353.722L450.306 353.75L451.111 353.944L452.028 353.972L454 354L455 354L457 354L472 354L529 354L534 354L542 354L546 354L548 354L550 354L551.889 353.889L553.222 353.389L553.611 352.667L553 352z"/>
<path style="fill:#bababa; stroke:none;" d="M554 352L555 353L554 352z"/>
<path style="fill:#b6b6b6; stroke:none;" d="M171 353L172 354L171 353z"/>
<path style="fill:#3d3d3d; stroke:none;" d="M172 353L173 354L172 353z"/>
<path style="fill:#c4c4c4; stroke:none;" d="M277.333 353.667L277.333 354.333L277.667 354.333L277.667 353.667L277.333 353.667z"/>
<path style="fill:#585858; stroke:none;" d="M311 353L312 354L311 353z"/>
<path style="fill:#0b0b0b; stroke:none;" d="M312 353L312.778 353.722L313.306 353.75L314.111 353.944L315.028 353.972L317 354L318 354L321 354L340 354L410 354L409.222 353.278L408.694 353.25L407.889 353.056L406.972 353.028L405 353L404 353L401 353L382 353L312 353z"/>
<path style="fill:#8d8d8d; stroke:none;" d="M416 353L417 354L416 353z"/>
<path style="fill:#c9c9c9; stroke:none;" d="M447 353L448 354L447 353z"/>
<path style="fill:#626262; stroke:none;" d="M448 353L449 354L448 353z"/>
<path style="fill:#747474; stroke:none;" d="M554 353L555 354L554 353z"/>
<path style="fill:#9a9a9a; stroke:none;" d="M172 354L172.778 354.722L173.306 354.75L174.111 354.944L175.028 354.972L177 355L179 355L182 355L202 355L277 355L276.222 354.278L275.694 354.25L274.889 354.056L273.972 354.028L272 354L270 354L267 354L247 354L172 354z"/>
<path style="fill:#c2c2c2; stroke:none;" d="M311 354L312 355L311 354z"/>
<path style="fill:#9a9a9a; stroke:none;" d="M312 354L312.778 354.722L313.306 354.75L314.111 354.944L315.028 354.972L317 355L318 355L321 355L341 355L416 355L415.222 354.278L414.694 354.25L413.889 354.056L412.972 354.028L411 354L410 354L407 354L387 354L312 354z"/>
<path style="fill:#c2c2c2; stroke:none;" d="M416 354L417 355L416 354z"/>
<path style="fill:#c5c5c5; stroke:none;" d="M448 354L449 355L448 354z"/>
<path style="fill:#9a9a9a; stroke:none;" d="M449 354L449.778 354.722L450.306 354.75L451.111 354.944L452.028 354.972L454 355L456 355L459 355L479 355L551.944 355L555 355L554.222 354.278L553.694 354.25L552.889 354.056L551.972 354.028L550 354L548 354L545 354L525 354L520 354L519 354L518 354L449 354z"/>
</svg>
