<?xml version="1.0" standalone="yes"?>
<svg xmlns="http://www.w3.org/2000/svg" width="595" height="500">
<path style="fill:#ffffff; stroke:none;" d="M0 0L0 500L478 500L536 500L548 500L561 500L562 500L563 500L567 500L572 500L574 500L579 500L591 500L595 500L595 487L595 454L595 420L595 406L595 388L595 377L595 361L595 345L595 344L595 335L595 329L595 316L595 315L595 0L575 0L562 0L558 0L551 0L546 0L538 0L537 0L520 0L516 0L496 0L495 0L485 0L481 0L426 0L381 0L328 0L0 0z"/>
<path style="fill:#bebebe; stroke:none;" d="M364 119L365 120L364 119z"/>
<path style="fill:#515151; stroke:none;" d="M365 119L366 120L365 119z"/>
<path style="fill:#8e8e8e; stroke:none;" d="M366 119L367 120L366 119z"/>
<path style="fill:#b6b6b6; stroke:none;" d="M367.333 119.667L367.333 120L367.667 120.333L367.667 119.667L367.333 119.667z"/>
<path style="fill:#c8c8c8; stroke:none;" d="M362 120L363 121L362 120z"/>
<path style="fill:#6f6f6f; stroke:none;" d="M363 120L364 121L363 120z"/>
<path style="fill:#000000; stroke:none;" d="M289 164L289.278 165.5L289.917 167.056L290.417 168L291.611 170L292.194 171L292.806 172L293.944 174L294.472 175L295.528 177L296.056 178L296.639 179L297.194 180L298.389 182L299.611 184L300.75 186L301.25 187L302.389 189L303.611 191L304.75 193L305.222 194L305.778 195L306.25 196L307.389 198L308.611 200L309.75 202L310.25 203L311.389 205L312.611 207L313.194 208L314.389 210L315.583 212L316.611 214L317.056 215L318.083 217L318.694 218L320 219.917L321.306 221.611L321.917 222.389L322.444 223.222L323.361 225.028L323.833 226L324.278 227L325.361 229L325.944 230L326.472 231L327.528 233L328.056 234L328.639 235L329.75 237L330.25 238L331.389 240L332.028 241L332.667 242L333.972 244L334.611 245L335.75 247L336.222 248L336.778 249L337.222 250L337.778 251L338.25 252L338.833 253L339.389 254L340.611 256L341.194 257L342.389 259L343.611 261L344.75 263L345.25 264L345.833 265L347 267L348.194 268.917L349.361 270.611L350.444 272.222L350.944 273.083L351.833 274.972L352.278 275.917L353.361 277.611L353.944 278.389L354.944 280.083L355.361 281.028L356.278 283L357.389 285L358.611 287L359.75 289L360.222 290L361.25 292L362.389 294L363.611 296L364.75 298L365.25 299L366.389 301L367.611 303L368.75 305L369.25 306L370.389 308L371.611 310L372.75 312L373.25 313L374.389 315L375.611 317L376.806 319L377.389 320L378.611 322L379.75 323.972L380.25 324.917L380.833 325.778L381.361 326.611L382.444 328.222L382.944 329.083L383.833 330.972L384.278 331.917L385.361 333.611L386.444 335.222L386.944 336.083L387.833 338L388.278 339L389.389 341L390.611 343L391.167 344L391.75 345L392.778 347L393.25 348L393.833 349L394.944 350.944L395.306 351.5L396 353L501 353L500.722 351.5L500.139 349.944L499.722 349L498.611 347L497.389 345L496.25 343L495.75 342L494.611 340L493.389 338L492.194 336L491.611 335L490.389 333L489.25 331L488.75 330L487.611 328L486.389 326L485.806 325L484.611 323L483.389 321L482.25 319L481.222 317.028L480.75 316.083L479.639 314.389L479.056 313.611L478.056 311.917L477.611 310.972L476.583 309L475.389 307L474.194 305L473.611 304L472.389 302L471.806 301L470.611 299L469.389 297L468.25 295L467.222 293.028L466.75 292.083L465.639 290.389L465.056 289.611L464 287.917L462.944 286L461.833 284L461.25 283L460.75 282L459.611 280L458.389 278L457.833 277L457.25 276L456.222 274L455.75 273L454.611 271L453.389 269L452.25 267L451.75 266L450.556 264L449.167 262L448.444 261L447.25 259L446.778 258L446.222 257L445.75 256L444.611 254L443.972 253L442.667 251L442.028 250L441.389 249L440.25 247L439.778 246L439.222 245L438.778 244L438.222 243L437.75 242L436.611 240L435.972 239L435.333 238L434.667 237L433.389 235L432.806 234L431.611 232L430.389 230L429.806 229L428.611 227L427.389 225L426.25 223L425.778 222L424.75 220L423.611 218L422.389 216L421.194 214L420.611 213L419.389 211L418.25 209L417.75 208L417.167 207L416.056 205L415.528 204L415 203L413.917 201L412.667 199L412.028 198L411.389 197L410.25 195L409.75 194L408.611 192L407.389 190L406.194 188L405.611 187L404.389 185L403.194 183L402.611 182L401.389 180L400.806 179L399.611 177L398.389 175L397.25 173L396.778 172L396.222 171L395.75 170L395.167 169L394.611 168L393.389 166L392.806 165L391.611 163L390.389 161L389.25 159L388.75 158L387.611 156L386.389 154L385.25 152L384.75 151L383.611 149L382.389 147L381.194 145L380.611 144L379.389 142L378.806 141L377.611 139L376.389 137L375.25 135L374.75 134L373.556 132L372.861 131L371.611 129L370.611 127L369.583 125L368.417 123.056L367.889 122.056L367.528 121.5L367 120L365.5 120.111L363.944 120.639L362 121.639L361 122.167L360 122.75L359 123.25L357 124.389L355 125.611L353 126.75L352 127.222L351 127.778L350 128.25L348 129.389L347 130.028L345 131.333L343 132.611L341 133.75L340 134.25L338 135.389L336 136.611L335 137.167L334 137.75L332 138.778L331 139.25L329 140.389L327 141.611L325 142.75L324 143.25L322 144.389L320 145.611L318 146.806L317 147.389L315 148.611L314 149.194L312 150.389L310 151.611L308 152.75L307 153.222L306 153.778L305 154.222L303 155.25L302 155.833L301 156.389L299 157.611L297 158.806L296 159.389L294 160.667L293 161.333L292.056 161.944L291.056 162.611L290.5 162.944L289 164z"/>
<path style="fill:#cfcfcf; stroke:none;" d="M360 121L361 122L360 121z"/>
<path style="fill:#808080; stroke:none;" d="M361 121L362 122L361 121z"/>
<path style="fill:#353535; stroke:none;" d="M362 121L363 122L362 121z"/>
<path style="fill:#606060; stroke:none;" d="M367 121L368 122L367 121z"/>
<path style="fill:#969696; stroke:none;" d="M359 122L360 123L359 122z"/>
<path style="fill:#4f4f4f; stroke:none;" d="M360 122L361 123L360 122z"/>
<path style="fill:#a4a4a4; stroke:none;" d="M368 122L369 123L368 122z"/>
<path style="fill:#acacac; stroke:none;" d="M357 123L358 124L357 123z"/>
<path style="fill:#646464; stroke:none;" d="M358 123L359 124L358 123z"/>
<path style="fill:#3e3e3e; stroke:none;" d="M368 123L369 124L368 123z"/>
<path style="fill:#c1c1c1; stroke:none;" d="M355 124L356 125L355 124z"/>
<path style="fill:#868686; stroke:none;" d="M356 124L357 125L356 124z"/>
<path style="fill:#8a8a8a; stroke:none;" d="M369 124L370 125L369 124z"/>
<path style="fill:#949494; stroke:none;" d="M354 125L355 126L354 125z"/>
<path style="fill:#393939; stroke:none;" d="M355 125L356 126L355 125z"/>
<path style="fill:#c4c4c4; stroke:none;" d="M370 125L371 126L370 125z"/>
<path style="fill:#aaaaaa; stroke:none;" d="M352 126L353 127L352 126z"/>
<path style="fill:#505050; stroke:none;" d="M353 126L354 127L353 126z"/>
<path style="fill:#707070; stroke:none;" d="M370 126L371 127L370 126z"/>
<path style="fill:#bababa; stroke:none;" d="M350 127L351 128L350 127z"/>
<path style="fill:#616161; stroke:none;" d="M351 127L352 128L351 127z"/>
<path style="fill:#a1a1a1; stroke:none;" d="M371 127L372 128L371 127z"/>
<path style="fill:#676767; stroke:none;" d="M349 128L350 129L349 128z"/>
<path style="fill:#232323; stroke:none;" d="M371.333 128.667L371.333 129L371.667 129.333L371.667 128.667L371.333 128.667z"/>
<path style="fill:#8f8f8f; stroke:none;" d="M347 129L348 130L347 129z"/>
<path style="fill:#929292; stroke:none;" d="M372 129L373 130L372 129z"/>
<path style="fill:#a3a3a3; stroke:none;" d="M345 130L346 131L345 130z"/>
<path style="fill:#474747; stroke:none;" d="M346 130L347 131L346 130z"/>
<path style="fill:#353535; stroke:none;" d="M372 130L373 131L372 130z"/>
<path style="fill:#c8c8c8; stroke:none;" d="M373 130L374 131L373 130z"/>
<path style="fill:#b3b3b3; stroke:none;" d="M343 131L344 132L343 131z"/>
<path style="fill:#666666; stroke:none;" d="M344 131L345 132L344 131z"/>
<path style="fill:#7a7a7a; stroke:none;" d="M373 131L374 132L373 131z"/>
<path style="fill:#c4c4c4; stroke:none;" d="M341 132L342 133L341 132z"/>
<path style="fill:#808080; stroke:none;" d="M342 132L343 133L342 132z"/>
<path style="fill:#2d2d2d; stroke:none;" d="M343 132L344 133L343 132z"/>
<path style="fill:#a9a9a9; stroke:none;" d="M374 132L375 133L374 132z"/>
<path style="fill:#d2d2d2; stroke:none;" d="M339 133L340 134L339 133z"/>
<path style="fill:#9b9b9b; stroke:none;" d="M340 133L341 134L340 133z"/>
<path style="fill:#414141; stroke:none;" d="M341 133L342 134L341 133z"/>
<path style="fill:#616161; stroke:none;" d="M374 133L375 134L374 133z"/>
<path style="fill:#b0b0b0; stroke:none;" d="M338 134L339 135L338 134z"/>
<path style="fill:#5a5a5a; stroke:none;" d="M339 134L340 135L339 134z"/>
<path style="fill:#959595; stroke:none;" d="M375 134L376 135L375 134z"/>
<path style="fill:#c3c3c3; stroke:none;" d="M336 135L337 136L336 135z"/>
<path style="fill:#6a6a6a; stroke:none;" d="M337 135L338 136L337 135z"/>
<path style="fill:#444444; stroke:none;" d="M375 135L376 136L375 135z"/>
<path style="fill:#d1d1d1; stroke:none;" d="M334 136L335 137L334 136z"/>
<path style="fill:#808080; stroke:none;" d="M335 136L336 137L335 136z"/>
<path style="fill:#2e2e2e; stroke:none;" d="M336 136L337 137L336 136z"/>
<path style="fill:#878787; stroke:none;" d="M376 136L377 137L376 136z"/>
<path style="fill:#929292; stroke:none;" d="M333 137L334 138L333 137z"/>
<path style="fill:#4c4c4c; stroke:none;" d="M334 137L335 138L334 137z"/>
<path style="fill:#383838; stroke:none;" d="M376 137L377 138L376 137z"/>
<path style="fill:#c0c0c0; stroke:none;" d="M377 137L378 138L377 137z"/>
<path style="fill:#a2a2a2; stroke:none;" d="M331 138L332 139L331 138z"/>
<path style="fill:#5a5a5a; stroke:none;" d="M332 138L333 139L332 138z"/>
<path style="fill:#6e6e6e; stroke:none;" d="M377 138L378 139L377 138z"/>
<path style="fill:#bfbfbf; stroke:none;" d="M329 139L330 140L329 139z"/>
<path style="fill:#6c6c6c; stroke:none;" d="M330 139L331 140L330 139z"/>
<path style="fill:#adadad; stroke:none;" d="M378 139L379 140L378 139z"/>
<path style="fill:#848484; stroke:none;" d="M328 140L329 141L328 140z"/>
<path style="fill:#545454; stroke:none;" d="M378 140L379 141L378 140z"/>
<path style="fill:#9b9b9b; stroke:none;" d="M326 141L327 142L326 141z"/>
<path style="fill:#494949; stroke:none;" d="M327 141L328 142L327 141z"/>
<path style="fill:#919191; stroke:none;" d="M379 141L380 142L379 141z"/>
<path style="fill:#c6c6c6; stroke:none;" d="M324 142L325 143L324 142z"/>
<path style="fill:#5e5e5e; stroke:none;" d="M325 142L326 143L325 142z"/>
<path style="fill:#444444; stroke:none;" d="M379 142L380 143L379 142z"/>
<path style="fill:#c7c7c7; stroke:none;" d="M380 142L381 143L380 142z"/>
<path style="fill:#c8c8c8; stroke:none;" d="M322 143L323 144L322 143z"/>
<path style="fill:#6f6f6f; stroke:none;" d="M323 143L324 144L323 143z"/>
<path style="fill:#757575; stroke:none;" d="M380 143L381 144L380 143z"/>
<path style="fill:#868686; stroke:none;" d="M321 144L322 145L321 144z"/>
<path style="fill:#c5c5c5; stroke:none;" d="M381 144L382 145L381 144z"/>
<path style="fill:#929292; stroke:none;" d="M319 145L320 146L319 145z"/>
<path style="fill:#515151; stroke:none;" d="M320 145L321 146L320 145z"/>
<path style="fill:#646464; stroke:none;" d="M381 145L382 146L381 145z"/>
<path style="fill:#aeaeae; stroke:none;" d="M317 146L318 147L317 146z"/>
<path style="fill:#6e6e6e; stroke:none;" d="M318 146L319 147L318 146z"/>
<path style="fill:#afafaf; stroke:none;" d="M382 146L383 147L382 146z"/>
<path style="fill:#c8c8c8; stroke:none;" d="M315 147L316 148L315 147z"/>
<path style="fill:#7c7c7c; stroke:none;" d="M316 147L317 148L316 147z"/>
<path style="fill:#545454; stroke:none;" d="M382 147L383 148L382 147z"/>
<path style="fill:#959595; stroke:none;" d="M314 148L315 149L314 148z"/>
<path style="fill:#444444; stroke:none;" d="M315 148L316 149L315 148z"/>
<path style="fill:#929292; stroke:none;" d="M383 148L384 149L383 148z"/>
<path style="fill:#ababab; stroke:none;" d="M312 149L313 150L312 149z"/>
<path style="fill:#505050; stroke:none;" d="M313 149L314 150L313 149z"/>
<path style="fill:#cbcbcb; stroke:none;" d="M384 149L385 150L384 149z"/>
<path style="fill:#b6b6b6; stroke:none;" d="M310 150L311 151L310 150z"/>
<path style="fill:#6d6d6d; stroke:none;" d="M311 150L312 151L311 150z"/>
<path style="fill:#797979; stroke:none;" d="M384 150L385 151L384 150z"/>
<path style="fill:#7c7c7c; stroke:none;" d="M309 151L310 152L309 151z"/>
<path style="fill:#333333; stroke:none;" d="M310 151L311 152L310 151z"/>
<path style="fill:#bebebe; stroke:none;" d="M385 151L386 152L385 151z"/>
<path style="fill:#949494; stroke:none;" d="M307 152L308 153L307 152z"/>
<path style="fill:#414141; stroke:none;" d="M308 152L309 153L308 152z"/>
<path style="fill:#4e4e4e; stroke:none;" d="M385 152L386 153L385 152z"/>
<path style="fill:#b1b1b1; stroke:none;" d="M305 153L306 154L305 153z"/>
<path style="fill:#565656; stroke:none;" d="M306 153L307 154L306 153z"/>
<path style="fill:#999999; stroke:none;" d="M386 153L387 154L386 153z"/>
<path style="fill:#b9b9b9; stroke:none;" d="M303 154L304 155L303 154z"/>
<path style="fill:#5d5d5d; stroke:none;" d="M304 154L305 155L304 154z"/>
<path style="fill:#424242; stroke:none;" d="M386 154L387 155L386 154z"/>
<path style="fill:#cecece; stroke:none;" d="M387 154L388 155L387 154z"/>
<path style="fill:#cdcdcd; stroke:none;" d="M301 155L302 156L301 155z"/>
<path style="fill:#818181; stroke:none;" d="M302 155L303 156L302 155z"/>
<path style="fill:#808080; stroke:none;" d="M387 155L388 156L387 155z"/>
<path style="fill:#aaaaaa; stroke:none;" d="M299.667 156.333L299.667 156.667L300.333 156.667L300.333 156.333L299.667 156.333z"/>
<path style="fill:#bebebe; stroke:none;" d="M388 156L389 157L388 156z"/>
<path style="fill:#afafaf; stroke:none;" d="M298 157L299 158L298 157z"/>
<path style="fill:#5b5b5b; stroke:none;" d="M299 157L300 158L299 157z"/>
<path style="fill:#636363; stroke:none;" d="M388 157L389 158L388 157z"/>
<path style="fill:#c6c6c6; stroke:none;" d="M296 158L297 159L296 158z"/>
<path style="fill:#747474; stroke:none;" d="M297 158L298 159L297 158z"/>
<path style="fill:#a9a9a9; stroke:none;" d="M389 158L390 159L389 158z"/>
<path style="fill:#d0d0d0; stroke:none;" d="M294 159L295 160L294 159z"/>
<path style="fill:#7f7f7f; stroke:none;" d="M295 159L296 160L295 159z"/>
<path style="fill:#4b4b4b; stroke:none;" d="M389 159L390 160L389 159z"/>
<path style="fill:#999999; stroke:none;" d="M293 160L294 161L293 160z"/>
<path style="fill:#525252; stroke:none;" d="M294 160L295 161L294 160z"/>
<path style="fill:#8c8c8c; stroke:none;" d="M390 160L391 161L390 160z"/>
<path style="fill:#b2b2b2; stroke:none;" d="M291 161L292 162L291 161z"/>
<path style="fill:#535353; stroke:none;" d="M292 161L293 162L292 161z"/>
<path style="fill:#3a3a3a; stroke:none;" d="M390 161L391 162L390 161z"/>
<path style="fill:#cacaca; stroke:none;" d="M391 161L392 162L391 161z"/>
<path style="fill:#bebebe; stroke:none;" d="M289 162L290 163L289 162z"/>
<path style="fill:#7c7c7c; stroke:none;" d="M290 162L291 163L290 162z"/>
<path style="fill:#2e2e2e; stroke:none;" d="M291 162L292 163L291 162z"/>
<path style="fill:#797979; stroke:none;" d="M391 162L392 163L391 162z"/>
<path style="fill:#9c9c9c; stroke:none;" d="M288 163L289 164L288 163z"/>
<path style="fill:#363636; stroke:none;" d="M289 163L290 164L289 163z"/>
<path style="fill:#b5b5b5; stroke:none;" d="M392 163L393 164L392 163z"/>
<path style="fill:#494949; stroke:none;" d="M288 164L289 165L288 164z"/>
<path style="fill:#626262; stroke:none;" d="M392 164L393 165L392 164z"/>
<path style="fill:#777777; stroke:none;" d="M288 165L289 166L288 165z"/>
<path style="fill:#989898; stroke:none;" d="M393 165L394 166L393 165z"/>
<path style="fill:#626262; stroke:none;" d="M289 166L290 167L289 166z"/>
<path style="fill:#494949; stroke:none;" d="M393 166L394 167L393 166z"/>
<path style="fill:#999999; stroke:none;" d="M289 167L290 168L289 167z"/>
<path style="fill:#858585; stroke:none;" d="M394 167L395 168L394 167z"/>
<path style="fill:#696969; stroke:none;" d="M290 168L291 169L290 168z"/>
<path style="fill:#c6c6c6; stroke:none;" d="M395 168L396 169L395 168z"/>
<path style="fill:#a3a3a3; stroke:none;" d="M290 169L291 170L290 169z"/>
<path style="fill:#303030; stroke:none;" d="M291 169L292 170L291 169z"/>
<path style="fill:#6c6c6c; stroke:none;" d="M395 169L396 170L395 169z"/>
<path style="fill:#7b7b7b; stroke:none;" d="M291 170L292 171L291 170z"/>
<path style="fill:#b1b1b1; stroke:none;" d="M396 170L397 171L396 170z"/>
<path style="fill:#bdbdbd; stroke:none;" d="M291 171L292 172L291 171z"/>
<path style="fill:#373737; stroke:none;" d="M292 171L293 172L292 171z"/>
<path style="fill:#575757; stroke:none;" d="M396 171L397 172L396 171z"/>
<path style="fill:#8a8a8a; stroke:none;" d="M292 172L293 173L292 172z"/>
<path style="fill:#949494; stroke:none;" d="M397 172L398 173L397 172z"/>
<path style="fill:#444444; stroke:none;" d="M293 173L294 174L293 173z"/>
<path style="fill:#3f3f3f; stroke:none;" d="M397 173L398 174L397 173z"/>
<path style="fill:#cacaca; stroke:none;" d="M398 173L399 174L398 173z"/>
<path style="fill:#a0a0a0; stroke:none;" d="M293 174L294 175L293 174z"/>
<path style="fill:#585858; stroke:none;" d="M294.333 174.667L294.333 175L294.667 175.333L294.667 174.667L294.333 174.667z"/>
<path style="fill:#767676; stroke:none;" d="M398 174L399 175L398 174z"/>
<path style="fill:#323232; stroke:none;" d="M398 175L399 176L398 175z"/>
<path style="fill:#bababa; stroke:none;" d="M399 175L400 176L399 175z"/>
<path style="fill:#b9b9b9; stroke:none;" d="M294 176L295 177L294 176z"/>
<path style="fill:#646464; stroke:none;" d="M399 176L400 177L399 176z"/>
<path style="fill:#818181; stroke:none;" d="M295 177L296 178L295 177z"/>
<path style="fill:#9b9b9b; stroke:none;" d="M400 177L401 178L400 177z"/>
<path style="fill:#363636; stroke:none;" d="M296 178L297 179L296 178z"/>
<path style="fill:#474747; stroke:none;" d="M400 178L401 179L400 178z"/>
<path style="fill:#9b9b9b; stroke:none;" d="M296 179L297 180L296 179z"/>
<path style="fill:#8e8e8e; stroke:none;" d="M401 179L402 180L401 179z"/>
<path style="fill:#494949; stroke:none;" d="M297 180L298 181L297 180z"/>
<path style="fill:#343434; stroke:none;" d="M401 180L402 181L401 180z"/>
<path style="fill:#bdbdbd; stroke:none;" d="M402 180L403 181L402 180z"/>
<path style="fill:#b3b3b3; stroke:none;" d="M297 181L298 182L297 181z"/>
<path style="fill:#666666; stroke:none;" d="M402 181L403 182L402 181z"/>
<path style="fill:#676767; stroke:none;" d="M298 182L299 183L298 182z"/>
<path style="fill:#a9a9a9; stroke:none;" d="M403 182L404 183L403 182z"/>
<path style="fill:#bababa; stroke:none;" d="M298 183L299 184L298 183z"/>
<path style="fill:#2e2e2e; stroke:none;" d="M299 183L300 184L299 183z"/>
<path style="fill:#474747; stroke:none;" d="M403 183L404 184L403 183z"/>
<path style="fill:#8d8d8d; stroke:none;" d="M299 184L300 185L299 184z"/>
<path style="fill:#919191; stroke:none;" d="M404 184L405 185L404 184z"/>
<path style="fill:#b9b9b9; stroke:none;" d="M299 185L300 186L299 185z"/>
<path style="fill:#464646; stroke:none;" d="M300 185L301 186L300 185z"/>
<path style="fill:#494949; stroke:none;" d="M404 185L405 186L404 185z"/>
<path style="fill:#d0d0d0; stroke:none;" d="M405 185L406 186L405 185z"/>
<path style="fill:#a3a3a3; stroke:none;" d="M300 186L301 187L300 186z"/>
<path style="fill:#808080; stroke:none;" d="M405 186L406 187L405 186z"/>
<path style="fill:#4c4c4c; stroke:none;" d="M301 187L302 188L301 187z"/>
<path style="fill:#c1c1c1; stroke:none;" d="M406 187L407 188L406 187z"/>
<path style="fill:#adadad; stroke:none;" d="M301 188L302 189L301 188z"/>
<path style="fill:#6c6c6c; stroke:none;" d="M406 188L407 189L406 188z"/>
<path style="fill:#5a5a5a; stroke:none;" d="M302 189L303 190L302 189z"/>
<path style="fill:#a0a0a0; stroke:none;" d="M407 189L408 190L407 189z"/>
<path style="fill:#b5b5b5; stroke:none;" d="M302 190L303 191L302 190z"/>
<path style="fill:#3a3a3a; stroke:none;" d="M303 190L304 191L303 190z"/>
<path style="fill:#4b4b4b; stroke:none;" d="M407 190L408 191L407 190z"/>
<path style="fill:#c7c7c7; stroke:none;" d="M408 190L409 191L408 190z"/>
<path style="fill:#6c6c6c; stroke:none;" d="M303 191L304 192L303 191z"/>
<path style="fill:#8d8d8d; stroke:none;" d="M408 191L409 192L408 191z"/>
<path style="fill:#e6e6e6; stroke:none;" d="M303.333 192.667L303.333 193.333L303.667 193.333L303.667 192.667L303.333 192.667z"/>
<path style="fill:#393939; stroke:none;" d="M304 192L305 193L304 192z"/>
<path style="fill:#c6c6c6; stroke:none;" d="M409 192L410 193L409 192z"/>
<path style="fill:#8f8f8f; stroke:none;" d="M304 193L305 194L304 193z"/>
<path style="fill:#717171; stroke:none;" d="M409 193L410 194L409 193z"/>
<path style="fill:#565656; stroke:none;" d="M305 194L306 195L305 194z"/>
<path style="fill:#b6b6b6; stroke:none;" d="M410 194L411 195L410 194z"/>
<path style="fill:#a9a9a9; stroke:none;" d="M305 195L306 196L305 195z"/>
<path style="fill:#5d5d5d; stroke:none;" d="M410 195L411 196L410 195z"/>
<path style="fill:#686868; stroke:none;" d="M306 196L307 197L306 196z"/>
<path style="fill:#9d9d9d; stroke:none;" d="M411 196L412 197L411 196z"/>
<path style="fill:#bbbbbb; stroke:none;" d="M306 197L307 198L306 197z"/>
<path style="fill:#3d3d3d; stroke:none;" d="M411 197L412 198L411 197z"/>
<path style="fill:#7a7a7a; stroke:none;" d="M307 198L308 199L307 198z"/>
<path style="fill:#808080; stroke:none;" d="M412 198L413 199L412 198z"/>
<path style="fill:#393939; stroke:none;" d="M308 199L309 200L308 199z"/>
<path style="fill:#a0a0a0; stroke:none;" d="M308 200L309 201L308 200z"/>
<path style="fill:#585858; stroke:none;" d="M413 200L414 201L413 200z"/>
<path style="fill:#a8a8a8; stroke:none;" d="M274 201L274.722 201.722L275.25 201.75L277 202L276.278 201.278L275.75 201.25L274 201z"/>
<path style="fill:#505050; stroke:none;" d="M309 201L310 202L309 201z"/>
<path style="fill:#999999; stroke:none;" d="M414 201L415 202L414 201z"/>
<path style="fill:#979797; stroke:none;" d="M273 202L274 203L273 202z"/>
<path style="fill:#212121; stroke:none;" d="M274 202L274.722 202.722L275.25 202.75L277 203L276.278 202.278L275.75 202.25L274 202z"/>
<path style="fill:#a8a8a8; stroke:none;" d="M309 202L310 203L309 202z"/>
<path style="fill:#bbbbbb; stroke:none;" d="M271 203L272 204L271 203z"/>
<path style="fill:#5c5c5c; stroke:none;" d="M272 203L273 204L272 203z"/>
<path style="fill:#000000; stroke:none;" d="M238 226L235.944 226.111L234.944 226.306L233 227.083L231 228.194L230 228.806L229 229.389L227 230.611L226 231.194L224 232.389L223 233L221 234.167L220 234.75L219 235.25L217 236.389L215 237.611L213 238.806L212 239.389L210 240.611L208 241.806L207 242.389L205 243.611L204 244.194L203 244.806L201.056 245.944L200.5 246.306L199 247L199.111 248.5L199.639 250.056L200.639 252L201.167 253L201.75 254L202.778 256L203.25 257L203.833 258L204.389 259L205.611 261L206.806 263L207.389 264L208.611 266L209.194 267L210.389 269L211.611 271L212.75 273L213.25 274L214.389 276L215.611 278L216.75 280L217.25 281L218.389 283L219.611 285L220.806 287L221.389 288L222.611 290L223.194 291L224.389 293L225.611 295L226.75 297L227.25 298L228.389 300L229.611 302L230.75 304L231.25 305L232.389 307L233.611 309L234.806 311L235.389 312L236.611 314L237.194 315L238.389 317L239.611 319L240.75 321L241.222 322L241.778 323L242.25 324L243.389 326L244.028 327L245.333 329L245.972 330L246.611 331L247.75 333L248.25 334L249.389 336L250.611 338L251.194 339L251.806 340L252.944 342L254 344L254.528 345L255.083 346L255.694 347L256.972 349L257.583 349.944L258.111 350.944L258.472 351.5L259 353L322 353L343 353L350 353L352 353L353 353L355 353.083L357 353.389L358 353.611L360 353.917L360.944 353.972L361.944 354L364 354L363.667 352.5L363.361 351.944L362.889 350.944L362.306 350L361.028 348L360.389 347L359.806 346L358.611 344L357.389 342L356.194 340L355.611 339L354.389 337L353.833 336L353.25 335L352.778 334L352.222 333L351.778 332L350.75 330L350.167 329L349.611 328L348.389 326L347.194 324L346.611 323L345.389 321L344.194 319L343.611 318L342.389 316L341.25 314L340.75 313L340.167 312L339 310L337.806 308.083L336.639 306.389L336.056 305.611L335.056 303.917L334.639 302.972L333.722 301L332.611 299L331.389 297L330.833 296L330.25 295L329.778 294L329.222 293L328.75 292L327.611 290L326.972 289L325.667 287L325.028 286L324.389 285L323.25 283L322.75 282L321.611 280L320.389 278L319.194 276L318.611 275L317.389 273L316.833 272L316.25 271L315.222 269L314.778 268L314.222 267L313.75 266L313.167 265L312.611 264L311.333 262L310.028 260L309.389 259L308.806 258L307.611 256L306.389 254L305.833 253L305.25 252L304.222 250L303.75 249L302.611 247L301.389 245L300.806 244L299.611 242L298.389 240L297.806 239L296.611 237L295.389 235L294.25 233L293.75 232L292.611 230L291.389 228L290.25 226L289.75 225L289.167 224L288.611 223L287.389 221.028L286.806 220.083L285.583 218.5L284.417 217.528L283 217L282.972 215.5L282.75 213.944L282.5 213L281.583 211L280.333 209L279.694 208L279.083 207L278.056 205.056L277.833 204.5L277 203L274.944 203.111L273.944 203.306L272 204.083L270 205.167L269 205.75L268 206.25L266 207.389L264 208.611L262 209.806L261 210.389L259 211.611L258 212.194L256 213.389L254 214.611L252 215.75L251 216.25L249 217.389L247 218.667L245 219.972L244 220.611L242.028 221.75L241.083 222.25L239.5 223.417L238.528 224.583L238 226z"/>
<path style="fill:#838383; stroke:none;" d="M277 203L278 204L277 203z"/>
<path style="fill:#6b6b6b; stroke:none;" d="M310 203L311 204L310 203z"/>
<path style="fill:#8c8c8c; stroke:none;" d="M415 203L416 204L415 203z"/>
<path style="fill:#cacaca; stroke:none;" d="M269 204L270 205L269 204z"/>
<path style="fill:#777777; stroke:none;" d="M270 204L271 205L270 204z"/>
<path style="fill:#2e2e2e; stroke:none;" d="M271 204L272 205L271 204z"/>
<path style="fill:#b3b3b3; stroke:none;" d="M278 204L279 205L278 204z"/>
<path style="fill:#c2c2c2; stroke:none;" d="M310 204L311 205L310 204z"/>
<path style="fill:#333333; stroke:none;" d="M415 204L416 205L415 204z"/>
<path style="fill:#c2c2c2; stroke:none;" d="M416 204L417 205L416 204z"/>
<path style="fill:#d3d3d3; stroke:none;" d="M267 205L268 206L267 205z"/>
<path style="fill:#9c9c9c; stroke:none;" d="M268 205L269 206L268 205z"/>
<path style="fill:#4a4a4a; stroke:none;" d="M269 205L270 206L269 205z"/>
<path style="fill:#727272; stroke:none;" d="M278 205L279 206L278 205z"/>
<path style="fill:#7c7c7c; stroke:none;" d="M311 205L312 206L311 205z"/>
<path style="fill:#6e6e6e; stroke:none;" d="M416 205L417 206L416 205z"/>
<path style="fill:#b5b5b5; stroke:none;" d="M266 206L267 207L266 206z"/>
<path style="fill:#565656; stroke:none;" d="M267 206L268 207L267 206z"/>
<path style="fill:#2b2b2b; stroke:none;" d="M278 206L279 207L278 206z"/>
<path style="fill:#9a9a9a; stroke:none;" d="M279 206L280 207L279 206z"/>
<path style="fill:#474747; stroke:none;" d="M312 206L313 207L312 206z"/>
<path style="fill:#b1b1b1; stroke:none;" d="M417 206L418 207L417 206z"/>
<path style="fill:#cecece; stroke:none;" d="M264 207L265 208L264 207z"/>
<path style="fill:#767676; stroke:none;" d="M265 207L266 208L265 207z"/>
<path style="fill:#5a5a5a; stroke:none;" d="M279 207L280 208L279 207z"/>
<path style="fill:#8b8b8b; stroke:none;" d="M312 207L313 208L312 207z"/>
<path style="fill:#5b5b5b; stroke:none;" d="M417 207L418 208L417 207z"/>
<path style="fill:#969696; stroke:none;" d="M263 208L264 209L263 208z"/>
<path style="fill:#3a3a3a; stroke:none;" d="M264 208L265 209L264 208z"/>
<path style="fill:#9a9a9a; stroke:none;" d="M280 208L281 209L280 208z"/>
<path style="fill:#565656; stroke:none;" d="M313 208L314 209L313 208z"/>
<path style="fill:#8b8b8b; stroke:none;" d="M418 208L419 209L418 208z"/>
<path style="fill:#a0a0a0; stroke:none;" d="M261 209L262 210L261 209z"/>
<path style="fill:#5e5e5e; stroke:none;" d="M262 209L263 210L262 209z"/>
<path style="fill:#404040; stroke:none;" d="M280 209L281 210L280 209z"/>
<path style="fill:#c8c8c8; stroke:none;" d="M281 209L282 210L281 209z"/>
<path style="fill:#a9a9a9; stroke:none;" d="M313 209L314 210L313 209z"/>
<path style="fill:#535353; stroke:none;" d="M418 209L419 210L418 209z"/>
<path style="fill:#bfbfbf; stroke:none;" d="M259 210L260 211L259 210z"/>
<path style="fill:#757575; stroke:none;" d="M260 210L261 211L260 210z"/>
<path style="fill:#797979; stroke:none;" d="M281 210L282 211L281 210z"/>
<path style="fill:#666666; stroke:none;" d="M314 210L315 211L314 210z"/>
<path style="fill:#7e7e7e; stroke:none;" d="M419 210L420 211L419 210z"/>
<path style="fill:#919191; stroke:none;" d="M258 211L259 212L258 211z"/>
<path style="fill:#404040; stroke:none;" d="M259 211L260 212L259 211z"/>
<path style="fill:#b7b7b7; stroke:none;" d="M282 211L283 212L282 211z"/>
<path style="fill:#b9b9b9; stroke:none;" d="M314 211L315 212L314 211z"/>
<path style="fill:#2f2f2f; stroke:none;" d="M315 211L316 212L315 211z"/>
<path style="fill:#333333; stroke:none;" d="M419 211L420 212L419 211z"/>
<path style="fill:#bdbdbd; stroke:none;" d="M420 211L421 212L420 211z"/>
<path style="fill:#a6a6a6; stroke:none;" d="M256 212L257 213L256 212z"/>
<path style="fill:#505050; stroke:none;" d="M257 212L258 213L257 212z"/>
<path style="fill:#5f5f5f; stroke:none;" d="M282 212L283 213L282 212z"/>
<path style="fill:#7a7a7a; stroke:none;" d="M315 212L316 213L315 212z"/>
<path style="fill:#676767; stroke:none;" d="M420 212L421 213L420 212z"/>
<path style="fill:#c4c4c4; stroke:none;" d="M254 213L255 214L254 213z"/>
<path style="fill:#757575; stroke:none;" d="M255 213L256 214L255 213z"/>
<path style="fill:#a3a3a3; stroke:none;" d="M283 213L284 214L283 213z"/>
<path style="fill:#cacaca; stroke:none;" d="M315 213L316 214L315 213z"/>
<path style="fill:#3d3d3d; stroke:none;" d="M316 213L317 214L316 213z"/>
<path style="fill:#b2b2b2; stroke:none;" d="M421 213L422 214L421 213z"/>
<path style="fill:#939393; stroke:none;" d="M253 214L254 215L253 214z"/>
<path style="fill:#3e3e3e; stroke:none;" d="M254 214L255 215L254 214z"/>
<path style="fill:#4b4b4b; stroke:none;" d="M283 214L284 215L283 214z"/>
<path style="fill:#d0d0d0; stroke:none;" d="M284 214L285 215L284 214z"/>
<path style="fill:#939393; stroke:none;" d="M316 214L317 215L316 214z"/>
<path style="fill:#555555; stroke:none;" d="M421 214L422 215L421 214z"/>
<path style="fill:#a9a9a9; stroke:none;" d="M422.333 214.667L422.333 215.333L422.667 215.333L422.667 214.667L422.333 214.667z"/>
<path style="fill:#9e9e9e; stroke:none;" d="M251 215L252 216L251 215z"/>
<path style="fill:#484848; stroke:none;" d="M252 215L253 216L252 215z"/>
<path style="fill:#131313; stroke:none;" d="M283 215L283.667 216.75L283.861 217.278L285 218L284.333 216.25L284.139 215.722L283 215z"/>
<path style="fill:#909090; stroke:none;" d="M284 215L285 216L284 215z"/>
<path style="fill:#c7c7c7; stroke:none;" d="M249 216L250 217L249 216z"/>
<path style="fill:#616161; stroke:none;" d="M250 216L251 217L250 216z"/>
<path style="fill:#c4c4c4; stroke:none;" d="M285 216L286 217L285 216z"/>
<path style="fill:#e3e3e3; stroke:none;" d="M317.333 216.667L317.333 217L317.667 217.333L317.667 217L317.333 216.667z"/>
<path style="fill:#3b3b3b; stroke:none;" d="M422 216L423 217L422 216z"/>
<path style="fill:#cbcbcb; stroke:none;" d="M423 216L424 217L423 216z"/>
<path style="fill:#7b7b7b; stroke:none;" d="M248 217L249 218L248 217z"/>
<path style="fill:#6d6d6d; stroke:none;" d="M285 217L286 218L285 217M318 217L319 218L318 217z"/>
<path style="fill:#767676; stroke:none;" d="M423 217L424 218L423 217z"/>
<path style="fill:#a1a1a1; stroke:none;" d="M246 218L247 219L246 218z"/>
<path style="fill:#454545; stroke:none;" d="M247 218L248 219L247 218z"/>
<path style="fill:#b5b5b5; stroke:none;" d="M286 218L287 219L286 218z"/>
<path style="fill:#c4c4c4; stroke:none;" d="M318 218L319 219L318 218z"/>
<path style="fill:#c2c2c2; stroke:none;" d="M424 218L425 219L424 218z"/>
<path style="fill:#c0c0c0; stroke:none;" d="M244 219L245 220L244 219z"/>
<path style="fill:#5f5f5f; stroke:none;" d="M245 219L246 220L245 219z"/>
<path style="fill:#595959; stroke:none;" d="M286 219L287 220L286 219z"/>
<path style="fill:#7c7c7c; stroke:none;" d="M319 219L320 220L319 219z"/>
<path style="fill:#595959; stroke:none;" d="M424 219L425 220L424 219z"/>
<path style="fill:#7e7e7e; stroke:none;" d="M243 220L244 221L243 220z"/>
<path style="fill:#2c2c2c; stroke:none;" d="M244 220L245 221L244 220z"/>
<path style="fill:#999999; stroke:none;" d="M287 220L288 221L287 220z"/>
<path style="fill:#444444; stroke:none;" d="M320 220L321 221L320 220z"/>
<path style="fill:#a7a7a7; stroke:none;" d="M425 220L426 221L425 220z"/>
<path style="fill:#a5a5a5; stroke:none;" d="M241 221L242 222L241 221z"/>
<path style="fill:#4f4f4f; stroke:none;" d="M242 221L243 222L242 221z"/>
<path style="fill:#3d3d3d; stroke:none;" d="M287 221L288 222L287 221z"/>
<path style="fill:#959595; stroke:none;" d="M320 221L321 222L320 221z"/>
<path style="fill:#3e3e3e; stroke:none;" d="M425 221L426 222L425 221z"/>
<path style="fill:#adadad; stroke:none;" d="M239 222L240 223L239 222z"/>
<path style="fill:#4f4f4f; stroke:none;" d="M240 222L241 223L240 222z"/>
<path style="fill:#7d7d7d; stroke:none;" d="M288 222L289 223L288 222z"/>
<path style="fill:#545454; stroke:none;" d="M321 222L322 223L321 222z"/>
<path style="fill:#1c1c1c; stroke:none;" d="M322.333 222.667L322.333 223.333L322.667 223.333L322.667 222.667L322.333 222.667z"/>
<path style="fill:#888888; stroke:none;" d="M426 222L427 223L426 222z"/>
<path style="fill:#d1d1d1; stroke:none;" d="M237 223L238 224L237 223z"/>
<path style="fill:#808080; stroke:none;" d="M238 223L239 224L238 223z"/>
<path style="fill:#a8a8a8; stroke:none;" d="M321 223L322 224L321 223z"/>
<path style="fill:#333333; stroke:none;" d="M426 223L427 224L426 223z"/>
<path style="fill:#c3c3c3; stroke:none;" d="M427 223L428 224L427 223z"/>
<path style="fill:#989898; stroke:none;" d="M236 224L237 225L236 224z"/>
<path style="fill:#121212; stroke:none;" d="M236 226L237.75 225.333L238.278 225.139L239 224L237.25 224.667L236.722 224.861L236 226z"/>
<path style="fill:#5e5e5e; stroke:none;" d="M289 224L290 225L289 224z"/>
<path style="fill:#7b7b7b; stroke:none;" d="M322 224L323 225L322 224z"/>
<path style="fill:#3a3a3a; stroke:none;" d="M427.333 224.667L427.333 225.333L427.667 225.333L427.667 224.667L427.333 224.667z"/>
<path style="fill:#b3b3b3; stroke:none;" d="M234 225L235 226L234 225z"/>
<path style="fill:#595959; stroke:none;" d="M235 225L236 226L235 225z"/>
<path style="fill:#a2a2a2; stroke:none;" d="M290 225L291 226L290 225z"/>
<path style="fill:#adadad; stroke:none;" d="M322 225L323 226L322 225z"/>
<path style="fill:#323232; stroke:none;" d="M323 225L324 226L323 225z"/>
<path style="fill:#a7a7a7; stroke:none;" d="M428 225L429 226L428 225z"/>
<path style="fill:#c4c4c4; stroke:none;" d="M232 226L233 227L232 226z"/>
<path style="fill:#6d6d6d; stroke:none;" d="M233 226L234 227L233 226z"/>
<path style="fill:#474747; stroke:none;" d="M290 226L291 227L290 226z"/>
<path style="fill:#848484; stroke:none;" d="M323 226L324 227L323 226z"/>
<path style="fill:#4a4a4a; stroke:none;" d="M428 226L429 227L428 226z"/>
<path style="fill:#8e8e8e; stroke:none;" d="M231 227L232 228L231 227z"/>
<path style="fill:#3c3c3c; stroke:none;" d="M232 227L233 228L232 227z"/>
<path style="fill:#959595; stroke:none;" d="M291 227L292 228L291 227z"/>
<path style="fill:#cecece; stroke:none;" d="M323 227L324 228L323 227z"/>
<path style="fill:#414141; stroke:none;" d="M324 227L325 228L324 227z"/>
<path style="fill:#929292; stroke:none;" d="M429 227L430 228L429 227z"/>
<path style="fill:#a3a3a3; stroke:none;" d="M229 228L230 229L229 228z"/>
<path style="fill:#555555; stroke:none;" d="M230 228L231 229L230 228z"/>
<path style="fill:#393939; stroke:none;" d="M291 228L292 229L291 228z"/>
<path style="fill:#cacaca; stroke:none;" d="M292 228L293 229L292 228z"/>
<path style="fill:#949494; stroke:none;" d="M324 228L325 229L324 228z"/>
<path style="fill:#3d3d3d; stroke:none;" d="M429 228L430 229L429 228z"/>
<path style="fill:#cacaca; stroke:none;" d="M430 228L431 229L430 228z"/>
<path style="fill:#b9b9b9; stroke:none;" d="M227 229L228 230L227 229z"/>
<path style="fill:#7e7e7e; stroke:none;" d="M228 229L229 230L228 229z"/>
<path style="fill:#747474; stroke:none;" d="M292 229L293 230L292 229z"/>
<path style="fill:#4d4d4d; stroke:none;" d="M325 229L326 230L325 229z"/>
<path style="fill:#838383; stroke:none;" d="M430 229L431 230L430 229z"/>
<path style="fill:#959595; stroke:none;" d="M226 230L227 231L226 230z"/>
<path style="fill:#3c3c3c; stroke:none;" d="M227 230L228 231L227 230z"/>
<path style="fill:#aeaeae; stroke:none;" d="M293 230L294 231L293 230z"/>
<path style="fill:#a7a7a7; stroke:none;" d="M325 230L326 231L325 230z"/>
<path style="fill:#5b5b5b; stroke:none;" d="M326.333 230.667L326.333 231L326.667 231.333L326.667 231L326.333 230.667z"/>
<path style="fill:#303030; stroke:none;" d="M430 230L431 231L430 230z"/>
<path style="fill:#acacac; stroke:none;" d="M431 230L432 231L431 230z"/>
<path style="fill:#aeaeae; stroke:none;" d="M224 231L225 232L224 231z"/>
<path style="fill:#575757; stroke:none;" d="M225 231L226 232L225 231z"/>
<path style="fill:#5f5f5f; stroke:none;" d="M293 231L294 232L293 231z"/>
<path style="fill:#787878; stroke:none;" d="M431 231L432 232L431 231z"/>
<path style="fill:#b6b6b6; stroke:none;" d="M222 232L223 233L222 232z"/>
<path style="fill:#5f5f5f; stroke:none;" d="M223 232L224 233L223 232z"/>
<path style="fill:#aeaeae; stroke:none;" d="M294 232L295 233L294 232z"/>
<path style="fill:#e2e2e2; stroke:none;" d="M326.333 232.667L326.333 233L326.667 233.333L326.667 232.667L326.333 232.667z"/>
<path style="fill:#a1a1a1; stroke:none;" d="M432 232L433 233L432 232z"/>
<path style="fill:#797979; stroke:none;" d="M221 233L222 234L221 233z"/>
<path style="fill:#464646; stroke:none;" d="M222 233L223 234L222 233z"/>
<path style="fill:#505050; stroke:none;" d="M294 233L295 234L294 233z"/>
<path style="fill:#8a8a8a; stroke:none;" d="M327 233L328 234L327 233z"/>
<path style="fill:#4d4d4d; stroke:none;" d="M432 233L433 234L432 233z"/>
<path style="fill:#999999; stroke:none;" d="M219 234L220 235L219 234z"/>
<path style="fill:#4d4d4d; stroke:none;" d="M220 234L221 235L220 234z"/>
<path style="fill:#8a8a8a; stroke:none;" d="M295 234L296 235L295 234z"/>
<path style="fill:#434343; stroke:none;" d="M328 234L329 235L328 234z"/>
<path style="fill:#8e8e8e; stroke:none;" d="M433 234L434 235L433 234z"/>
<path style="fill:#bebebe; stroke:none;" d="M217 235L218 236L217 235z"/>
<path style="fill:#656565; stroke:none;" d="M218 235L219 236L218 235z"/>
<path style="fill:#363636; stroke:none;" d="M295 235L296 236L295 235z"/>
<path style="fill:#c9c9c9; stroke:none;" d="M296 235L297 236L296 235z"/>
<path style="fill:#939393; stroke:none;" d="M328 235L329 236L328 235z"/>
<path style="fill:#3a3a3a; stroke:none;" d="M433 235L434 236L433 235z"/>
<path style="fill:#c7c7c7; stroke:none;" d="M434 235L435 236L434 235z"/>
<path style="fill:#7f7f7f; stroke:none;" d="M216 236L217 237L216 236z"/>
<path style="fill:#686868; stroke:none;" d="M296 236L297 237L296 236z"/>
<path style="fill:#595959; stroke:none;" d="M329 236L330 237L329 236z"/>
<path style="fill:#707070; stroke:none;" d="M434 236L435 237L434 236z"/>
<path style="fill:#9b9b9b; stroke:none;" d="M214 237L215 238L214 237z"/>
<path style="fill:#404040; stroke:none;" d="M215 237L216 238L215 237z"/>
<path style="fill:#bababa; stroke:none;" d="M297 237L298 238L297 237z"/>
<path style="fill:#aeaeae; stroke:none;" d="M329 237L330 238L329 237z"/>
<path style="fill:#bfbfbf; stroke:none;" d="M435 237L436 238L435 237z"/>
<path style="fill:#c8c8c8; stroke:none;" d="M212 238L213 239L212 238z"/>
<path style="fill:#616161; stroke:none;" d="M213 238L214 239L213 238z"/>
<path style="fill:#5e5e5e; stroke:none;" d="M297 238L298 239L297 238z"/>
<path style="fill:#676767; stroke:none;" d="M330 238L331 239L330 238z"/>
<path style="fill:#656565; stroke:none;" d="M435 238L436 239L435 238z"/>
<path style="fill:#cfcfcf; stroke:none;" d="M210 239L211 240L210 239z"/>
<path style="fill:#737373; stroke:none;" d="M211 239L212 240L211 239z"/>
<path style="fill:#949494; stroke:none;" d="M298 239L299 240L298 239z"/>
<path style="fill:#c7c7c7; stroke:none;" d="M330 239L331 240L330 239z"/>
<path style="fill:#a1a1a1; stroke:none;" d="M436 239L437 240L436 239z"/>
<path style="fill:#969696; stroke:none;" d="M209 240L210 241L209 240z"/>
<path style="fill:#3a3a3a; stroke:none;" d="M210 240L211 241L210 240M298 240L299 241L298 240z"/>
<path style="fill:#bbbbbb; stroke:none;" d="M331.333 240.667L331.333 241L331.667 241.333L331.667 241L331.333 240.667z"/>
<path style="fill:#bababa; stroke:none;" d="M207 241L208 242L207 241z"/>
<path style="fill:#656565; stroke:none;" d="M208 241L209 242L208 241z"/>
<path style="fill:#7a7a7a; stroke:none;" d="M299 241L300 242L299 241z"/>
<path style="fill:#474747; stroke:none;" d="M332 241L333 242L332 241z"/>
<path style="fill:#848484; stroke:none;" d="M437 241L438 242L437 241z"/>
<path style="fill:#cdcdcd; stroke:none;" d="M205 242L206 243L205 242z"/>
<path style="fill:#797979; stroke:none;" d="M206 242L207 243L206 242z"/>
<path style="fill:#c4c4c4; stroke:none;" d="M300 242L301 243L300 242z"/>
<path style="fill:#a2a2a2; stroke:none;" d="M332 242L333 243L332 242z"/>
<path style="fill:#bbbbbb; stroke:none;" d="M438 242L439 243L438 242z"/>
<path style="fill:#909090; stroke:none;" d="M204 243L205 244L204 243z"/>
<path style="fill:#3d3d3d; stroke:none;" d="M205 243L206 244L205 243z"/>
<path style="fill:#646464; stroke:none;" d="M300 243L301 244L300 243z"/>
<path style="fill:#545454; stroke:none;" d="M333 243L334 244L333 243z"/>
<path style="fill:#5e5e5e; stroke:none;" d="M438 243L439 244L438 243z"/>
<path style="fill:#b1b1b1; stroke:none;" d="M202 244L203 245L202 244z"/>
<path style="fill:#5a5a5a; stroke:none;" d="M203 244L204 245L203 244z"/>
<path style="fill:#a4a4a4; stroke:none;" d="M301 244L302 245L301 244z"/>
<path style="fill:#aaaaaa; stroke:none;" d="M333 244L334 245L333 244z"/>
<path style="fill:#2b2b2b; stroke:none;" d="M334 244L335 245L334 244z"/>
<path style="fill:#adadad; stroke:none;" d="M439 244L440 245L439 244z"/>
<path style="fill:#757575; stroke:none;" d="M201 245L202 246L201 245z"/>
<path style="fill:#4a4a4a; stroke:none;" d="M301 245L302 246L301 245z"/>
<path style="fill:#6e6e6e; stroke:none;" d="M334 245L335 246L334 245z"/>
<path style="fill:#535353; stroke:none;" d="M439 245L440 246L439 245z"/>
<path style="fill:#999999; stroke:none;" d="M199 246L200 247L199 246z"/>
<path style="fill:#3b3b3b; stroke:none;" d="M200 246L201 247L200 246z"/>
<path style="fill:#898989; stroke:none;" d="M302 246L303 247L302 246z"/>
<path style="fill:#bdbdbd; stroke:none;" d="M334 246L335 247L334 246z"/>
<path style="fill:#3c3c3c; stroke:none;" d="M335 246L336 247L335 246z"/>
<path style="fill:#8a8a8a; stroke:none;" d="M440 246L441 247L440 246z"/>
<path style="fill:#3e3e3e; stroke:none;" d="M198.333 247.667L198.333 248L198.667 248.333L198.667 248L198.333 247.667z"/>
<path style="fill:#777777; stroke:none;" d="M335 247L336 248L335 247z"/>
<path style="fill:#383838; stroke:none;" d="M440 247L441 248L440 247z"/>
<path style="fill:#6a6a6a; stroke:none;" d="M303 248L304 249L303 248z"/>
<path style="fill:#444444; stroke:none;" d="M336 248L337 249L336 248z"/>
<path style="fill:#707070; stroke:none;" d="M441 248L442 249L441 248z"/>
<path style="fill:#a4a4a4; stroke:none;" d="M198 249L199 250L198 249z"/>
<path style="fill:#b0b0b0; stroke:none;" d="M304 249L305 250L304 249z"/>
<path style="fill:#9b9b9b; stroke:none;" d="M336 249L337 250L336 249z"/>
<path style="fill:#343434; stroke:none;" d="M441 249L442 250L441 249z"/>
<path style="fill:#b2b2b2; stroke:none;" d="M442 249L443 250L442 249z"/>
<path style="fill:#636363; stroke:none;" d="M199 250L200 251L199 250z"/>
<path style="fill:#575757; stroke:none;" d="M304 250L305 251L304 250z"/>
<path style="fill:#f5f5f5; stroke:none;" d="M336 250L336 253L335 251L334.306 251.778L334.389 253.083L334.75 253.917L335.333 254.639L336.056 255.222L337.5 255.611L339 255L338.5 253.5L337.778 252.056L337.222 251.306L337 250.778L336 250z"/>
<path style="fill:#575757; stroke:none;" d="M337 250L338 251L337 250z"/>
<path style="fill:#5f5f5f; stroke:none;" d="M442 250L443 251L442 250z"/>
<path style="fill:#bababa; stroke:none;" d="M199 251L200 252L199 251z"/>
<path style="fill:#303030; stroke:none;" d="M200 251L201 252L200 251z"/>
<path style="fill:#9e9e9e; stroke:none;" d="M305 251L306 252L305 251z"/>
<path style="fill:#aaaaaa; stroke:none;" d="M337 251L338 252L337 251z"/>
<path style="fill:#9a9a9a; stroke:none;" d="M443 251L444 252L443 251z"/>
<path style="fill:#878787; stroke:none;" d="M200 252L201 253L200 252z"/>
<path style="fill:#434343; stroke:none;" d="M305 252L306 253L305 252z"/>
<path style="fill:#717171; stroke:none;" d="M338 252L339 253L338 252z"/>
<path style="fill:#454545; stroke:none;" d="M443 252L444 253L443 252z"/>
<path style="fill:#414141; stroke:none;" d="M201 253L202 254L201 253z"/>
<path style="fill:#8c8c8c; stroke:none;" d="M306 253L307 254L306 253z"/>
<path style="fill:#c6c6c6; stroke:none;" d="M338 253L339 254L338 253z"/>
<path style="fill:#7e7e7e; stroke:none;" d="M444 253L445 254L444 253z"/>
<path style="fill:#959595; stroke:none;" d="M201 254L202 255L201 254z"/>
<path style="fill:#343434; stroke:none;" d="M306 254L307 255L306 254z"/>
<path style="fill:#bbbbbb; stroke:none;" d="M307 254L308 255L307 254z"/>
<path style="fill:#828282; stroke:none;" d="M339 254L340 255L339 254z"/>
<path style="fill:#bcbcbc; stroke:none;" d="M445 254L446 255L445 254z"/>
<path style="fill:#646464; stroke:none;" d="M202 255L203 256L202 255z"/>
<path style="fill:#6b6b6b; stroke:none;" d="M307 255L308 256L307 255z"/>
<path style="fill:#373737; stroke:none;" d="M340 255L341 256L340 255z"/>
<path style="fill:#6b6b6b; stroke:none;" d="M445 255L446 256L445 255z"/>
<path style="fill:#adadad; stroke:none;" d="M202 256L203 257L202 256z"/>
<path style="fill:#a5a5a5; stroke:none;" d="M308 256L309 257L308 256z"/>
<path style="fill:#acacac; stroke:none;" d="M340 256L341 257L340 256z"/>
<path style="fill:#a7a7a7; stroke:none;" d="M446 256L447 257L446 256z"/>
<path style="fill:#737373; stroke:none;" d="M203 257L204 258L203 257z"/>
<path style="fill:#595959; stroke:none;" d="M308 257L309 258L308 257z"/>
<path style="fill:#5a5a5a; stroke:none;" d="M341 257L342 258L341 257z"/>
<path style="fill:#535353; stroke:none;" d="M446 257L447 258L446 257z"/>
<path style="fill:#cacaca; stroke:none;" d="M203 258L204 259L203 258z"/>
<path style="fill:#969696; stroke:none;" d="M309 258L310 259L309 258z"/>
<path style="fill:#b2b2b2; stroke:none;" d="M341 258L342 259L341 258z"/>
<path style="fill:#929292; stroke:none;" d="M447 258L448 259L447 258z"/>
<path style="fill:#8b8b8b; stroke:none;" d="M204 259L205 260L204 259z"/>
<path style="fill:#393939; stroke:none;" d="M309 259L310 260L309 259z"/>
<path style="fill:#cecece; stroke:none;" d="M310 259L311 260L310 259z"/>
<path style="fill:#6c6c6c; stroke:none;" d="M342 259L343 260L342 259z"/>
<path style="fill:#383838; stroke:none;" d="M447 259L448 260L447 259z"/>
<path style="fill:#cdcdcd; stroke:none;" d="M448 259L449 260L448 259z"/>
<path style="fill:#474747; stroke:none;" d="M205 260L206 261L205 260z"/>
<path style="fill:#797979; stroke:none;" d="M310 260L311 261L310 260z"/>
<path style="fill:#c4c4c4; stroke:none;" d="M342 260L343 261L342 260z"/>
<path style="fill:#363636; stroke:none;" d="M343 260L344 261L343 260z"/>
<path style="fill:#7e7e7e; stroke:none;" d="M448 260L449 261L448 260z"/>
<path style="fill:#acacac; stroke:none;" d="M205 261L206 262L205 261z"/>
<path style="fill:#c0c0c0; stroke:none;" d="M311 261L312 262L311 261z"/>
<path style="fill:#7a7a7a; stroke:none;" d="M343 261L344 262L343 261z"/>
<path style="fill:#343434; stroke:none;" d="M448 261L449 262L448 261z"/>
<path style="fill:#b2b2b2; stroke:none;" d="M449 261L450 262L449 261z"/>
<path style="fill:#6e6e6e; stroke:none;" d="M206 262L207 263L206 262z"/>
<path style="fill:#626262; stroke:none;" d="M311 262L312 263L311 262z"/>
<path style="fill:#cfcfcf; stroke:none;" d="M343 262L344 263L343 262z"/>
<path style="fill:#505050; stroke:none;" d="M344 262L345 263L344 262z"/>
<path style="fill:#616161; stroke:none;" d="M449 262L450 263L449 262z"/>
<path style="fill:#bfbfbf; stroke:none;" d="M206 263L207 264L206 263z"/>
<path style="fill:#b2b2b2; stroke:none;" d="M312 263L313 264L312 263z"/>
<path style="fill:#909090; stroke:none;" d="M344 263L345 264L344 263z"/>
<path style="fill:#9e9e9e; stroke:none;" d="M450 263L451 264L450 263z"/>
<path style="fill:#7d7d7d; stroke:none;" d="M207 264L208 265L207 264z"/>
<path style="fill:#616161; stroke:none;" d="M345 264L346 265L345 264z"/>
<path style="fill:#c6c6c6; stroke:none;" d="M207 265L208 266L207 265z"/>
<path style="fill:#4a4a4a; stroke:none;" d="M208 265L209 266L208 265z"/>
<path style="fill:#858585; stroke:none;" d="M313 265L314 266L313 265z"/>
<path style="fill:#aeaeae; stroke:none;" d="M345 265L346 266L345 265z"/>
<path style="fill:#888888; stroke:none;" d="M451 265L452 266L451 265z"/>
<path style="fill:#a0a0a0; stroke:none;" d="M208 266L209 267L208 266z"/>
<path style="fill:#d0d0d0; stroke:none;" d="M314 266L315 267L314 266z"/>
<path style="fill:#6b6b6b; stroke:none;" d="M346 266L347 267L346 266z"/>
<path style="fill:#535353; stroke:none;" d="M209 267L210 268L209 267z"/>
<path style="fill:#6e6e6e; stroke:none;" d="M314 267L315 268L314 267z"/>
<path style="fill:#c0c0c0; stroke:none;" d="M346 267L347 268L346 267z"/>
<path style="fill:#383838; stroke:none;" d="M347 267L348 268L347 267z"/>
<path style="fill:#6f6f6f; stroke:none;" d="M452 267L453 268L452 267z"/>
<path style="fill:#aeaeae; stroke:none;" d="M209 268L210 269L209 268z"/>
<path style="fill:#afafaf; stroke:none;" d="M315 268L316 269L315 268z"/>
<path style="fill:#838383; stroke:none;" d="M347 268L348 269L347 268z"/>
<path style="fill:#a8a8a8; stroke:none;" d="M453 268L454 269L453 268z"/>
<path style="fill:#6f6f6f; stroke:none;" d="M210 269L211 270L210 269z"/>
<path style="fill:#555555; stroke:none;" d="M315 269L316 270L315 269z"/>
<path style="fill:#d0d0d0; stroke:none;" d="M347 269L348 270L347 269z"/>
<path style="fill:#414141; stroke:none;" d="M348 269L349 270L348 269z"/>
<path style="fill:#4f4f4f; stroke:none;" d="M453 269L454 270L453 269z"/>
<path style="fill:#c0c0c0; stroke:none;" d="M210 270L211 271L210 270z"/>
<path style="fill:#3e3e3e; stroke:none;" d="M211 270L212 271L211 270z"/>
<path style="fill:#989898; stroke:none;" d="M316 270L317 271L316 270z"/>
<path style="fill:#9c9c9c; stroke:none;" d="M348 270L349 271L348 270z"/>
<path style="fill:#8d8d8d; stroke:none;" d="M454 270L455 271L454 270z"/>
<path style="fill:#8e8e8e; stroke:none;" d="M211 271L212 272L211 271z"/>
<path style="fill:#3b3b3b; stroke:none;" d="M316 271L317 272L316 271z"/>
<path style="fill:#444444; stroke:none;" d="M349 271L350 272L349 271z"/>
<path style="fill:#212121; stroke:none;" d="M350.333 271.667L350.333 272.333L350.667 272.333L350.667 271.667L350.333 271.667z"/>
<path style="fill:#424242; stroke:none;" d="M212 272L213 273L212 272z"/>
<path style="fill:#868686; stroke:none;" d="M317 272L318 273L317 272z"/>
<path style="fill:#b6b6b6; stroke:none;" d="M349 272L350 273L349 272z"/>
<path style="fill:#6e6e6e; stroke:none;" d="M455 272L456 273L455 272z"/>
<path style="fill:#a3a3a3; stroke:none;" d="M212 273L213 274L212 273z"/>
<path style="fill:#373737; stroke:none;" d="M317 273L318 274L317 273z"/>
<path style="fill:#b8b8b8; stroke:none;" d="M318 273L319 274L318 273z"/>
<path style="fill:#797979; stroke:none;" d="M350 273L351 274L350 273z"/>
<path style="fill:#b6b6b6; stroke:none;" d="M456 273L457 274L456 273z"/>
<path style="fill:#606060; stroke:none;" d="M213 274L214 275L213 274z"/>
<path style="fill:#6c6c6c; stroke:none;" d="M318 274L319 275L318 274z"/>
<path style="fill:#323232; stroke:none;" d="M351 274L352 275L351 274z"/>
<path style="fill:#616161; stroke:none;" d="M456 274L457 275L456 274z"/>
<path style="fill:#bababa; stroke:none;" d="M213 275L214 276L213 275z"/>
<path style="fill:#afafaf; stroke:none;" d="M319 275L320 276L319 275z"/>
<path style="fill:#838383; stroke:none;" d="M351 275L352 276L351 275z"/>
<path style="fill:#a3a3a3; stroke:none;" d="M457 275L458 276L457 275z"/>
<path style="fill:#7b7b7b; stroke:none;" d="M214 276L215 277L214 276z"/>
<path style="fill:#5a5a5a; stroke:none;" d="M319 276L320 277L319 276z"/>
<path style="fill:#4a4a4a; stroke:none;" d="M352 276L353 277L352 276z"/>
<path style="fill:#494949; stroke:none;" d="M457 276L458 277L457 276z"/>
<path style="fill:#3e3e3e; stroke:none;" d="M215 277L216 278L215 277z"/>
<path style="fill:#969696; stroke:none;" d="M320 277L321 278L320 277z"/>
<path style="fill:#999999; stroke:none;" d="M352 277L353 278L352 277z"/>
<path style="fill:#8a8a8a; stroke:none;" d="M458 277L459 278L458 277z"/>
<path style="fill:#989898; stroke:none;" d="M215 278L216 279L215 278z"/>
<path style="fill:#3e3e3e; stroke:none;" d="M320 278L321 279L320 278z"/>
<path style="fill:#c6c6c6; stroke:none;" d="M321 278L322 279L321 278z"/>
<path style="fill:#5b5b5b; stroke:none;" d="M353 278L354 279L353 278z"/>
<path style="fill:#1c1c1c; stroke:none;" d="M354.333 278.667L354.333 279.333L354.667 279.333L354.667 278.667L354.333 278.667z"/>
<path style="fill:#343434; stroke:none;" d="M458 278L459 279L458 278z"/>
<path style="fill:#c0c0c0; stroke:none;" d="M459 278L460 279L459 278z"/>
<path style="fill:#444444; stroke:none;" d="M216 279L217 280L216 279z"/>
<path style="fill:#787878; stroke:none;" d="M321 279L322 280L321 279z"/>
<path style="fill:#b2b2b2; stroke:none;" d="M353 279L354 280L353 279z"/>
<path style="fill:#757575; stroke:none;" d="M459 279L460 280L459 279z"/>
<path style="fill:#b3b3b3; stroke:none;" d="M216 280L217 281L216 280z"/>
<path style="fill:#bcbcbc; stroke:none;" d="M322 280L323 281L322 280z"/>
<path style="fill:#7c7c7c; stroke:none;" d="M354 280L355 281L354 280z"/>
<path style="fill:#a6a6a6; stroke:none;" d="M460 280L461 281L460 280z"/>
<path style="fill:#727272; stroke:none;" d="M217 281L218 282L217 281z"/>
<path style="fill:#686868; stroke:none;" d="M322 281L323 282L322 281z"/>
<path style="fill:#b8b8b8; stroke:none;" d="M354 281L355 282L354 281z"/>
<path style="fill:#3d3d3d; stroke:none;" d="M355 281L356 282L355 281z"/>
<path style="fill:#5a5a5a; stroke:none;" d="M460 281L461 282L460 281z"/>
<path style="fill:#c0c0c0; stroke:none;" d="M182.667 282.333L183 282.667L183.333 282.667L183 282.333L182.667 282.333z"/>
<path style="fill:#9f9f9f; stroke:none;" d="M323 282L324 283L323 282z"/>
<path style="fill:#929292; stroke:none;" d="M355 282L356 283L355 282z"/>
<path style="fill:#999999; stroke:none;" d="M461 282L462 283L461 282z"/>
<path style="fill:#b3b3b3; stroke:none;" d="M181 283L182 284L181 283z"/>
<path style="fill:#3c3c3c; stroke:none;" d="M182.667 283.333L183 283.667L183.333 283.667L183 283.333L182.667 283.333z"/>
<path style="fill:#a1a1a1; stroke:none;" d="M184 283L185 284L184 283z"/>
<path style="fill:#848484; stroke:none;" d="M218 283L219 284L218 283z"/>
<path style="fill:#5a5a5a; stroke:none;" d="M323 283L324 284L323 283z"/>
<path style="fill:#444444; stroke:none;" d="M356 283L357 284L356 283z"/>
<path style="fill:#3c3c3c; stroke:none;" d="M461 283L462 284L461 283z"/>
<path style="fill:#d3d3d3; stroke:none;" d="M462 283L463 284L462 283z"/>
<path style="fill:#bfbfbf; stroke:none;" d="M179 284L180 285L179 284z"/>
<path style="fill:#848484; stroke:none;" d="M180 284L181 285L180 284z"/>
<path style="fill:#000000; stroke:none;" d="M106 328L106.528 329.5L106.889 330.056L107.417 331.056L108.611 333L109.194 334L110.389 336L111.611 338L112.75 340L113.222 341L113.778 342L114.222 343L114.778 344L115.833 346L116.389 347L117.611 349L118.833 350.972L119.472 351.889L121.083 353.25L123 353.667L124 353.583L125 353.389L127 353.083L129 353L131 353L136 353L149 353L221 353L221 352L219 352L220.75 351.917L221.278 351.917L222 353L222.694 352.222L222.667 351.694L222.694 350.889L222.5 349.972L221.75 348L221.222 347L220.75 346L219.611 344L218.972 343L218.333 342L217.028 340L216.389 339L215.806 338L215.194 337L214 335L212.806 333L212.194 332L211.611 331L210.389 329L209.833 328L209.25 327L208.222 325L207.778 324L207.222 323L206.75 322L205.556 320L204.167 318L203.444 317L202.25 315L201.75 314L200.611 312L199.389 310L198.194 308L197.639 307L197.056 306L196.528 305L195.472 303L194.944 302L194.361 301L193.806 300L193.194 299L192.611 298L191.389 296L190.194 294L189.611 293L188.389 291L187.194 289L186.611 288L185.389 286.056L185.056 285.5L184 284L182.5 284.111L180.944 284.639L180 285.083L178 286.194L177 286.806L175 287.944L174 288.472L173 289L171 290.083L169 291.333L168 291.972L167 292.611L165 293.75L164 294.222L163 294.778L162 295.25L161 295.833L160 296.389L158 297.611L156 298.806L155 299.389L153 300.611L151 301.75L150 302.25L148 303.389L146 304.611L144 305.75L143 306.25L141 307.389L139 308.611L137 309.806L136 310.389L134 311.611L133 312.194L131 313.389L129 314.611L127 315.75L126 316.25L124 317.389L122 318.611L120 319.75L119 320.222L118 320.778L117 321.25L115 322.389L114 323.028L113 323.667L112 324.333L110 325.611L108.056 326.75L107.5 327L106 328z"/>
<path style="fill:#545454; stroke:none;" d="M184 284L185 285L184 284z"/>
<path style="fill:#414141; stroke:none;" d="M219 284L220 285L219 284z"/>
<path style="fill:#898989; stroke:none;" d="M324 284L325 285L324 284z"/>
<path style="fill:#9c9c9c; stroke:none;" d="M356 284L357 285L356 284z"/>
<path style="fill:#808080; stroke:none;" d="M462 284L463 285L462 284z"/>
<path style="fill:#939393; stroke:none;" d="M178 285L179 286L178 285z"/>
<path style="fill:#393939; stroke:none;" d="M179 285L180 286L179 285z"/>
<path style="fill:#8e8e8e; stroke:none;" d="M185 285L186 286L185 285z"/>
<path style="fill:#979797; stroke:none;" d="M219 285L220 286L219 285z"/>
<path style="fill:#353535; stroke:none;" d="M324 285L325 286L324 285z"/>
<path style="fill:#c5c5c5; stroke:none;" d="M325 285L326 286L325 285z"/>
<path style="fill:#545454; stroke:none;" d="M357 285L358 286L357 285z"/>
<path style="fill:#343434; stroke:none;" d="M462 285L463 286L462 285z"/>
<path style="fill:#b9b9b9; stroke:none;" d="M463 285L464 286L463 285z"/>
<path style="fill:#acacac; stroke:none;" d="M176 286L177 287L176 286z"/>
<path style="fill:#515151; stroke:none;" d="M177 286L178 287L177 286z"/>
<path style="fill:#3e3e3e; stroke:none;" d="M185 286L186 287L185 286z"/>
<path style="fill:#c2c2c2; stroke:none;" d="M186 286L187 287L186 286z"/>
<path style="fill:#626262; stroke:none;" d="M220 286L221 287L220 286z"/>
<path style="fill:#6e6e6e; stroke:none;" d="M325 286L326 287L325 286z"/>
<path style="fill:#b1b1b1; stroke:none;" d="M326.333 286.667L326.333 287.333L326.667 287.333L326.667 286.667L326.333 286.667z"/>
<path style="fill:#acacac; stroke:none;" d="M357 286L358 287L357 286z"/>
<path style="fill:#686868; stroke:none;" d="M358.333 286.667L358.333 287.333L358.667 287.333L358.667 287L358.333 286.667z"/>
<path style="fill:#616161; stroke:none;" d="M463 286L464 287L463 286z"/>
<path style="fill:#bebebe; stroke:none;" d="M174 287L175 288L174 287z"/>
<path style="fill:#666666; stroke:none;" d="M175 287L176 288L175 287z"/>
<path style="fill:#787878; stroke:none;" d="M186 287L187 288L186 287z"/>
<path style="fill:#bababa; stroke:none;" d="M220 287L221 288L220 287z"/>
<path style="fill:#adadad; stroke:none;" d="M464 287L465 288L464 287z"/>
<path style="fill:#767676; stroke:none;" d="M173 288L174 289L173 288z"/>
<path style="fill:#3a3a3a; stroke:none;" d="M174 288L175 289L174 288z"/>
<path style="fill:#bebebe; stroke:none;" d="M187 288L188 289L187 288z"/>
<path style="fill:#797979; stroke:none;" d="M221 288L222 289L221 288z"/>
<path style="fill:#5c5c5c; stroke:none;" d="M326 288L327 289L326 288z"/>
<path style="fill:#c5c5c5; stroke:none;" d="M358 288L359 289L358 288z"/>
<path style="fill:#363636; stroke:none;" d="M359 288L360 289L359 288z"/>
<path style="fill:#1b1b1b; stroke:none;" d="M464.333 288.667L464.333 289.333L464.667 289.333L464.667 288.667L464.333 288.667z"/>
<path style="fill:#949494; stroke:none;" d="M171 289L172 290L171 289z"/>
<path style="fill:#6a6a6a; stroke:none;" d="M187 289L188 290L187 289z"/>
<path style="fill:#c3c3c3; stroke:none;" d="M221 289L222 290L221 289z"/>
<path style="fill:#414141; stroke:none;" d="M222 289L223 290L222 289z"/>
<path style="fill:#8f8f8f; stroke:none;" d="M327 289L328 290L327 289z"/>
<path style="fill:#8b8b8b; stroke:none;" d="M359 289L360 290L359 289z"/>
<path style="fill:#898989; stroke:none;" d="M465 289L466 290L465 289z"/>
<path style="fill:#b3b3b3; stroke:none;" d="M169 290L170 291L169 290z"/>
<path style="fill:#575757; stroke:none;" d="M170 290L171 291L170 290z"/>
<path style="fill:#a3a3a3; stroke:none;" d="M188 290L189 291L188 290z"/>
<path style="fill:#919191; stroke:none;" d="M222 290L223 291L222 290z"/>
<path style="fill:#3f3f3f; stroke:none;" d="M360 290L361 291L360 290z"/>
<path style="fill:#cecece; stroke:none;" d="M466 290L467 291L466 290z"/>
<path style="fill:#c0c0c0; stroke:none;" d="M167 291L168 292L167 291z"/>
<path style="fill:#767676; stroke:none;" d="M168 291L169 292L168 291z"/>
<path style="fill:#474747; stroke:none;" d="M188 291L189 292L188 291z"/>
<path style="fill:#4c4c4c; stroke:none;" d="M223 291L224 292L223 291z"/>
<path style="fill:#767676; stroke:none;" d="M328 291L329 292L328 291z"/>
<path style="fill:#a7a7a7; stroke:none;" d="M360 291L361 292L360 291z"/>
<path style="fill:#6d6d6d; stroke:none;" d="M466 291L467 292L466 291z"/>
<path style="fill:#cdcdcd; stroke:none;" d="M165 292L166 293L165 292z"/>
<path style="fill:#8a8a8a; stroke:none;" d="M166 292L167 293L166 292z"/>
<path style="fill:#353535; stroke:none;" d="M167 292L168 293L167 292z"/>
<path style="fill:#888888; stroke:none;" d="M189 292L190 293L189 292z"/>
<path style="fill:#ababab; stroke:none;" d="M223 292L224 293L223 292z"/>
<path style="fill:#c5c5c5; stroke:none;" d="M329 292L330 293L329 292z"/>
<path style="fill:#575757; stroke:none;" d="M361 292L362 293L361 292z"/>
<path style="fill:#b1b1b1; stroke:none;" d="M467 292L468 293L467 292z"/>
<path style="fill:#9f9f9f; stroke:none;" d="M164 293L165 294L164 293z"/>
<path style="fill:#4d4d4d; stroke:none;" d="M165 293L166 294L165 293z"/>
<path style="fill:#c5c5c5; stroke:none;" d="M190 293L191 294L190 293z"/>
<path style="fill:#5e5e5e; stroke:none;" d="M224 293L225 294L224 293M329 293L330 294L329 293z"/>
<path style="fill:#bfbfbf; stroke:none;" d="M361 293L362 294L361 293z"/>
<path style="fill:#585858; stroke:none;" d="M467 293L468 294L467 293z"/>
<path style="fill:#bababa; stroke:none;" d="M162 294L163 295L162 294z"/>
<path style="fill:#5e5e5e; stroke:none;" d="M163 294L164 295L163 294z"/>
<path style="fill:#6f6f6f; stroke:none;" d="M190 294L191 295L190 294z"/>
<path style="fill:#b8b8b8; stroke:none;" d="M224 294L225 295L224 294z"/>
<path style="fill:#343434; stroke:none;" d="M225 294L226 295L225 294z"/>
<path style="fill:#a3a3a3; stroke:none;" d="M330 294L331 295L330 294z"/>
<path style="fill:#737373; stroke:none;" d="M362 294L363 295L362 294z"/>
<path style="fill:#979797; stroke:none;" d="M468 294L469 295L468 294z"/>
<path style="fill:#ededed; stroke:none;" d="M469 294L469.667 295.75L469.861 296.278L471 297L470.333 295.25L470.139 294.722L469 294z"/>
<path style="fill:#c7c7c7; stroke:none;" d="M160 295L161 296L160 295z"/>
<path style="fill:#737373; stroke:none;" d="M161 295L162 296L161 295z"/>
<path style="fill:#a1a1a1; stroke:none;" d="M191 295L192 296L191 295z"/>
<path style="fill:#777777; stroke:none;" d="M225 295L226 296L225 295z"/>
<path style="fill:#4d4d4d; stroke:none;" d="M330 295L331 296L330 295z"/>
<path style="fill:#c8c8c8; stroke:none;" d="M362 295L363 296L362 295z"/>
<path style="fill:#393939; stroke:none;" d="M363 295L364 296L363 295z"/>
<path style="fill:#3b3b3b; stroke:none;" d="M468 295L469 296L468 295z"/>
<path style="fill:#919191; stroke:none;" d="M159 296L160 297L159 296z"/>
<path style="fill:#535353; stroke:none;" d="M191 296L192 297L191 296z"/>
<path style="fill:#474747; stroke:none;" d="M226 296L227 297L226 296z"/>
<path style="fill:#838383; stroke:none;" d="M331 296L332 297L331 296z"/>
<path style="fill:#c7c7c7; stroke:none;" d="M363.333 296.667L363.333 297.333L363.667 297.333L363.667 296.667L363.333 296.667z"/>
<path style="fill:#888888; stroke:none;" d="M469 296L470 297L469 296z"/>
<path style="fill:#9e9e9e; stroke:none;" d="M157 297L158 298L157 297z"/>
<path style="fill:#505050; stroke:none;" d="M158 297L159 298L158 297z"/>
<path style="fill:#898989; stroke:none;" d="M192 297L193 298L192 297z"/>
<path style="fill:#939393; stroke:none;" d="M226 297L227 298L226 297z"/>
<path style="fill:#494949; stroke:none;" d="M331 297L332 298L331 297z"/>
<path style="fill:#c3c3c3; stroke:none;" d="M332 297L333 298L332 297z"/>
<path style="fill:#4f4f4f; stroke:none;" d="M364 297L365 298L364 297z"/>
<path style="fill:#3a3a3a; stroke:none;" d="M469 297L470 298L469 297z"/>
<path style="fill:#c0c0c0; stroke:none;" d="M470 297L471 298L470 297z"/>
<path style="fill:#b3b3b3; stroke:none;" d="M155 298L156 299L155 298z"/>
<path style="fill:#6a6a6a; stroke:none;" d="M156 298L157 299L156 298z"/>
<path style="fill:#636363; stroke:none;" d="M227 298L228 299L227 298z"/>
<path style="fill:#6b6b6b; stroke:none;" d="M332 298L333 299L332 298z"/>
<path style="fill:#acacac; stroke:none;" d="M364 298L365 299L364 298z"/>
<path style="fill:#727272; stroke:none;" d="M470 298L471 299L470 298z"/>
<path style="fill:#cdcdcd; stroke:none;" d="M153 299L154 300L153 299z"/>
<path style="fill:#7b7b7b; stroke:none;" d="M154 299L155 300L154 299z"/>
<path style="fill:#767676; stroke:none;" d="M193 299L194 300L193 299z"/>
<path style="fill:#a9a9a9; stroke:none;" d="M227 299L228 300L227 299z"/>
<path style="fill:#bcbcbc; stroke:none;" d="M333 299L334 300L333 299z"/>
<path style="fill:#5e5e5e; stroke:none;" d="M365 299L366 300L365 299z"/>
<path style="fill:#acacac; stroke:none;" d="M471 299L472 300L471 299z"/>
<path style="fill:#929292; stroke:none;" d="M152 300L153 301L152 300z"/>
<path style="fill:#3a3a3a; stroke:none;" d="M153 300L154 301L153 300z"/>
<path style="fill:#bababa; stroke:none;" d="M194 300L195 301L194 300z"/>
<path style="fill:#797979; stroke:none;" d="M228 300L229 301L228 300z"/>
<path style="fill:#5f5f5f; stroke:none;" d="M333 300L334 301L333 300z"/>
<path style="fill:#bbbbbb; stroke:none;" d="M365 300L366 301L365 300z"/>
<path style="fill:#515151; stroke:none;" d="M471 300L472 301L471 300z"/>
<path style="fill:#a4a4a4; stroke:none;" d="M150 301L151 302L150 301z"/>
<path style="fill:#555555; stroke:none;" d="M151 301L152 302L151 301M194 301L195 302L194 301z"/>
<path style="fill:#cacaca; stroke:none;" d="M228 301L229 302L228 301z"/>
<path style="fill:#343434; stroke:none;" d="M229 301L230 302L229 301z"/>
<path style="fill:#a7a7a7; stroke:none;" d="M334 301L335 302L334 301z"/>
<path style="fill:#6f6f6f; stroke:none;" d="M366 301L367 302L366 301z"/>
<path style="fill:#939393; stroke:none;" d="M472 301L473 302L472 301z"/>
<path style="fill:#6a6a6a; stroke:none;" d="M149 302L150 303L149 302z"/>
<path style="fill:#9f9f9f; stroke:none;" d="M195 302L196 303L195 302z"/>
<path style="fill:#8b8b8b; stroke:none;" d="M229 302L230 303L229 302z"/>
<path style="fill:#494949; stroke:none;" d="M334 302L335 303L334 302z"/>
<path style="fill:#cacaca; stroke:none;" d="M335 302L336 303L335 302z"/>
<path style="fill:#c2c2c2; stroke:none;" d="M366 302L367 303L366 302z"/>
<path style="fill:#454545; stroke:none;" d="M367 302L368 303L367 302z"/>
<path style="fill:#414141; stroke:none;" d="M472 302L473 303L472 302z"/>
<path style="fill:#c9c9c9; stroke:none;" d="M473 302L474 303L473 302z"/>
<path style="fill:#848484; stroke:none;" d="M147 303L148 304L147 303z"/>
<path style="fill:#454545; stroke:none;" d="M230 303L231 304L230 303z"/>
<path style="fill:#909090; stroke:none;" d="M335 303L336 304L335 303z"/>
<path style="fill:#7c7c7c; stroke:none;" d="M367 303L368 304L367 303z"/>
<path style="fill:#7a7a7a; stroke:none;" d="M473 303L474 304L473 303z"/>
<path style="fill:#9e9e9e; stroke:none;" d="M145 304L146 305L145 304z"/>
<path style="fill:#424242; stroke:none;" d="M146 304L147 305L146 304z"/>
<path style="fill:#737373; stroke:none;" d="M196 304L197 305L196 304z"/>
<path style="fill:#a4a4a4; stroke:none;" d="M230 304L231 305L230 304z"/>
<path style="fill:#1c1c1c; stroke:none;" d="M335.333 304.667L335.333 305.333L335.667 305.333L335.667 304.667L335.333 304.667z"/>
<path style="fill:#c7c7c7; stroke:none;" d="M336 304L337 305L336 304z"/>
<path style="fill:#494949; stroke:none;" d="M368 304L369 305L368 304z"/>
<path style="fill:#c0c0c0; stroke:none;" d="M474 304L475 305L474 304z"/>
<path style="fill:#b9b9b9; stroke:none;" d="M143 305L144 306L143 305z"/>
<path style="fill:#676767; stroke:none;" d="M144 305L145 306L144 305z"/>
<path style="fill:#3b3b3b; stroke:none;" d="M196 305L197 306L196 305z"/>
<path style="fill:#bdbdbd; stroke:none;" d="M197 305L198 306L197 305z"/>
<path style="fill:#707070; stroke:none;" d="M231 305L232 306L231 305z"/>
<path style="fill:#6e6e6e; stroke:none;" d="M336 305L337 306L336 305z"/>
<path style="fill:#a2a2a2; stroke:none;" d="M368 305L369 306L368 305z"/>
<path style="fill:#606060; stroke:none;" d="M474 305L475 306L474 305z"/>
<path style="fill:#cacaca; stroke:none;" d="M141 306L142 307L141 306z"/>
<path style="fill:#787878; stroke:none;" d="M142 306L143 307L142 306z"/>
<path style="fill:#636363; stroke:none;" d="M197 306L198 307L197 306z"/>
<path style="fill:#a9a9a9; stroke:none;" d="M337 306L338 307L337 306z"/>
<path style="fill:#626262; stroke:none;" d="M369 306L370 307L369 306z"/>
<path style="fill:#a7a7a7; stroke:none;" d="M475 306L476 307L475 306z"/>
<path style="fill:#d4d4d4; stroke:none;" d="M139 307L140 308L139 307z"/>
<path style="fill:#929292; stroke:none;" d="M140 307L141 308L140 307z"/>
<path style="fill:#a3a3a3; stroke:none;" d="M198 307L199 308L198 307z"/>
<path style="fill:#878787; stroke:none;" d="M232 307L233 308L232 307z"/>
<path style="fill:#555555; stroke:none;" d="M337 307L338 308L337 307z"/>
<path style="fill:#b0b0b0; stroke:none;" d="M369 307L370 308L369 307z"/>
<path style="fill:#525252; stroke:none;" d="M475 307L476 308L475 307z"/>
<path style="fill:#a4a4a4; stroke:none;" d="M138 308L139 309L138 308z"/>
<path style="fill:#505050; stroke:none;" d="M139 308L140 309L139 308z"/>
<path style="fill:#4a4a4a; stroke:none;" d="M198 308L199 309L198 308z"/>
<path style="fill:#3c3c3c; stroke:none;" d="M233 308L234 309L233 308z"/>
<path style="fill:#909090; stroke:none;" d="M338 308L339 309L338 308z"/>
<path style="fill:#7a7a7a; stroke:none;" d="M370 308L371 309L370 308z"/>
<path style="fill:#838383; stroke:none;" d="M476 308L477 309L476 308z"/>
<path style="fill:#bbbbbb; stroke:none;" d="M136 309L137 310L136 309z"/>
<path style="fill:#656565; stroke:none;" d="M137 309L138 310L137 309z"/>
<path style="fill:#888888; stroke:none;" d="M199 309L200 310L199 309z"/>
<path style="fill:#a3a3a3; stroke:none;" d="M233 309L234 310L233 309z"/>
<path style="fill:#3a3a3a; stroke:none;" d="M338 309L339 310L338 309z"/>
<path style="fill:#353535; stroke:none;" d="M371 309L372 310L371 309z"/>
<path style="fill:#c7c7c7; stroke:none;" d="M477 309L478 310L477 309z"/>
<path style="fill:#c9c9c9; stroke:none;" d="M134 310L135 311L134 310z"/>
<path style="fill:#7b7b7b; stroke:none;" d="M135 310L136 311L135 310z"/>
<path style="fill:#323232; stroke:none;" d="M199 310L200 311L199 310z"/>
<path style="fill:#c0c0c0; stroke:none;" d="M200 310L201 311L200 310z"/>
<path style="fill:#5d5d5d; stroke:none;" d="M234 310L235 311L234 310z"/>
<path style="fill:#818181; stroke:none;" d="M339 310L340 311L339 310z"/>
<path style="fill:#878787; stroke:none;" d="M371 310L372 311L371 310z"/>
<path style="fill:#717171; stroke:none;" d="M477 310L478 311L477 310z"/>
<path style="fill:#afafaf; stroke:none;" d="M478.333 310.667L478.333 311.333L478.667 311.333L478.667 311L478.333 310.667z"/>
<path style="fill:#999999; stroke:none;" d="M133 311L134 312L133 311z"/>
<path style="fill:#4d4d4d; stroke:none;" d="M134 311L135 312L134 311z"/>
<path style="fill:#787878; stroke:none;" d="M200 311L201 312L200 311z"/>
<path style="fill:#b2b2b2; stroke:none;" d="M234 311L235 312L234 311z"/>
<path style="fill:#c8c8c8; stroke:none;" d="M340 311L341 312L340 311z"/>
<path style="fill:#e1e1e1; stroke:none;" d="M371.333 311.667L371.333 312.333L371.667 312.333L371.667 311.667L371.333 311.667z"/>
<path style="fill:#444444; stroke:none;" d="M372 311L373 312L372 311z"/>
<path style="fill:#a6a6a6; stroke:none;" d="M131 312L132 313L131 312z"/>
<path style="fill:#575757; stroke:none;" d="M132 312L133 313L132 312z"/>
<path style="fill:#adadad; stroke:none;" d="M201 312L202 313L201 312z"/>
<path style="fill:#848484; stroke:none;" d="M235 312L236 313L235 312z"/>
<path style="fill:#565656; stroke:none;" d="M340 312L341 313L340 312z"/>
<path style="fill:#b3b3b3; stroke:none;" d="M372 312L373 313L372 312z"/>
<path style="fill:#282828; stroke:none;" d="M478.333 312.667L478.333 313.333L478.667 313.333L478.667 313L478.333 312.667z"/>
<path style="fill:#c3c3c3; stroke:none;" d="M129 313L130 314L129 313z"/>
<path style="fill:#787878; stroke:none;" d="M130 313L131 314L130 313z"/>
<path style="fill:#5a5a5a; stroke:none;" d="M201 313L202 314L201 313z"/>
<path style="fill:#b5b5b5; stroke:none;" d="M235 313L236 314L235 313z"/>
<path style="fill:#3d3d3d; stroke:none;" d="M236 313L237 314L236 313z"/>
<path style="fill:#a0a0a0; stroke:none;" d="M341 313L342 314L341 313z"/>
<path style="fill:#636363; stroke:none;" d="M373 313L374 314L373 313z"/>
<path style="fill:#8b8b8b; stroke:none;" d="M479 313L480 314L479 313z"/>
<path style="fill:#8c8c8c; stroke:none;" d="M128 314L129 315L128 314z"/>
<path style="fill:#363636; stroke:none;" d="M129 314L130 315L129 314z"/>
<path style="fill:#919191; stroke:none;" d="M202 314L203 315L202 314z"/>
<path style="fill:#989898; stroke:none;" d="M236 314L237 315L236 314z"/>
<path style="fill:#4b4b4b; stroke:none;" d="M341 314L342 315L341 314z"/>
<path style="fill:#bcbcbc; stroke:none;" d="M373 314L374 315L373 314z"/>
<path style="fill:#a5a5a5; stroke:none;" d="M126 315L127 316L126 315z"/>
<path style="fill:#535353; stroke:none;" d="M127 315L128 316L127 315z"/>
<path style="fill:#3d3d3d; stroke:none;" d="M202 315L203 316L202 315z"/>
<path style="fill:#d0d0d0; stroke:none;" d="M203 315L204 316L203 315z"/>
<path style="fill:#434343; stroke:none;" d="M237 315L238 316L237 315z"/>
<path style="fill:#898989; stroke:none;" d="M342 315L343 316L342 315z"/>
<path style="fill:#797979; stroke:none;" d="M374 315L375 316L374 315z"/>
<path style="fill:#7c7c7c; stroke:none;" d="M480 315L481 316L480 315z"/>
<path style="fill:#b8b8b8; stroke:none;" d="M124 316L125 317L124 316z"/>
<path style="fill:#606060; stroke:none;" d="M125 316L126 317L125 316z"/>
<path style="fill:#838383; stroke:none;" d="M203 316L204 317L203 316z"/>
<path style="fill:#a2a2a2; stroke:none;" d="M237 316L238 317L237 316z"/>
<path style="fill:#3b3b3b; stroke:none;" d="M342 316L343 317L342 316z"/>
<path style="fill:#c5c5c5; stroke:none;" d="M343 316L344 317L343 316z"/>
<path style="fill:#3a3a3a; stroke:none;" d="M375 316L376 317L375 316z"/>
<path style="fill:#bbbbbb; stroke:none;" d="M481 316L482 317L481 316z"/>
<path style="fill:#cacaca; stroke:none;" d="M122 317L123 318L122 317z"/>
<path style="fill:#767676; stroke:none;" d="M123 317L124 318L123 317z"/>
<path style="fill:#323232; stroke:none;" d="M203 317L204 318L203 317z"/>
<path style="fill:#bbbbbb; stroke:none;" d="M204 317L205 318L204 317z"/>
<path style="fill:#5a5a5a; stroke:none;" d="M238 317L239 318L238 317z"/>
<path style="fill:#6e6e6e; stroke:none;" d="M343 317L344 318L343 317z"/>
<path style="fill:#909090; stroke:none;" d="M375 317L376 318L375 317z"/>
<path style="fill:#646464; stroke:none;" d="M481 317L482 318L481 317z"/>
<path style="fill:#8b8b8b; stroke:none;" d="M121 318L122 319L121 318z"/>
<path style="fill:#373737; stroke:none;" d="M122 318L123 319L122 318z"/>
<path style="fill:#636363; stroke:none;" d="M204 318L205 319L204 318z"/>
<path style="fill:#b6b6b6; stroke:none;" d="M238 318L239 319L238 318z"/>
<path style="fill:#363636; stroke:none;" d="M239 318L240 319L239 318z"/>
<path style="fill:#b1b1b1; stroke:none;" d="M344 318L345 319L344 318z"/>
<path style="fill:#505050; stroke:none;" d="M376 318L377 319L376 318z"/>
<path style="fill:#a2a2a2; stroke:none;" d="M482 318L483 319L482 318z"/>
<path style="fill:#a8a8a8; stroke:none;" d="M119 319L120 320L119 319z"/>
<path style="fill:#4d4d4d; stroke:none;" d="M120 319L121 320L120 319z"/>
<path style="fill:#b1b1b1; stroke:none;" d="M205 319L206 320L205 319z"/>
<path style="fill:#dddddd; stroke:none;" d="M206.333 319.667L206.333 320L206.667 320.333L206.667 320L206.333 319.667z"/>
<path style="fill:#747474; stroke:none;" d="M239 319L240 320L239 319z"/>
<path style="fill:#626262; stroke:none;" d="M344 319L345 320L344 319z"/>
<path style="fill:#9f9f9f; stroke:none;" d="M376 319L377 320L376 319z"/>
<path style="fill:#474747; stroke:none;" d="M482 319L483 320L482 319z"/>
<path style="fill:#bdbdbd; stroke:none;" d="M117 320L118 321L117 320z"/>
<path style="fill:#6f6f6f; stroke:none;" d="M118 320L119 321L118 320z"/>
<path style="fill:#444444; stroke:none;" d="M240 320L241 321L240 320z"/>
<path style="fill:#929292; stroke:none;" d="M345 320L346 321L345 320z"/>
<path style="fill:#6e6e6e; stroke:none;" d="M377 320L378 321L377 320z"/>
<path style="fill:#737373; stroke:none;" d="M483 320L484 321L483 320z"/>
<path style="fill:#c9c9c9; stroke:none;" d="M115 321L116 322L115 321z"/>
<path style="fill:#707070; stroke:none;" d="M116 321L117 322L116 321z"/>
<path style="fill:#838383; stroke:none;" d="M206 321L207 322L206 321z"/>
<path style="fill:#989898; stroke:none;" d="M240 321L241 322L240 321z"/>
<path style="fill:#4c4c4c; stroke:none;" d="M345 321L346 322L345 321z"/>
<path style="fill:#b0b0b0; stroke:none;" d="M377 321L378 322L377 321z"/>
<path style="fill:#363636; stroke:none;" d="M378 321L379 322L378 321z"/>
<path style="fill:#474747; stroke:none;" d="M483 321L484 322L483 321z"/>
<path style="fill:#bcbcbc; stroke:none;" d="M484 321L485 322L484 321z"/>
<path style="fill:#8b8b8b; stroke:none;" d="M114 322L115 323L114 322z"/>
<path style="fill:#c6c6c6; stroke:none;" d="M207 322L208 323L207 322z"/>
<path style="fill:#575757; stroke:none;" d="M241 322L242 323L241 322z"/>
<path style="fill:#818181; stroke:none;" d="M346 322L347 323L346 322z"/>
<path style="fill:#888888; stroke:none;" d="M378 322L379 323L378 322z"/>
<path style="fill:#606060; stroke:none;" d="M484 322L485 323L484 322z"/>
<path style="fill:#afafaf; stroke:none;" d="M112 323L113 324L112 323z"/>
<path style="fill:#545454; stroke:none;" d="M113 323L114 324L113 323z"/>
<path style="fill:#727272; stroke:none;" d="M207 323L208 324L207 323z"/>
<path style="fill:#aaaaaa; stroke:none;" d="M241 323L242 324L241 323z"/>
<path style="fill:#c8c8c8; stroke:none;" d="M347 323L348 324L347 323z"/>
<path style="fill:#cbcbcb; stroke:none;" d="M378 323L379 324L378 323z"/>
<path style="fill:#363636; stroke:none;" d="M379 323L380 324L379 323z"/>
<path style="fill:#b5b5b5; stroke:none;" d="M485 323L486 324L485 323z"/>
<path style="fill:#bababa; stroke:none;" d="M110 324L111 325L110 324z"/>
<path style="fill:#6c6c6c; stroke:none;" d="M111 324L112 325L111 324z"/>
<path style="fill:#a3a3a3; stroke:none;" d="M208 324L209 325L208 324z"/>
<path style="fill:#747474; stroke:none;" d="M242 324L243 325L242 324z"/>
<path style="fill:#6f6f6f; stroke:none;" d="M347 324L348 325L347 324z"/>
<path style="fill:#919191; stroke:none;" d="M379 324L380 325L379 324z"/>
<path style="fill:#565656; stroke:none;" d="M485 324L486 325L485 324z"/>
<path style="fill:#8f8f8f; stroke:none;" d="M109 325L110 326L109 325z"/>
<path style="fill:#3e3e3e; stroke:none;" d="M110 325L111 326L110 325z"/>
<path style="fill:#525252; stroke:none;" d="M208 325L209 326L208 325z"/>
<path style="fill:#c5c5c5; stroke:none;" d="M242 325L243 326L242 325z"/>
<path style="fill:#ababab; stroke:none;" d="M348 325L349 326L348 325z"/>
<path style="fill:#4f4f4f; stroke:none;" d="M380 325L381 326L380 325z"/>
<path style="fill:#a3a3a3; stroke:none;" d="M486 325L487 326L486 325z"/>
<path style="fill:#a2a2a2; stroke:none;" d="M107 326L108 327L107 326z"/>
<path style="fill:#4a4a4a; stroke:none;" d="M108 326L109 327L108 326z"/>
<path style="fill:#969696; stroke:none;" d="M209 326L210 327L209 326z"/>
<path style="fill:#848484; stroke:none;" d="M243 326L244 327L243 326z"/>
<path style="fill:#535353; stroke:none;" d="M348 326L349 327L348 326z"/>
<path style="fill:#d2d2d2; stroke:none;" d="M349 326L350 327L349 326z"/>
<path style="fill:#a1a1a1; stroke:none;" d="M380 326L381 327L380 326z"/>
<path style="fill:#484848; stroke:none;" d="M486 326L487 327L486 326z"/>
<path style="fill:#c8c8c8; stroke:none;" d="M487 326L488 327L487 326z"/>
<path style="fill:#bebebe; stroke:none;" d="M105.333 327.667L105.333 328L105.667 328.333L105.667 327.667L105.333 327.667z"/>
<path style="fill:#5a5a5a; stroke:none;" d="M106 327L107 328L106 327z"/>
<path style="fill:#3f3f3f; stroke:none;" d="M209 327L210 328L209 327z"/>
<path style="fill:#dfdfdf; stroke:none;" d="M243 327L243.667 328.75L243.861 329.278L245 330L244.333 328.25L244.139 327.722L243 327z"/>
<path style="fill:#3f3f3f; stroke:none;" d="M244 327L245 328L244 327z"/>
<path style="fill:#a1a1a1; stroke:none;" d="M349 327L350 328L349 327z"/>
<path style="fill:#d8d8d8; stroke:none;" d="M350.333 327.667L350.333 328.333L350.667 328.333L350.667 327.667L350.333 327.667z"/>
<path style="fill:#515151; stroke:none;" d="M381 327L382 328L381 327z"/>
<path style="fill:#1e1e1e; stroke:none;" d="M382.333 327.667L382.333 328.333L382.667 328.333L382.667 327.667L382.333 327.667z"/>
<path style="fill:#888888; stroke:none;" d="M487 327L488 328L487 327z"/>
<path style="fill:#707070; stroke:none;" d="M210 328L211 329L210 328z"/>
<path style="fill:#bfbfbf; stroke:none;" d="M488 328L489 329L488 328z"/>
<path style="fill:#6c6c6c; stroke:none;" d="M106 329L107 330L106 329z"/>
<path style="fill:#323232; stroke:none;" d="M210 329L211 330L210 329z"/>
<path style="fill:#b3b3b3; stroke:none;" d="M211 329L212 330L211 329z"/>
<path style="fill:#636363; stroke:none;" d="M245 329L246 330L245 329z"/>
<path style="fill:#7b7b7b; stroke:none;" d="M350 329L351 330L350 329z"/>
<path style="fill:#797979; stroke:none;" d="M382 329L383 330L382 329z"/>
<path style="fill:#646464; stroke:none;" d="M488 329L489 330L488 329z"/>
<path style="fill:#c5c5c5; stroke:none;" d="M106 330L107 331L106 330z"/>
<path style="fill:#555555; stroke:none;" d="M211 330L212 331L211 330z"/>
<path style="fill:#b8b8b8; stroke:none;" d="M245 330L246 331L245 330z"/>
<path style="fill:#2d2d2d; stroke:none;" d="M246 330L247 331L246 330z"/>
<path style="fill:#bcbcbc; stroke:none;" d="M351 330L352 331L351 330z"/>
<path style="fill:#3a3a3a; stroke:none;" d="M383 330L384 331L383 330z"/>
<path style="fill:#a0a0a0; stroke:none;" d="M489 330L490 331L489 330z"/>
<path style="fill:#7d7d7d; stroke:none;" d="M107 331L108 332L107 331z"/>
<path style="fill:#9c9c9c; stroke:none;" d="M212 331L213 332L212 331z"/>
<path style="fill:#7d7d7d; stroke:none;" d="M246 331L247 332L246 331z"/>
<path style="fill:#686868; stroke:none;" d="M351 331L352 332L351 331z"/>
<path style="fill:#8f8f8f; stroke:none;" d="M383 331L384 332L383 331z"/>
<path style="fill:#4f4f4f; stroke:none;" d="M489 331L490 332L489 331z"/>
<path style="fill:#d2d2d2; stroke:none;" d="M107 332L108 333L107 332z"/>
<path style="fill:#414141; stroke:none;" d="M108 332L109 333L108 332z"/>
<path style="fill:#3f3f3f; stroke:none;" d="M212 332L213 333L212 332z"/>
<path style="fill:#404040; stroke:none;" d="M247 332L248 333L247 332z"/>
<path style="fill:#a7a7a7; stroke:none;" d="M352 332L353 333L352 332z"/>
<path style="fill:#515151; stroke:none;" d="M384 332L385 333L384 332z"/>
<path style="fill:#8b8b8b; stroke:none;" d="M490 332L491 333L490 332z"/>
<path style="fill:#9a9a9a; stroke:none;" d="M108 333L109 334L108 333z"/>
<path style="fill:#8a8a8a; stroke:none;" d="M213 333L214 334L213 333z"/>
<path style="fill:#949494; stroke:none;" d="M247 333L248 334L247 333z"/>
<path style="fill:#535353; stroke:none;" d="M352 333L353 334L352 333z"/>
<path style="fill:#a3a3a3; stroke:none;" d="M384 333L385 334L384 333z"/>
<path style="fill:#353535; stroke:none;" d="M490 333L491 334L490 333z"/>
<path style="fill:#cccccc; stroke:none;" d="M491 333L492 334L491 333z"/>
<path style="fill:#555555; stroke:none;" d="M109 334L110 335L109 334z"/>
<path style="fill:#323232; stroke:none;" d="M213 334L214 335L213 334z"/>
<path style="fill:#b5b5b5; stroke:none;" d="M214 334L215 335L214 334z"/>
<path style="fill:#535353; stroke:none;" d="M248 334L249 335L248 334z"/>
<path style="fill:#8d8d8d; stroke:none;" d="M353 334L354 335L353 334z"/>
<path style="fill:#d4d4d4; stroke:none;" d="M354.333 334.667L354.333 335.333L354.667 335.333L354.667 334.667L354.333 334.667z"/>
<path style="fill:#636363; stroke:none;" d="M385 334L386 335L385 334z"/>
<path style="fill:#1f1f1f; stroke:none;" d="M386.333 334.667L386.333 335.333L386.667 335.333L386.667 334.667L386.333 334.667z"/>
<path style="fill:#777777; stroke:none;" d="M491 334L492 335L491 334z"/>
<path style="fill:#a0a0a0; stroke:none;" d="M109 335L110 336L109 335z"/>
<path style="fill:#7e7e7e; stroke:none;" d="M214 335L215 336L214 335z"/>
<path style="fill:#a5a5a5; stroke:none;" d="M248 335L249 336L248 335z"/>
<path style="fill:#363636; stroke:none;" d="M353 335L354 336L353 335z"/>
<path style="fill:#b6b6b6; stroke:none;" d="M385 335L386 336L385 335z"/>
<path style="fill:#bfbfbf; stroke:none;" d="M492 335L493 336L492 335z"/>
<path style="fill:#626262; stroke:none;" d="M110 336L111 337L110 336z"/>
<path style="fill:#a8a8a8; stroke:none;" d="M215 336L216 337L215 336z"/>
<path style="fill:#777777; stroke:none;" d="M249 336L250 337L249 336z"/>
<path style="fill:#6d6d6d; stroke:none;" d="M354 336L355 337L354 336z"/>
<path style="fill:#898989; stroke:none;" d="M386 336L387 337L386 336z"/>
<path style="fill:#505050; stroke:none;" d="M492 336L493 337L492 336z"/>
<path style="fill:#b5b5b5; stroke:none;" d="M110 337L111 338L110 337z"/>
<path style="fill:#2c2c2c; stroke:none;" d="M111 337L112 338L111 337z"/>
<path style="fill:#5b5b5b; stroke:none;" d="M215 337L216 338L215 337z"/>
<path style="fill:#d2d2d2; stroke:none;" d="M216 337L217 338L216 337z"/>
<path style="fill:#b3b3b3; stroke:none;" d="M249 337L250 338L249 337z"/>
<path style="fill:#3c3c3c; stroke:none;" d="M250 337L251 338L250 337z"/>
<path style="fill:#303030; stroke:none;" d="M354 337L355 338L354 337z"/>
<path style="fill:#b2b2b2; stroke:none;" d="M355 337L356 338L355 337z"/>
<path style="fill:#bebebe; stroke:none;" d="M386 337L387 338L386 337z"/>
<path style="fill:#424242; stroke:none;" d="M387 337L388 338L387 337z"/>
<path style="fill:#989898; stroke:none;" d="M493 337L494 338L493 337z"/>
<path style="fill:#767676; stroke:none;" d="M111 338L112 339L111 338z"/>
<path style="fill:#8c8c8c; stroke:none;" d="M216 338L217 339L216 338z"/>
<path style="fill:#8f8f8f; stroke:none;" d="M250 338L251 339L250 338z"/>
<path style="fill:#545454; stroke:none;" d="M355 338L356 339L355 338z"/>
<path style="fill:#989898; stroke:none;" d="M387 338L388 339L387 338z"/>
<path style="fill:#434343; stroke:none;" d="M493 338L494 339L493 338z"/>
<path style="fill:#d1d1d1; stroke:none;" d="M494 338L495 339L494 338z"/>
<path style="fill:#3c3c3c; stroke:none;" d="M112 339L113 340L112 339z"/>
<path style="fill:#444444; stroke:none;" d="M216 339L217 340L216 339z"/>
<path style="fill:#cbcbcb; stroke:none;" d="M217 339L218 340L217 339z"/>
<path style="fill:#3b3b3b; stroke:none;" d="M251 339L252 340L251 339z"/>
<path style="fill:#9d9d9d; stroke:none;" d="M356 339L357 340L356 339z"/>
<path style="fill:#4f4f4f; stroke:none;" d="M388 339L389 340L388 339z"/>
<path style="fill:#818181; stroke:none;" d="M494 339L495 340L494 339z"/>
<path style="fill:#8a8a8a; stroke:none;" d="M112 340L113 341L112 340z"/>
<path style="fill:#717171; stroke:none;" d="M217 340L218 341L217 340z"/>
<path style="fill:#959595; stroke:none;" d="M251 340L252 341L251 340z"/>
<path style="fill:#3e3e3e; stroke:none;" d="M356 340L357 341L356 340z"/>
<path style="fill:#cbcbcb; stroke:none;" d="M357 340L358 341L357 340z"/>
<path style="fill:#a5a5a5; stroke:none;" d="M388 340L389 341L388 340z"/>
<path style="fill:#bbbbbb; stroke:none;" d="M495 340L496 341L495 340z"/>
<path style="fill:#515151; stroke:none;" d="M113 341L114 342L113 341z"/>
<path style="fill:#b5b5b5; stroke:none;" d="M218 341L219 342L218 341z"/>
<path style="fill:#5d5d5d; stroke:none;" d="M252 341L253 342L252 341z"/>
<path style="fill:#888888; stroke:none;" d="M357 341L358 342L357 341z"/>
<path style="fill:#575757; stroke:none;" d="M389 341L390 342L389 341z"/>
<path style="fill:#6a6a6a; stroke:none;" d="M495 341L496 342L495 341z"/>
<path style="fill:#a1a1a1; stroke:none;" d="M113 342L114 343L113 342z"/>
<path style="fill:#5f5f5f; stroke:none;" d="M218 342L219 343L218 342z"/>
<path style="fill:#cfcfcf; stroke:none;" d="M219 342L220 343L219 342z"/>
<path style="fill:#b2b2b2; stroke:none;" d="M252 342L253 343L252 342z"/>
<path style="fill:#323232; stroke:none;" d="M253 342L254 343L253 342z"/>
<path style="fill:#3a3a3a; stroke:none;" d="M357 342L358 343L357 342z"/>
<path style="fill:#b6b6b6; stroke:none;" d="M358 342L359 343L358 342z"/>
<path style="fill:#b4b4b4; stroke:none;" d="M389 342L390 343L389 342z"/>
<path style="fill:#424242; stroke:none;" d="M390 342L391 343L390 342z"/>
<path style="fill:#acacac; stroke:none;" d="M496 342L497 343L496 342z"/>
<path style="fill:#606060; stroke:none;" d="M114 343L115 344L114 343z"/>
<path style="fill:#9d9d9d; stroke:none;" d="M219 343L220 344L219 343z"/>
<path style="fill:#717171; stroke:none;" d="M253 343L254 344L253 343z"/>
<path style="fill:#707070; stroke:none;" d="M358 343L359 344L358 343z"/>
<path style="fill:#6d6d6d; stroke:none;" d="M390 343L391 344L390 343z"/>
<path style="fill:#575757; stroke:none;" d="M496 343L497 344L496 343z"/>
<path style="fill:#b4b4b4; stroke:none;" d="M114 344L115 345L114 344z"/>
<path style="fill:#a7a7a7; stroke:none;" d="M359 344L360 345L359 344z"/>
<path style="fill:#414141; stroke:none;" d="M391 344L392 345L391 344z"/>
<path style="fill:#878787; stroke:none;" d="M497 344L498 345L497 344z"/>
<path style="fill:#747474; stroke:none;" d="M115 345L116 346L115 345z"/>
<path style="fill:#7f7f7f; stroke:none;" d="M220 345L221 346L220 345z"/>
<path style="fill:#979797; stroke:none;" d="M254 345L255 346L254 345z"/>
<path style="fill:#5b5b5b; stroke:none;" d="M359 345L360 346L359 345z"/>
<path style="fill:#939393; stroke:none;" d="M391 345L392 346L391 345z"/>
<path style="fill:#414141; stroke:none;" d="M497 345L498 346L497 345z"/>
<path style="fill:#c8c8c8; stroke:none;" d="M498 345L499 346L498 345z"/>
<path style="fill:#c2c2c2; stroke:none;" d="M221 346L222 347L221 346z"/>
<path style="fill:#434343; stroke:none;" d="M255 346L256 347L255 346z"/>
<path style="fill:#8f8f8f; stroke:none;" d="M360 346L361 347L360 346z"/>
<path style="fill:#424242; stroke:none;" d="M392 346L393 347L392 346z"/>
<path style="fill:#777777; stroke:none;" d="M498 346L499 347L498 346z"/>
<path style="fill:#858585; stroke:none;" d="M116 347L117 348L116 347z"/>
<path style="fill:#6d6d6d; stroke:none;" d="M221 347L222 348L221 347z"/>
<path style="fill:#ababab; stroke:none;" d="M255 347L256 348L255 347z"/>
<path style="fill:#464646; stroke:none;" d="M360 347L361 348L360 347z"/>
<path style="fill:#cdcdcd; stroke:none;" d="M361 347L362 348L361 347z"/>
<path style="fill:#aaaaaa; stroke:none;" d="M392 347L393 348L392 347z"/>
<path style="fill:#bebebe; stroke:none;" d="M499 347L500 348L499 347z"/>
<path style="fill:#464646; stroke:none;" d="M117 348L118 349L117 348z"/>
<path style="fill:#959595; stroke:none;" d="M222 348L223 349L222 348z"/>
<path style="fill:#606060; stroke:none;" d="M256 348L257 349L256 348z"/>
<path style="fill:#747474; stroke:none;" d="M361 348L362 349L361 348z"/>
<path style="fill:#5f5f5f; stroke:none;" d="M393 348L394 349L393 348z"/>
<path style="fill:#646464; stroke:none;" d="M499 348L500 349L499 348z"/>
<path style="fill:#a1a1a1; stroke:none;" d="M117 349L118 350L117 349z"/>
<path style="fill:#515151; stroke:none;" d="M222 349L223 350L222 349z"/>
<path style="fill:#bababa; stroke:none;" d="M256 349L257 350L256 349z"/>
<path style="fill:#313131; stroke:none;" d="M257 349L258 350L257 349z"/>
<path style="fill:#bcbcbc; stroke:none;" d="M362 349L363 350L362 349z"/>
<path style="fill:#c7c7c7; stroke:none;" d="M393 349L394 350L393 349z"/>
<path style="fill:#a4a4a4; stroke:none;" d="M500 349L501 350L500 349z"/>
<path style="fill:#5a5a5a; stroke:none;" d="M118 350L119 351L118 350z"/>
<path style="fill:#858585; stroke:none;" d="M223 350L224 351L223 350z"/>
<path style="fill:#d6d6d6; stroke:none;" d="M224.333 350.667L224.333 351L224.667 351.333L224.667 351L224.333 350.667z"/>
<path style="fill:#818181; stroke:none;" d="M257 350L258 351L257 350z"/>
<path style="fill:#696969; stroke:none;" d="M362 350L363 351L362 350z"/>
<path style="fill:#767676; stroke:none;" d="M394 350L395 351L394 350z"/>
<path style="fill:#4c4c4c; stroke:none;" d="M500 350L501 351L500 350z"/>
<path style="fill:#c9c9c9; stroke:none;" d="M501 350L502 351L501 350z"/>
<path style="fill:#a7a7a7; stroke:none;" d="M118 351L119 352L118 351z"/>
<path style="fill:#0b0b0b; stroke:none;" d="M219 351L219 352L221 352L219.5 352.722L218.944 352.75L217.944 352.944L217 352.972L215 353L213 353L209 353L190 353L124 353L124.778 353.722L125.306 353.75L126.111 353.944L127.028 353.972L129 354L130 354L133 354L153 354L225 354L224 352L224 351L223 351L222 353L221.639 351.861L221.333 351.667L220.389 351.111L219 351z"/>
<path style="fill:#3d3d3d; stroke:none;" d="M258 351L259 352L258 351z"/>
<path style="fill:#a7a7a7; stroke:none;" d="M363 351L364 352L363 351z"/>
<path style="fill:#c9c9c9; stroke:none;" d="M394 351L395 352L394 351z"/>
<path style="fill:#3a3a3a; stroke:none;" d="M395 351L396 352L395 351z"/>
<path style="fill:#8c8c8c; stroke:none;" d="M501 351L502 352L501 351z"/>
<path style="fill:#6a6a6a; stroke:none;" d="M119 352L120 353L119 352M224 352L225 353L224 352z"/>
<path style="fill:#9d9d9d; stroke:none;" d="M258 352L259 353L258 352z"/>
<path style="fill:#9c9c9c; stroke:none;" d="M395 352L396 353L395 352z"/>
<path style="fill:#0b0b0b; stroke:none;" d="M501 352L499.5 352.722L498.944 352.75L497.944 352.944L497 352.972L495 353L493 353L489 353L468 353L397 353L397.778 353.722L398.306 353.75L399.111 353.944L400.028 353.972L402 354L403 354L405 354L420 354L477 354L490 354L494 354L496 354L498 354L499.889 353.889L501.222 353.389L501.611 352.667L501 352z"/>
<path style="fill:#bababa; stroke:none;" d="M502 352L503 353L502 352z"/>
<path style="fill:#b6b6b6; stroke:none;" d="M119 353L120 354L119 353z"/>
<path style="fill:#3d3d3d; stroke:none;" d="M120 353L121 354L120 353z"/>
<path style="fill:#c4c4c4; stroke:none;" d="M225.333 353.667L225.333 354L225.667 354.333L225.667 354L225.333 353.667z"/>
<path style="fill:#585858; stroke:none;" d="M259 353L260 354L259 353z"/>
<path style="fill:#0b0b0b; stroke:none;" d="M260 353L260.778 353.722L261.306 353.75L262.111 353.944L263.028 353.972L265 354L266 354L269 354L288 354L358 354L357.222 353.278L356.694 353.25L355.889 353.056L354.972 353.028L353 353L352 353L349 353L330 353L260 353z"/>
<path style="fill:#8d8d8d; stroke:none;" d="M364 353L365 354L364 353z"/>
<path style="fill:#c9c9c9; stroke:none;" d="M395 353L396 354L395 353z"/>
<path style="fill:#626262; stroke:none;" d="M396 353L397 354L396 353z"/>
<path style="fill:#747474; stroke:none;" d="M502 353L503 354L502 353z"/>
<path style="fill:#9a9a9a; stroke:none;" d="M120 354L120.778 354.722L121.306 354.75L122.111 354.944L123.028 354.972L125 355L127 355L130 355L150 355L225 355L224.222 354.278L223.694 354.25L222.889 354.056L221.972 354.028L220 354L218 354L215 354L195 354L120 354z"/>
<path style="fill:#c2c2c2; stroke:none;" d="M259 354L260 355L259 354z"/>
<path style="fill:#9a9a9a; stroke:none;" d="M260 354L260.778 354.722L261.306 354.75L262.111 354.944L263.028 354.972L265 355L266 355L269 355L289 355L364 355L363.222 354.278L362.694 354.25L361.889 354.056L360.972 354.028L359 354L358 354L355 354L335 354L260 354z"/>
<path style="fill:#c2c2c2; stroke:none;" d="M364 354L365 355L364 354z"/>
<path style="fill:#c5c5c5; stroke:none;" d="M396 354L397 355L396 354z"/>
<path style="fill:#9a9a9a; stroke:none;" d="M397 354L397.778 354.722L398.306 354.75L399.111 354.944L400.028 354.972L402 355L404 355L407 355L427 355L503 355L502.222 354.278L501.694 354.25L500.889 354.056L499.972 354.028L498 354L496 354L493 354L473 354L397 354z"/>
</svg>
